%TF.GenerationSoftware,KiCad,Pcbnew,10.0.6*%
%TF.CreationDate,2026-09-06T20:14:15-07:00*%
%TF.ProjectId,pmw3610_daughterboard,706d7733-3631-4305-9f64-617567687465,rev?*%
%TF.SameCoordinates,Original*%
%TF.FileFunction,Soldermask,Top*%
%TF.FilePolarity,Negative*%
%FSLAX46Y46*%
G04 Gerber Fmt 4.6, Leading zero omitted, Abs format (unit mm)*
G04 Created by KiCad (PCBNEW 10.0.6) date 2026-09-06 20:14:15*
%MOMM*%
%LPD*%
G01*
G04 APERTURE LIST*
G04 Aperture macros list*
%AMRoundRect*
0 Rectangle with rounded corners*
0 $1 Rounding radius*
0 $2 $3 $4 $5 $6 $7 $8 $9 X,Y pos of 4 corners*
0 Add a 4 corners polygon primitive as box body*
4,1,4,$2,$3,$4,$5,$6,$7,$8,$9,$2,$3,0*
0 Add four circle primitives for the rounded corners*
1,1,$1+$1,$2,$3*
1,1,$1+$1,$4,$5*
1,1,$1+$1,$6,$7*
1,1,$1+$1,$8,$9*
0 Add four rect primitives between the rounded corners*
20,1,$1+$1,$2,$3,$4,$5,0*
20,1,$1+$1,$4,$5,$6,$7,0*
20,1,$1+$1,$6,$7,$8,$9,0*
20,1,$1+$1,$8,$9,$2,$3,0*%
G04 Aperture macros list end*
%ADD10RoundRect,0.225000X0.250000X-0.225000X0.250000X0.225000X-0.250000X0.225000X-0.250000X-0.225000X0*%
%ADD11RoundRect,0.250000X-0.250000X-0.475000X0.250000X-0.475000X0.250000X0.475000X-0.250000X0.475000X0*%
%ADD12RoundRect,0.200000X0.275000X-0.200000X0.275000X0.200000X-0.275000X0.200000X-0.275000X-0.200000X0*%
%ADD13RoundRect,0.187500X-0.437500X0.437500X-0.437500X-0.437500X0.437500X-0.437500X0.437500X0.437500X0*%
%ADD14O,1.250000X1.250000*%
%ADD15R,1.500000X1.500000*%
%ADD16C,1.500000*%
%ADD17RoundRect,0.150000X-0.512500X-0.150000X0.512500X-0.150000X0.512500X0.150000X-0.512500X0.150000X0*%
%ADD18C,0.900000*%
%ADD19RoundRect,0.200000X-0.200000X-0.275000X0.200000X-0.275000X0.200000X0.275000X-0.200000X0.275000X0*%
G04 APERTURE END LIST*
D10*
%TO.C,C3*%
X20300000Y-8775000D03*
X20300000Y-7225000D03*
%TD*%
D11*
%TO.C,C1*%
X7550000Y-9500000D03*
X9450000Y-9500000D03*
%TD*%
%TO.C,C6*%
X12550000Y-9500000D03*
X14450000Y-9500000D03*
%TD*%
D12*
%TO.C,R1*%
X2800000Y-16325000D03*
X2800000Y-14675000D03*
%TD*%
D10*
%TO.C,C4*%
X2800000Y-13275000D03*
X2800000Y-11725000D03*
%TD*%
%TO.C,C8*%
X2800000Y-22275000D03*
X2800000Y-20725000D03*
%TD*%
D13*
%TO.C,U1*%
X5650000Y-10832000D03*
D14*
X5650000Y-12612000D03*
X5650000Y-14392000D03*
X5650000Y-16172000D03*
X5650000Y-17952000D03*
X5650000Y-19732000D03*
X5650000Y-21512000D03*
X5650000Y-23292000D03*
X16350000Y-24182000D03*
X16350000Y-22402000D03*
X16350000Y-20622000D03*
X16350000Y-18842000D03*
X16350000Y-17062000D03*
X16350000Y-15282000D03*
X16350000Y-13502000D03*
X16350000Y-11722000D03*
%TD*%
D10*
%TO.C,C5*%
X20300000Y-12275000D03*
X20300000Y-10725000D03*
%TD*%
D15*
%TO.C,J1*%
X3380000Y-5200000D03*
D16*
X5920000Y-5200000D03*
X8460000Y-5200000D03*
X11000000Y-5200000D03*
X13540000Y-5200000D03*
X16080000Y-5200000D03*
X18620000Y-5200000D03*
%TD*%
D10*
%TO.C,C2*%
X20300000Y-19275000D03*
X20300000Y-17725000D03*
%TD*%
%TO.C,C9*%
X2800000Y-19275000D03*
X2800000Y-17725000D03*
%TD*%
%TO.C,C7*%
X20300000Y-15775000D03*
X20300000Y-14225000D03*
%TD*%
D16*
%TO.C,MOT1*%
X21160000Y-5200000D03*
%TD*%
D17*
%TO.C,U2*%
X3362500Y-7350000D03*
X3362500Y-8300000D03*
X3362500Y-9250000D03*
X5637500Y-9250000D03*
X5637500Y-7350000D03*
%TD*%
D18*
%TO.C,GP1*%
X22000000Y-20300000D03*
%TD*%
D19*
%TO.C,R2*%
X10175000Y-7200000D03*
X11825000Y-7200000D03*
%TD*%
M02*
