M48
; DRILL file KiCad 10.0.6 date 2026-09-06T20:18:22
; FORMAT={-:-/ absolute / metric / decimal}
; #@! TF.CreationDate,2026-09-06T20:18:22-07:00
; #@! TF.GenerationSoftware,Kicad,Pcbnew,10.0.6
; #@! TF.FileFunction,Plated,1,2,PTH
FMAT,2
METRIC
; #@! TA.AperFunction,Plated,PTH,ViaDrill
T1C0.300
; #@! TA.AperFunction,Plated,PTH,ComponentDrill
T2C0.750
; #@! TA.AperFunction,Plated,PTH,ComponentDrill
T3C0.900
%
G90
G05
T1
X1.916Y-17.322
X3.49Y-19.965
X3.747Y-10.922
X4.046Y-17.466
X4.232Y-11.359
X6.689Y-7.866
X8.46Y-5.2
X13.54Y-5.2
X16.35Y-20.622
X18.949Y-15.454
X19.015Y-13.146
X19.404Y-14.257
X21.002Y-17.023
T2
X5.65Y-10.832
X5.65Y-12.612
X5.65Y-14.392
X5.65Y-16.172
X5.65Y-17.952
X5.65Y-19.732
X5.65Y-21.512
X5.65Y-23.292
X16.35Y-11.722
X16.35Y-13.502
X16.35Y-15.282
X16.35Y-17.062
X16.35Y-18.842
X16.35Y-20.622
X16.35Y-22.402
X16.35Y-24.182
T3
X3.38Y-5.2
X5.92Y-5.2
X8.46Y-5.2
X11.0Y-5.2
X13.54Y-5.2
X16.08Y-5.2
X18.62Y-5.2
X21.16Y-5.2
M30
