M48
; DRILL file KiCad 10.0.6 date 2026-09-06T20:56:33
; FORMAT={-:-/ absolute / metric / decimal}
; #@! TF.CreationDate,2026-09-06T20:56:33-07:00
; #@! TF.GenerationSoftware,Kicad,Pcbnew,10.0.6
; #@! TF.FileFunction,Plated,1,2,PTH
FMAT,2
METRIC
; #@! TA.AperFunction,Plated,PTH,ViaDrill
T1C0.300
; #@! TA.AperFunction,Plated,PTH,ComponentDrill
T2C0.750
; #@! TA.AperFunction,Plated,PTH,ComponentDrill
T3C0.900
%
G90
G05
T1
X2.437Y-6.555
X3.735Y-17.626
X3.795Y-12.655
X4.814Y-8.222
X7.082Y-9.287
X8.46Y-5.2
X13.54Y-5.2
X16.35Y-20.622
X18.531Y-14.712
X19.051Y-16.141
X19.417Y-17.426
X20.3Y-16.854
T2
X5.65Y-10.832
X5.65Y-12.612
X5.65Y-14.392
X5.65Y-16.172
X5.65Y-17.952
X5.65Y-19.732
X5.65Y-21.512
X5.65Y-23.292
X16.35Y-11.722
X16.35Y-13.502
X16.35Y-15.282
X16.35Y-17.062
X16.35Y-18.842
X16.35Y-20.622
X16.35Y-22.402
X16.35Y-24.182
T3
X3.38Y-5.2
X5.92Y-5.2
X8.46Y-5.2
X11.0Y-5.2
X13.54Y-5.2
X16.08Y-5.2
X18.62Y-5.2
X21.16Y-5.2
M30
