%TF.GenerationSoftware,KiCad,Pcbnew,10.0.6*%
%TF.CreationDate,2026-09-06T17:44:02-07:00*%
%TF.ProjectId,pmw3610_daughterboard,706d7733-3631-4305-9f64-617567687465,rev?*%
%TF.SameCoordinates,Original*%
%TF.FileFunction,Legend,Top*%
%TF.FilePolarity,Positive*%
%FSLAX46Y46*%
G04 Gerber Fmt 4.6, Leading zero omitted, Abs format (unit mm)*
G04 Created by KiCad (PCBNEW 10.0.6) date 2026-09-06 17:44:02*
%MOMM*%
%LPD*%
G01*
G04 APERTURE LIST*
G04 Aperture macros list*
%AMRoundRect*
0 Rectangle with rounded corners*
0 $1 Rounding radius*
0 $2 $3 $4 $5 $6 $7 $8 $9 X,Y pos of 4 corners*
0 Add a 4 corners polygon primitive as box body*
4,1,4,$2,$3,$4,$5,$6,$7,$8,$9,$2,$3,0*
0 Add four circle primitives for the rounded corners*
1,1,$1+$1,$2,$3*
1,1,$1+$1,$4,$5*
1,1,$1+$1,$6,$7*
1,1,$1+$1,$8,$9*
0 Add four rect primitives between the rounded corners*
20,1,$1+$1,$2,$3,$4,$5,0*
20,1,$1+$1,$4,$5,$6,$7,0*
20,1,$1+$1,$6,$7,$8,$9,0*
20,1,$1+$1,$8,$9,$2,$3,0*%
G04 Aperture macros list end*
%ADD10C,0.150000*%
%ADD11C,0.125000*%
%ADD12C,0.120000*%
%ADD13RoundRect,0.225000X0.250000X-0.225000X0.250000X0.225000X-0.250000X0.225000X-0.250000X-0.225000X0*%
%ADD14RoundRect,0.225000X-0.225000X-0.250000X0.225000X-0.250000X0.225000X0.250000X-0.225000X0.250000X0*%
%ADD15RoundRect,0.200000X0.275000X-0.200000X0.275000X0.200000X-0.275000X0.200000X-0.275000X-0.200000X0*%
%ADD16RoundRect,0.150000X-0.512500X-0.150000X0.512500X-0.150000X0.512500X0.150000X-0.512500X0.150000X0*%
%ADD17R,1.500000X1.500000*%
%ADD18C,1.500000*%
%ADD19RoundRect,0.250000X0.475000X-0.250000X0.475000X0.250000X-0.475000X0.250000X-0.475000X-0.250000X0*%
%ADD20RoundRect,0.250000X-0.250000X-0.475000X0.250000X-0.475000X0.250000X0.475000X-0.250000X0.475000X0*%
G04 APERTURE END LIST*
D10*
X6429580Y-10166666D02*
X6477200Y-10214285D01*
X6477200Y-10214285D02*
X6524819Y-10357142D01*
X6524819Y-10357142D02*
X6524819Y-10452380D01*
X6524819Y-10452380D02*
X6477200Y-10595237D01*
X6477200Y-10595237D02*
X6381961Y-10690475D01*
X6381961Y-10690475D02*
X6286723Y-10738094D01*
X6286723Y-10738094D02*
X6096247Y-10785713D01*
X6096247Y-10785713D02*
X5953390Y-10785713D01*
X5953390Y-10785713D02*
X5762914Y-10738094D01*
X5762914Y-10738094D02*
X5667676Y-10690475D01*
X5667676Y-10690475D02*
X5572438Y-10595237D01*
X5572438Y-10595237D02*
X5524819Y-10452380D01*
X5524819Y-10452380D02*
X5524819Y-10357142D01*
X5524819Y-10357142D02*
X5572438Y-10214285D01*
X5572438Y-10214285D02*
X5620057Y-10166666D01*
X5524819Y-9833332D02*
X5524819Y-9166666D01*
X5524819Y-9166666D02*
X6524819Y-9595237D01*
X10833333Y-25929580D02*
X10785714Y-25977200D01*
X10785714Y-25977200D02*
X10642857Y-26024819D01*
X10642857Y-26024819D02*
X10547619Y-26024819D01*
X10547619Y-26024819D02*
X10404762Y-25977200D01*
X10404762Y-25977200D02*
X10309524Y-25881961D01*
X10309524Y-25881961D02*
X10261905Y-25786723D01*
X10261905Y-25786723D02*
X10214286Y-25596247D01*
X10214286Y-25596247D02*
X10214286Y-25453390D01*
X10214286Y-25453390D02*
X10261905Y-25262914D01*
X10261905Y-25262914D02*
X10309524Y-25167676D01*
X10309524Y-25167676D02*
X10404762Y-25072438D01*
X10404762Y-25072438D02*
X10547619Y-25024819D01*
X10547619Y-25024819D02*
X10642857Y-25024819D01*
X10642857Y-25024819D02*
X10785714Y-25072438D01*
X10785714Y-25072438D02*
X10833333Y-25120057D01*
X11404762Y-25453390D02*
X11309524Y-25405771D01*
X11309524Y-25405771D02*
X11261905Y-25358152D01*
X11261905Y-25358152D02*
X11214286Y-25262914D01*
X11214286Y-25262914D02*
X11214286Y-25215295D01*
X11214286Y-25215295D02*
X11261905Y-25120057D01*
X11261905Y-25120057D02*
X11309524Y-25072438D01*
X11309524Y-25072438D02*
X11404762Y-25024819D01*
X11404762Y-25024819D02*
X11595238Y-25024819D01*
X11595238Y-25024819D02*
X11690476Y-25072438D01*
X11690476Y-25072438D02*
X11738095Y-25120057D01*
X11738095Y-25120057D02*
X11785714Y-25215295D01*
X11785714Y-25215295D02*
X11785714Y-25262914D01*
X11785714Y-25262914D02*
X11738095Y-25358152D01*
X11738095Y-25358152D02*
X11690476Y-25405771D01*
X11690476Y-25405771D02*
X11595238Y-25453390D01*
X11595238Y-25453390D02*
X11404762Y-25453390D01*
X11404762Y-25453390D02*
X11309524Y-25501009D01*
X11309524Y-25501009D02*
X11261905Y-25548628D01*
X11261905Y-25548628D02*
X11214286Y-25643866D01*
X11214286Y-25643866D02*
X11214286Y-25834342D01*
X11214286Y-25834342D02*
X11261905Y-25929580D01*
X11261905Y-25929580D02*
X11309524Y-25977200D01*
X11309524Y-25977200D02*
X11404762Y-26024819D01*
X11404762Y-26024819D02*
X11595238Y-26024819D01*
X11595238Y-26024819D02*
X11690476Y-25977200D01*
X11690476Y-25977200D02*
X11738095Y-25929580D01*
X11738095Y-25929580D02*
X11785714Y-25834342D01*
X11785714Y-25834342D02*
X11785714Y-25643866D01*
X11785714Y-25643866D02*
X11738095Y-25548628D01*
X11738095Y-25548628D02*
X11690476Y-25501009D01*
X11690476Y-25501009D02*
X11595238Y-25453390D01*
X29524819Y-30166666D02*
X29048628Y-30499999D01*
X29524819Y-30738094D02*
X28524819Y-30738094D01*
X28524819Y-30738094D02*
X28524819Y-30357142D01*
X28524819Y-30357142D02*
X28572438Y-30261904D01*
X28572438Y-30261904D02*
X28620057Y-30214285D01*
X28620057Y-30214285D02*
X28715295Y-30166666D01*
X28715295Y-30166666D02*
X28858152Y-30166666D01*
X28858152Y-30166666D02*
X28953390Y-30214285D01*
X28953390Y-30214285D02*
X29001009Y-30261904D01*
X29001009Y-30261904D02*
X29048628Y-30357142D01*
X29048628Y-30357142D02*
X29048628Y-30738094D01*
X28620057Y-29785713D02*
X28572438Y-29738094D01*
X28572438Y-29738094D02*
X28524819Y-29642856D01*
X28524819Y-29642856D02*
X28524819Y-29404761D01*
X28524819Y-29404761D02*
X28572438Y-29309523D01*
X28572438Y-29309523D02*
X28620057Y-29261904D01*
X28620057Y-29261904D02*
X28715295Y-29214285D01*
X28715295Y-29214285D02*
X28810533Y-29214285D01*
X28810533Y-29214285D02*
X28953390Y-29261904D01*
X28953390Y-29261904D02*
X29524819Y-29833332D01*
X29524819Y-29833332D02*
X29524819Y-29214285D01*
X5238095Y-24054819D02*
X5238095Y-24864342D01*
X5238095Y-24864342D02*
X5285714Y-24959580D01*
X5285714Y-24959580D02*
X5333333Y-25007200D01*
X5333333Y-25007200D02*
X5428571Y-25054819D01*
X5428571Y-25054819D02*
X5619047Y-25054819D01*
X5619047Y-25054819D02*
X5714285Y-25007200D01*
X5714285Y-25007200D02*
X5761904Y-24959580D01*
X5761904Y-24959580D02*
X5809523Y-24864342D01*
X5809523Y-24864342D02*
X5809523Y-24054819D01*
X6238095Y-24150057D02*
X6285714Y-24102438D01*
X6285714Y-24102438D02*
X6380952Y-24054819D01*
X6380952Y-24054819D02*
X6619047Y-24054819D01*
X6619047Y-24054819D02*
X6714285Y-24102438D01*
X6714285Y-24102438D02*
X6761904Y-24150057D01*
X6761904Y-24150057D02*
X6809523Y-24245295D01*
X6809523Y-24245295D02*
X6809523Y-24340533D01*
X6809523Y-24340533D02*
X6761904Y-24483390D01*
X6761904Y-24483390D02*
X6190476Y-25054819D01*
X6190476Y-25054819D02*
X6809523Y-25054819D01*
X22833333Y-25929580D02*
X22785714Y-25977200D01*
X22785714Y-25977200D02*
X22642857Y-26024819D01*
X22642857Y-26024819D02*
X22547619Y-26024819D01*
X22547619Y-26024819D02*
X22404762Y-25977200D01*
X22404762Y-25977200D02*
X22309524Y-25881961D01*
X22309524Y-25881961D02*
X22261905Y-25786723D01*
X22261905Y-25786723D02*
X22214286Y-25596247D01*
X22214286Y-25596247D02*
X22214286Y-25453390D01*
X22214286Y-25453390D02*
X22261905Y-25262914D01*
X22261905Y-25262914D02*
X22309524Y-25167676D01*
X22309524Y-25167676D02*
X22404762Y-25072438D01*
X22404762Y-25072438D02*
X22547619Y-25024819D01*
X22547619Y-25024819D02*
X22642857Y-25024819D01*
X22642857Y-25024819D02*
X22785714Y-25072438D01*
X22785714Y-25072438D02*
X22833333Y-25120057D01*
X23214286Y-25120057D02*
X23261905Y-25072438D01*
X23261905Y-25072438D02*
X23357143Y-25024819D01*
X23357143Y-25024819D02*
X23595238Y-25024819D01*
X23595238Y-25024819D02*
X23690476Y-25072438D01*
X23690476Y-25072438D02*
X23738095Y-25120057D01*
X23738095Y-25120057D02*
X23785714Y-25215295D01*
X23785714Y-25215295D02*
X23785714Y-25310533D01*
X23785714Y-25310533D02*
X23738095Y-25453390D01*
X23738095Y-25453390D02*
X23166667Y-26024819D01*
X23166667Y-26024819D02*
X23785714Y-26024819D01*
D11*
X16238095Y-2456119D02*
X16238095Y-3265642D01*
X16238095Y-3265642D02*
X16285714Y-3360880D01*
X16285714Y-3360880D02*
X16333333Y-3408500D01*
X16333333Y-3408500D02*
X16428571Y-3456119D01*
X16428571Y-3456119D02*
X16619047Y-3456119D01*
X16619047Y-3456119D02*
X16714285Y-3408500D01*
X16714285Y-3408500D02*
X16761904Y-3360880D01*
X16761904Y-3360880D02*
X16809523Y-3265642D01*
X16809523Y-3265642D02*
X16809523Y-2456119D01*
X17809523Y-3456119D02*
X17238095Y-3456119D01*
X17523809Y-3456119D02*
X17523809Y-2456119D01*
X17523809Y-2456119D02*
X17428571Y-2598976D01*
X17428571Y-2598976D02*
X17333333Y-2694214D01*
X17333333Y-2694214D02*
X17238095Y-2741833D01*
X12205714Y-1766119D02*
X11634286Y-1766119D01*
X11920000Y-1766119D02*
X11920000Y-766119D01*
X11920000Y-766119D02*
X11824762Y-908976D01*
X11824762Y-908976D02*
X11729524Y-1004214D01*
X11729524Y-1004214D02*
X11634286Y-1051833D01*
D10*
X26179580Y-14166666D02*
X26227200Y-14214285D01*
X26227200Y-14214285D02*
X26274819Y-14357142D01*
X26274819Y-14357142D02*
X26274819Y-14452380D01*
X26274819Y-14452380D02*
X26227200Y-14595237D01*
X26227200Y-14595237D02*
X26131961Y-14690475D01*
X26131961Y-14690475D02*
X26036723Y-14738094D01*
X26036723Y-14738094D02*
X25846247Y-14785713D01*
X25846247Y-14785713D02*
X25703390Y-14785713D01*
X25703390Y-14785713D02*
X25512914Y-14738094D01*
X25512914Y-14738094D02*
X25417676Y-14690475D01*
X25417676Y-14690475D02*
X25322438Y-14595237D01*
X25322438Y-14595237D02*
X25274819Y-14452380D01*
X25274819Y-14452380D02*
X25274819Y-14357142D01*
X25274819Y-14357142D02*
X25322438Y-14214285D01*
X25322438Y-14214285D02*
X25370057Y-14166666D01*
X25274819Y-13309523D02*
X25274819Y-13499999D01*
X25274819Y-13499999D02*
X25322438Y-13595237D01*
X25322438Y-13595237D02*
X25370057Y-13642856D01*
X25370057Y-13642856D02*
X25512914Y-13738094D01*
X25512914Y-13738094D02*
X25703390Y-13785713D01*
X25703390Y-13785713D02*
X26084342Y-13785713D01*
X26084342Y-13785713D02*
X26179580Y-13738094D01*
X26179580Y-13738094D02*
X26227200Y-13690475D01*
X26227200Y-13690475D02*
X26274819Y-13595237D01*
X26274819Y-13595237D02*
X26274819Y-13404761D01*
X26274819Y-13404761D02*
X26227200Y-13309523D01*
X26227200Y-13309523D02*
X26179580Y-13261904D01*
X26179580Y-13261904D02*
X26084342Y-13214285D01*
X26084342Y-13214285D02*
X25846247Y-13214285D01*
X25846247Y-13214285D02*
X25751009Y-13261904D01*
X25751009Y-13261904D02*
X25703390Y-13309523D01*
X25703390Y-13309523D02*
X25655771Y-13404761D01*
X25655771Y-13404761D02*
X25655771Y-13595237D01*
X25655771Y-13595237D02*
X25703390Y-13690475D01*
X25703390Y-13690475D02*
X25751009Y-13738094D01*
X25751009Y-13738094D02*
X25846247Y-13785713D01*
X18833333Y-25679580D02*
X18785714Y-25727200D01*
X18785714Y-25727200D02*
X18642857Y-25774819D01*
X18642857Y-25774819D02*
X18547619Y-25774819D01*
X18547619Y-25774819D02*
X18404762Y-25727200D01*
X18404762Y-25727200D02*
X18309524Y-25631961D01*
X18309524Y-25631961D02*
X18261905Y-25536723D01*
X18261905Y-25536723D02*
X18214286Y-25346247D01*
X18214286Y-25346247D02*
X18214286Y-25203390D01*
X18214286Y-25203390D02*
X18261905Y-25012914D01*
X18261905Y-25012914D02*
X18309524Y-24917676D01*
X18309524Y-24917676D02*
X18404762Y-24822438D01*
X18404762Y-24822438D02*
X18547619Y-24774819D01*
X18547619Y-24774819D02*
X18642857Y-24774819D01*
X18642857Y-24774819D02*
X18785714Y-24822438D01*
X18785714Y-24822438D02*
X18833333Y-24870057D01*
X19785714Y-25774819D02*
X19214286Y-25774819D01*
X19500000Y-25774819D02*
X19500000Y-24774819D01*
X19500000Y-24774819D02*
X19404762Y-24917676D01*
X19404762Y-24917676D02*
X19309524Y-25012914D01*
X19309524Y-25012914D02*
X19214286Y-25060533D01*
X14833333Y-25929580D02*
X14785714Y-25977200D01*
X14785714Y-25977200D02*
X14642857Y-26024819D01*
X14642857Y-26024819D02*
X14547619Y-26024819D01*
X14547619Y-26024819D02*
X14404762Y-25977200D01*
X14404762Y-25977200D02*
X14309524Y-25881961D01*
X14309524Y-25881961D02*
X14261905Y-25786723D01*
X14261905Y-25786723D02*
X14214286Y-25596247D01*
X14214286Y-25596247D02*
X14214286Y-25453390D01*
X14214286Y-25453390D02*
X14261905Y-25262914D01*
X14261905Y-25262914D02*
X14309524Y-25167676D01*
X14309524Y-25167676D02*
X14404762Y-25072438D01*
X14404762Y-25072438D02*
X14547619Y-25024819D01*
X14547619Y-25024819D02*
X14642857Y-25024819D01*
X14642857Y-25024819D02*
X14785714Y-25072438D01*
X14785714Y-25072438D02*
X14833333Y-25120057D01*
X15309524Y-26024819D02*
X15500000Y-26024819D01*
X15500000Y-26024819D02*
X15595238Y-25977200D01*
X15595238Y-25977200D02*
X15642857Y-25929580D01*
X15642857Y-25929580D02*
X15738095Y-25786723D01*
X15738095Y-25786723D02*
X15785714Y-25596247D01*
X15785714Y-25596247D02*
X15785714Y-25215295D01*
X15785714Y-25215295D02*
X15738095Y-25120057D01*
X15738095Y-25120057D02*
X15690476Y-25072438D01*
X15690476Y-25072438D02*
X15595238Y-25024819D01*
X15595238Y-25024819D02*
X15404762Y-25024819D01*
X15404762Y-25024819D02*
X15309524Y-25072438D01*
X15309524Y-25072438D02*
X15261905Y-25120057D01*
X15261905Y-25120057D02*
X15214286Y-25215295D01*
X15214286Y-25215295D02*
X15214286Y-25453390D01*
X15214286Y-25453390D02*
X15261905Y-25548628D01*
X15261905Y-25548628D02*
X15309524Y-25596247D01*
X15309524Y-25596247D02*
X15404762Y-25643866D01*
X15404762Y-25643866D02*
X15595238Y-25643866D01*
X15595238Y-25643866D02*
X15690476Y-25596247D01*
X15690476Y-25596247D02*
X15738095Y-25548628D01*
X15738095Y-25548628D02*
X15785714Y-25453390D01*
X26833333Y-25929580D02*
X26785714Y-25977200D01*
X26785714Y-25977200D02*
X26642857Y-26024819D01*
X26642857Y-26024819D02*
X26547619Y-26024819D01*
X26547619Y-26024819D02*
X26404762Y-25977200D01*
X26404762Y-25977200D02*
X26309524Y-25881961D01*
X26309524Y-25881961D02*
X26261905Y-25786723D01*
X26261905Y-25786723D02*
X26214286Y-25596247D01*
X26214286Y-25596247D02*
X26214286Y-25453390D01*
X26214286Y-25453390D02*
X26261905Y-25262914D01*
X26261905Y-25262914D02*
X26309524Y-25167676D01*
X26309524Y-25167676D02*
X26404762Y-25072438D01*
X26404762Y-25072438D02*
X26547619Y-25024819D01*
X26547619Y-25024819D02*
X26642857Y-25024819D01*
X26642857Y-25024819D02*
X26785714Y-25072438D01*
X26785714Y-25072438D02*
X26833333Y-25120057D01*
X27166667Y-25024819D02*
X27785714Y-25024819D01*
X27785714Y-25024819D02*
X27452381Y-25405771D01*
X27452381Y-25405771D02*
X27595238Y-25405771D01*
X27595238Y-25405771D02*
X27690476Y-25453390D01*
X27690476Y-25453390D02*
X27738095Y-25501009D01*
X27738095Y-25501009D02*
X27785714Y-25596247D01*
X27785714Y-25596247D02*
X27785714Y-25834342D01*
X27785714Y-25834342D02*
X27738095Y-25929580D01*
X27738095Y-25929580D02*
X27690476Y-25977200D01*
X27690476Y-25977200D02*
X27595238Y-26024819D01*
X27595238Y-26024819D02*
X27309524Y-26024819D01*
X27309524Y-26024819D02*
X27214286Y-25977200D01*
X27214286Y-25977200D02*
X27166667Y-25929580D01*
X6429580Y-14166666D02*
X6477200Y-14214285D01*
X6477200Y-14214285D02*
X6524819Y-14357142D01*
X6524819Y-14357142D02*
X6524819Y-14452380D01*
X6524819Y-14452380D02*
X6477200Y-14595237D01*
X6477200Y-14595237D02*
X6381961Y-14690475D01*
X6381961Y-14690475D02*
X6286723Y-14738094D01*
X6286723Y-14738094D02*
X6096247Y-14785713D01*
X6096247Y-14785713D02*
X5953390Y-14785713D01*
X5953390Y-14785713D02*
X5762914Y-14738094D01*
X5762914Y-14738094D02*
X5667676Y-14690475D01*
X5667676Y-14690475D02*
X5572438Y-14595237D01*
X5572438Y-14595237D02*
X5524819Y-14452380D01*
X5524819Y-14452380D02*
X5524819Y-14357142D01*
X5524819Y-14357142D02*
X5572438Y-14214285D01*
X5572438Y-14214285D02*
X5620057Y-14166666D01*
X5858152Y-13309523D02*
X6524819Y-13309523D01*
X5477200Y-13547618D02*
X6191485Y-13785713D01*
X6191485Y-13785713D02*
X6191485Y-13166666D01*
D11*
X16666666Y-27956119D02*
X16666666Y-28670404D01*
X16666666Y-28670404D02*
X16619047Y-28813261D01*
X16619047Y-28813261D02*
X16523809Y-28908500D01*
X16523809Y-28908500D02*
X16380952Y-28956119D01*
X16380952Y-28956119D02*
X16285714Y-28956119D01*
X17666666Y-28956119D02*
X17095238Y-28956119D01*
X17380952Y-28956119D02*
X17380952Y-27956119D01*
X17380952Y-27956119D02*
X17285714Y-28098976D01*
X17285714Y-28098976D02*
X17190476Y-28194214D01*
X17190476Y-28194214D02*
X17095238Y-28241833D01*
X6776667Y-34556119D02*
X7110000Y-35556119D01*
X7110000Y-35556119D02*
X7443333Y-34556119D01*
X8348095Y-35460880D02*
X8300476Y-35508500D01*
X8300476Y-35508500D02*
X8157619Y-35556119D01*
X8157619Y-35556119D02*
X8062381Y-35556119D01*
X8062381Y-35556119D02*
X7919524Y-35508500D01*
X7919524Y-35508500D02*
X7824286Y-35413261D01*
X7824286Y-35413261D02*
X7776667Y-35318023D01*
X7776667Y-35318023D02*
X7729048Y-35127547D01*
X7729048Y-35127547D02*
X7729048Y-34984690D01*
X7729048Y-34984690D02*
X7776667Y-34794214D01*
X7776667Y-34794214D02*
X7824286Y-34698976D01*
X7824286Y-34698976D02*
X7919524Y-34603738D01*
X7919524Y-34603738D02*
X8062381Y-34556119D01*
X8062381Y-34556119D02*
X8157619Y-34556119D01*
X8157619Y-34556119D02*
X8300476Y-34603738D01*
X8300476Y-34603738D02*
X8348095Y-34651357D01*
X9348095Y-35460880D02*
X9300476Y-35508500D01*
X9300476Y-35508500D02*
X9157619Y-35556119D01*
X9157619Y-35556119D02*
X9062381Y-35556119D01*
X9062381Y-35556119D02*
X8919524Y-35508500D01*
X8919524Y-35508500D02*
X8824286Y-35413261D01*
X8824286Y-35413261D02*
X8776667Y-35318023D01*
X8776667Y-35318023D02*
X8729048Y-35127547D01*
X8729048Y-35127547D02*
X8729048Y-34984690D01*
X8729048Y-34984690D02*
X8776667Y-34794214D01*
X8776667Y-34794214D02*
X8824286Y-34698976D01*
X8824286Y-34698976D02*
X8919524Y-34603738D01*
X8919524Y-34603738D02*
X9062381Y-34556119D01*
X9062381Y-34556119D02*
X9157619Y-34556119D01*
X9157619Y-34556119D02*
X9300476Y-34603738D01*
X9300476Y-34603738D02*
X9348095Y-34651357D01*
X9888095Y-34603738D02*
X9792857Y-34556119D01*
X9792857Y-34556119D02*
X9650000Y-34556119D01*
X9650000Y-34556119D02*
X9507143Y-34603738D01*
X9507143Y-34603738D02*
X9411905Y-34698976D01*
X9411905Y-34698976D02*
X9364286Y-34794214D01*
X9364286Y-34794214D02*
X9316667Y-34984690D01*
X9316667Y-34984690D02*
X9316667Y-35127547D01*
X9316667Y-35127547D02*
X9364286Y-35318023D01*
X9364286Y-35318023D02*
X9411905Y-35413261D01*
X9411905Y-35413261D02*
X9507143Y-35508500D01*
X9507143Y-35508500D02*
X9650000Y-35556119D01*
X9650000Y-35556119D02*
X9745238Y-35556119D01*
X9745238Y-35556119D02*
X9888095Y-35508500D01*
X9888095Y-35508500D02*
X9935714Y-35460880D01*
X9935714Y-35460880D02*
X9935714Y-35127547D01*
X9935714Y-35127547D02*
X9745238Y-35127547D01*
X10364286Y-35556119D02*
X10364286Y-34556119D01*
X10364286Y-34556119D02*
X10935714Y-35556119D01*
X10935714Y-35556119D02*
X10935714Y-34556119D01*
X11411905Y-35556119D02*
X11411905Y-34556119D01*
X11411905Y-34556119D02*
X11650000Y-34556119D01*
X11650000Y-34556119D02*
X11792857Y-34603738D01*
X11792857Y-34603738D02*
X11888095Y-34698976D01*
X11888095Y-34698976D02*
X11935714Y-34794214D01*
X11935714Y-34794214D02*
X11983333Y-34984690D01*
X11983333Y-34984690D02*
X11983333Y-35127547D01*
X11983333Y-35127547D02*
X11935714Y-35318023D01*
X11935714Y-35318023D02*
X11888095Y-35413261D01*
X11888095Y-35413261D02*
X11792857Y-35508500D01*
X11792857Y-35508500D02*
X11650000Y-35556119D01*
X11650000Y-35556119D02*
X11411905Y-35556119D01*
X11499524Y-35508500D02*
X11642381Y-35556119D01*
X11642381Y-35556119D02*
X11880476Y-35556119D01*
X11880476Y-35556119D02*
X11975714Y-35508500D01*
X11975714Y-35508500D02*
X12023333Y-35460880D01*
X12023333Y-35460880D02*
X12070952Y-35365642D01*
X12070952Y-35365642D02*
X12070952Y-35270404D01*
X12070952Y-35270404D02*
X12023333Y-35175166D01*
X12023333Y-35175166D02*
X11975714Y-35127547D01*
X11975714Y-35127547D02*
X11880476Y-35079928D01*
X11880476Y-35079928D02*
X11690000Y-35032309D01*
X11690000Y-35032309D02*
X11594762Y-34984690D01*
X11594762Y-34984690D02*
X11547143Y-34937071D01*
X11547143Y-34937071D02*
X11499524Y-34841833D01*
X11499524Y-34841833D02*
X11499524Y-34746595D01*
X11499524Y-34746595D02*
X11547143Y-34651357D01*
X11547143Y-34651357D02*
X11594762Y-34603738D01*
X11594762Y-34603738D02*
X11690000Y-34556119D01*
X11690000Y-34556119D02*
X11928095Y-34556119D01*
X11928095Y-34556119D02*
X12070952Y-34603738D01*
X13070952Y-35460880D02*
X13023333Y-35508500D01*
X13023333Y-35508500D02*
X12880476Y-35556119D01*
X12880476Y-35556119D02*
X12785238Y-35556119D01*
X12785238Y-35556119D02*
X12642381Y-35508500D01*
X12642381Y-35508500D02*
X12547143Y-35413261D01*
X12547143Y-35413261D02*
X12499524Y-35318023D01*
X12499524Y-35318023D02*
X12451905Y-35127547D01*
X12451905Y-35127547D02*
X12451905Y-34984690D01*
X12451905Y-34984690D02*
X12499524Y-34794214D01*
X12499524Y-34794214D02*
X12547143Y-34698976D01*
X12547143Y-34698976D02*
X12642381Y-34603738D01*
X12642381Y-34603738D02*
X12785238Y-34556119D01*
X12785238Y-34556119D02*
X12880476Y-34556119D01*
X12880476Y-34556119D02*
X13023333Y-34603738D01*
X13023333Y-34603738D02*
X13070952Y-34651357D01*
X13975714Y-35556119D02*
X13499524Y-35556119D01*
X13499524Y-35556119D02*
X13499524Y-34556119D01*
X14309048Y-35556119D02*
X14309048Y-34556119D01*
X14880476Y-35556119D02*
X14451905Y-34984690D01*
X14880476Y-34556119D02*
X14309048Y-35127547D01*
X14182381Y-35508500D02*
X14325238Y-35556119D01*
X14325238Y-35556119D02*
X14563333Y-35556119D01*
X14563333Y-35556119D02*
X14658571Y-35508500D01*
X14658571Y-35508500D02*
X14706190Y-35460880D01*
X14706190Y-35460880D02*
X14753809Y-35365642D01*
X14753809Y-35365642D02*
X14753809Y-35270404D01*
X14753809Y-35270404D02*
X14706190Y-35175166D01*
X14706190Y-35175166D02*
X14658571Y-35127547D01*
X14658571Y-35127547D02*
X14563333Y-35079928D01*
X14563333Y-35079928D02*
X14372857Y-35032309D01*
X14372857Y-35032309D02*
X14277619Y-34984690D01*
X14277619Y-34984690D02*
X14230000Y-34937071D01*
X14230000Y-34937071D02*
X14182381Y-34841833D01*
X14182381Y-34841833D02*
X14182381Y-34746595D01*
X14182381Y-34746595D02*
X14230000Y-34651357D01*
X14230000Y-34651357D02*
X14277619Y-34603738D01*
X14277619Y-34603738D02*
X14372857Y-34556119D01*
X14372857Y-34556119D02*
X14610952Y-34556119D01*
X14610952Y-34556119D02*
X14753809Y-34603738D01*
X15182381Y-35556119D02*
X15182381Y-34556119D01*
X15182381Y-34556119D02*
X15420476Y-34556119D01*
X15420476Y-34556119D02*
X15563333Y-34603738D01*
X15563333Y-34603738D02*
X15658571Y-34698976D01*
X15658571Y-34698976D02*
X15706190Y-34794214D01*
X15706190Y-34794214D02*
X15753809Y-34984690D01*
X15753809Y-34984690D02*
X15753809Y-35127547D01*
X15753809Y-35127547D02*
X15706190Y-35318023D01*
X15706190Y-35318023D02*
X15658571Y-35413261D01*
X15658571Y-35413261D02*
X15563333Y-35508500D01*
X15563333Y-35508500D02*
X15420476Y-35556119D01*
X15420476Y-35556119D02*
X15182381Y-35556119D01*
X16182381Y-35556119D02*
X16182381Y-34556119D01*
X16849047Y-34556119D02*
X17039523Y-34556119D01*
X17039523Y-34556119D02*
X17134761Y-34603738D01*
X17134761Y-34603738D02*
X17229999Y-34698976D01*
X17229999Y-34698976D02*
X17277618Y-34889452D01*
X17277618Y-34889452D02*
X17277618Y-35222785D01*
X17277618Y-35222785D02*
X17229999Y-35413261D01*
X17229999Y-35413261D02*
X17134761Y-35508500D01*
X17134761Y-35508500D02*
X17039523Y-35556119D01*
X17039523Y-35556119D02*
X16849047Y-35556119D01*
X16849047Y-35556119D02*
X16753809Y-35508500D01*
X16753809Y-35508500D02*
X16658571Y-35413261D01*
X16658571Y-35413261D02*
X16610952Y-35222785D01*
X16610952Y-35222785D02*
X16610952Y-34889452D01*
X16610952Y-34889452D02*
X16658571Y-34698976D01*
X16658571Y-34698976D02*
X16753809Y-34603738D01*
X16753809Y-34603738D02*
X16849047Y-34556119D01*
X17008095Y-35556119D02*
X17008095Y-34556119D01*
X17008095Y-34556119D02*
X17579523Y-35556119D01*
X17579523Y-35556119D02*
X17579523Y-34556119D01*
X18627142Y-35460880D02*
X18579523Y-35508500D01*
X18579523Y-35508500D02*
X18436666Y-35556119D01*
X18436666Y-35556119D02*
X18341428Y-35556119D01*
X18341428Y-35556119D02*
X18198571Y-35508500D01*
X18198571Y-35508500D02*
X18103333Y-35413261D01*
X18103333Y-35413261D02*
X18055714Y-35318023D01*
X18055714Y-35318023D02*
X18008095Y-35127547D01*
X18008095Y-35127547D02*
X18008095Y-34984690D01*
X18008095Y-34984690D02*
X18055714Y-34794214D01*
X18055714Y-34794214D02*
X18103333Y-34698976D01*
X18103333Y-34698976D02*
X18198571Y-34603738D01*
X18198571Y-34603738D02*
X18341428Y-34556119D01*
X18341428Y-34556119D02*
X18436666Y-34556119D01*
X18436666Y-34556119D02*
X18579523Y-34603738D01*
X18579523Y-34603738D02*
X18627142Y-34651357D01*
X19008095Y-35508500D02*
X19150952Y-35556119D01*
X19150952Y-35556119D02*
X19389047Y-35556119D01*
X19389047Y-35556119D02*
X19484285Y-35508500D01*
X19484285Y-35508500D02*
X19531904Y-35460880D01*
X19531904Y-35460880D02*
X19579523Y-35365642D01*
X19579523Y-35365642D02*
X19579523Y-35270404D01*
X19579523Y-35270404D02*
X19531904Y-35175166D01*
X19531904Y-35175166D02*
X19484285Y-35127547D01*
X19484285Y-35127547D02*
X19389047Y-35079928D01*
X19389047Y-35079928D02*
X19198571Y-35032309D01*
X19198571Y-35032309D02*
X19103333Y-34984690D01*
X19103333Y-34984690D02*
X19055714Y-34937071D01*
X19055714Y-34937071D02*
X19008095Y-34841833D01*
X19008095Y-34841833D02*
X19008095Y-34746595D01*
X19008095Y-34746595D02*
X19055714Y-34651357D01*
X19055714Y-34651357D02*
X19103333Y-34603738D01*
X19103333Y-34603738D02*
X19198571Y-34556119D01*
X19198571Y-34556119D02*
X19436666Y-34556119D01*
X19436666Y-34556119D02*
X19579523Y-34603738D01*
X19571905Y-35556119D02*
X19571905Y-34556119D01*
X19571905Y-34556119D02*
X19905238Y-35270404D01*
X19905238Y-35270404D02*
X20238571Y-34556119D01*
X20238571Y-34556119D02*
X20238571Y-35556119D01*
X20905238Y-34556119D02*
X21095714Y-34556119D01*
X21095714Y-34556119D02*
X21190952Y-34603738D01*
X21190952Y-34603738D02*
X21286190Y-34698976D01*
X21286190Y-34698976D02*
X21333809Y-34889452D01*
X21333809Y-34889452D02*
X21333809Y-35222785D01*
X21333809Y-35222785D02*
X21286190Y-35413261D01*
X21286190Y-35413261D02*
X21190952Y-35508500D01*
X21190952Y-35508500D02*
X21095714Y-35556119D01*
X21095714Y-35556119D02*
X20905238Y-35556119D01*
X20905238Y-35556119D02*
X20810000Y-35508500D01*
X20810000Y-35508500D02*
X20714762Y-35413261D01*
X20714762Y-35413261D02*
X20667143Y-35222785D01*
X20667143Y-35222785D02*
X20667143Y-34889452D01*
X20667143Y-34889452D02*
X20714762Y-34698976D01*
X20714762Y-34698976D02*
X20810000Y-34603738D01*
X20810000Y-34603738D02*
X20905238Y-34556119D01*
X21619524Y-34556119D02*
X22190952Y-34556119D01*
X21905238Y-35556119D02*
X21905238Y-34556119D01*
X22588095Y-34603738D02*
X22492857Y-34556119D01*
X22492857Y-34556119D02*
X22350000Y-34556119D01*
X22350000Y-34556119D02*
X22207143Y-34603738D01*
X22207143Y-34603738D02*
X22111905Y-34698976D01*
X22111905Y-34698976D02*
X22064286Y-34794214D01*
X22064286Y-34794214D02*
X22016667Y-34984690D01*
X22016667Y-34984690D02*
X22016667Y-35127547D01*
X22016667Y-35127547D02*
X22064286Y-35318023D01*
X22064286Y-35318023D02*
X22111905Y-35413261D01*
X22111905Y-35413261D02*
X22207143Y-35508500D01*
X22207143Y-35508500D02*
X22350000Y-35556119D01*
X22350000Y-35556119D02*
X22445238Y-35556119D01*
X22445238Y-35556119D02*
X22588095Y-35508500D01*
X22588095Y-35508500D02*
X22635714Y-35460880D01*
X22635714Y-35460880D02*
X22635714Y-35127547D01*
X22635714Y-35127547D02*
X22445238Y-35127547D01*
X23064286Y-35556119D02*
X23064286Y-34556119D01*
X23064286Y-34556119D02*
X23635714Y-35556119D01*
X23635714Y-35556119D02*
X23635714Y-34556119D01*
X24111905Y-35556119D02*
X24111905Y-34556119D01*
X24111905Y-34556119D02*
X24350000Y-34556119D01*
X24350000Y-34556119D02*
X24492857Y-34603738D01*
X24492857Y-34603738D02*
X24588095Y-34698976D01*
X24588095Y-34698976D02*
X24635714Y-34794214D01*
X24635714Y-34794214D02*
X24683333Y-34984690D01*
X24683333Y-34984690D02*
X24683333Y-35127547D01*
X24683333Y-35127547D02*
X24635714Y-35318023D01*
X24635714Y-35318023D02*
X24588095Y-35413261D01*
X24588095Y-35413261D02*
X24492857Y-35508500D01*
X24492857Y-35508500D02*
X24350000Y-35556119D01*
X24350000Y-35556119D02*
X24111905Y-35556119D01*
X25104286Y-35556119D02*
X25104286Y-34556119D01*
X25104286Y-34556119D02*
X25675714Y-35556119D01*
X25675714Y-35556119D02*
X25675714Y-34556119D01*
X26723333Y-35460880D02*
X26675714Y-35508500D01*
X26675714Y-35508500D02*
X26532857Y-35556119D01*
X26532857Y-35556119D02*
X26437619Y-35556119D01*
X26437619Y-35556119D02*
X26294762Y-35508500D01*
X26294762Y-35508500D02*
X26199524Y-35413261D01*
X26199524Y-35413261D02*
X26151905Y-35318023D01*
X26151905Y-35318023D02*
X26104286Y-35127547D01*
X26104286Y-35127547D02*
X26104286Y-34984690D01*
X26104286Y-34984690D02*
X26151905Y-34794214D01*
X26151905Y-34794214D02*
X26199524Y-34698976D01*
X26199524Y-34698976D02*
X26294762Y-34603738D01*
X26294762Y-34603738D02*
X26437619Y-34556119D01*
X26437619Y-34556119D02*
X26532857Y-34556119D01*
X26532857Y-34556119D02*
X26675714Y-34603738D01*
X26675714Y-34603738D02*
X26723333Y-34651357D01*
D10*
X29524819Y-26166666D02*
X29048628Y-26499999D01*
X29524819Y-26738094D02*
X28524819Y-26738094D01*
X28524819Y-26738094D02*
X28524819Y-26357142D01*
X28524819Y-26357142D02*
X28572438Y-26261904D01*
X28572438Y-26261904D02*
X28620057Y-26214285D01*
X28620057Y-26214285D02*
X28715295Y-26166666D01*
X28715295Y-26166666D02*
X28858152Y-26166666D01*
X28858152Y-26166666D02*
X28953390Y-26214285D01*
X28953390Y-26214285D02*
X29001009Y-26261904D01*
X29001009Y-26261904D02*
X29048628Y-26357142D01*
X29048628Y-26357142D02*
X29048628Y-26738094D01*
X29524819Y-25214285D02*
X29524819Y-25785713D01*
X29524819Y-25499999D02*
X28524819Y-25499999D01*
X28524819Y-25499999D02*
X28667676Y-25595237D01*
X28667676Y-25595237D02*
X28762914Y-25690475D01*
X28762914Y-25690475D02*
X28810533Y-25785713D01*
X25429580Y-10166666D02*
X25477200Y-10214285D01*
X25477200Y-10214285D02*
X25524819Y-10357142D01*
X25524819Y-10357142D02*
X25524819Y-10452380D01*
X25524819Y-10452380D02*
X25477200Y-10595237D01*
X25477200Y-10595237D02*
X25381961Y-10690475D01*
X25381961Y-10690475D02*
X25286723Y-10738094D01*
X25286723Y-10738094D02*
X25096247Y-10785713D01*
X25096247Y-10785713D02*
X24953390Y-10785713D01*
X24953390Y-10785713D02*
X24762914Y-10738094D01*
X24762914Y-10738094D02*
X24667676Y-10690475D01*
X24667676Y-10690475D02*
X24572438Y-10595237D01*
X24572438Y-10595237D02*
X24524819Y-10452380D01*
X24524819Y-10452380D02*
X24524819Y-10357142D01*
X24524819Y-10357142D02*
X24572438Y-10214285D01*
X24572438Y-10214285D02*
X24620057Y-10166666D01*
X24524819Y-9261904D02*
X24524819Y-9738094D01*
X24524819Y-9738094D02*
X25001009Y-9785713D01*
X25001009Y-9785713D02*
X24953390Y-9738094D01*
X24953390Y-9738094D02*
X24905771Y-9642856D01*
X24905771Y-9642856D02*
X24905771Y-9404761D01*
X24905771Y-9404761D02*
X24953390Y-9309523D01*
X24953390Y-9309523D02*
X25001009Y-9261904D01*
X25001009Y-9261904D02*
X25096247Y-9214285D01*
X25096247Y-9214285D02*
X25334342Y-9214285D01*
X25334342Y-9214285D02*
X25429580Y-9261904D01*
X25429580Y-9261904D02*
X25477200Y-9309523D01*
X25477200Y-9309523D02*
X25524819Y-9404761D01*
X25524819Y-9404761D02*
X25524819Y-9642856D01*
X25524819Y-9642856D02*
X25477200Y-9738094D01*
X25477200Y-9738094D02*
X25429580Y-9785713D01*
%TO.C,C7*%
D12*
X6990000Y-10140580D02*
X6990000Y-9859420D01*
X8010000Y-10140580D02*
X8010000Y-9859420D01*
%TO.C,C8*%
X10859420Y-26490000D02*
X11140580Y-26490000D01*
X10859420Y-27510000D02*
X11140580Y-27510000D01*
%TO.C,R2*%
X29977500Y-30237258D02*
X29977500Y-29762742D01*
X31022500Y-30237258D02*
X31022500Y-29762742D01*
%TO.C,U2*%
X5090000Y-25440000D02*
X6910000Y-25440000D01*
X5090000Y-25490000D02*
X5090000Y-25440000D01*
X5090000Y-28560000D02*
X5090000Y-28510000D01*
X6910000Y-25440000D02*
X6910000Y-25490000D01*
X6910000Y-26610000D02*
X6910000Y-27390000D01*
X6910000Y-28510000D02*
X6910000Y-28560000D01*
X6910000Y-28560000D02*
X5090000Y-28560000D01*
X4550000Y-25490000D02*
X4310000Y-25160000D01*
X4790000Y-25160000D01*
X4550000Y-25490000D01*
G36*
X4550000Y-25490000D02*
G01*
X4310000Y-25160000D01*
X4790000Y-25160000D01*
X4550000Y-25490000D01*
G37*
%TO.C,C2*%
X22859420Y-26490000D02*
X23140580Y-26490000D01*
X22859420Y-27510000D02*
X23140580Y-27510000D01*
%TO.C,U1*%
X10700000Y-3760000D02*
X23300000Y-3760000D01*
X10700000Y-20240000D02*
X10700000Y-3760000D01*
X23300000Y-3760000D02*
X23300000Y-20240000D01*
X23300000Y-20240000D02*
X10700000Y-20240000D01*
%TO.C,C6*%
X26765000Y-14261252D02*
X26765000Y-13738748D01*
X28235000Y-14261252D02*
X28235000Y-13738748D01*
%TO.C,C1*%
X18738748Y-26265000D02*
X19261252Y-26265000D01*
X18738748Y-27735000D02*
X19261252Y-27735000D01*
%TO.C,C9*%
X14859420Y-26490000D02*
X15140580Y-26490000D01*
X14859420Y-27510000D02*
X15140580Y-27510000D01*
%TO.C,C3*%
X26859420Y-26490000D02*
X27140580Y-26490000D01*
X26859420Y-27510000D02*
X27140580Y-27510000D01*
%TO.C,C4*%
X6990000Y-14140580D02*
X6990000Y-13859420D01*
X8010000Y-14140580D02*
X8010000Y-13859420D01*
%TO.C,J1*%
X6340000Y-35900000D02*
X27660000Y-35900000D01*
X6340000Y-39100000D02*
X6340000Y-35900000D01*
X27660000Y-35900000D02*
X27660000Y-39100000D01*
X27660000Y-39100000D02*
X6340000Y-39100000D01*
%TO.C,R1*%
X29977500Y-26237258D02*
X29977500Y-25762742D01*
X31022500Y-26237258D02*
X31022500Y-25762742D01*
%TO.C,C5*%
X25990000Y-10140580D02*
X25990000Y-9859420D01*
X27010000Y-10140580D02*
X27010000Y-9859420D01*
%TD*%
%LPC*%
D13*
%TO.C,C7*%
X7500000Y-10775000D03*
X7500000Y-9225000D03*
%TD*%
D14*
%TO.C,C8*%
X10225000Y-27000000D03*
X11775000Y-27000000D03*
%TD*%
D15*
%TO.C,R2*%
X30500000Y-30825000D03*
X30500000Y-29175000D03*
%TD*%
D16*
%TO.C,U2*%
X4862500Y-26050000D03*
X4862500Y-27000000D03*
X4862500Y-27950000D03*
X7137500Y-27950000D03*
X7137500Y-26050000D03*
%TD*%
D14*
%TO.C,C2*%
X22225000Y-27000000D03*
X23775000Y-27000000D03*
%TD*%
D17*
%TO.C,U1*%
X11920000Y-3110000D03*
D18*
X11920000Y-5650000D03*
X11920000Y-8190000D03*
X11920000Y-10730000D03*
X11920000Y-13270000D03*
X11920000Y-15810000D03*
X11920000Y-18350000D03*
X11920000Y-20890000D03*
X22080000Y-20890000D03*
X22080000Y-18350000D03*
X22080000Y-15810000D03*
X22080000Y-13270000D03*
X22080000Y-10730000D03*
X22080000Y-8190000D03*
X22080000Y-5650000D03*
X22080000Y-3110000D03*
%TD*%
D19*
%TO.C,C6*%
X27500000Y-14950000D03*
X27500000Y-13050000D03*
%TD*%
D20*
%TO.C,C1*%
X18050000Y-27000000D03*
X19950000Y-27000000D03*
%TD*%
D14*
%TO.C,C9*%
X14225000Y-27000000D03*
X15775000Y-27000000D03*
%TD*%
%TO.C,C3*%
X26225000Y-27000000D03*
X27775000Y-27000000D03*
%TD*%
D13*
%TO.C,C4*%
X7500000Y-14775000D03*
X7500000Y-13225000D03*
%TD*%
D17*
%TO.C,J1*%
X8110000Y-37500000D03*
D18*
X10650000Y-37500000D03*
X13190000Y-37500000D03*
X15730000Y-37500000D03*
X18270000Y-37500000D03*
X20810000Y-37500000D03*
X23350000Y-37500000D03*
X25890000Y-37500000D03*
%TD*%
D15*
%TO.C,R1*%
X30500000Y-26825000D03*
X30500000Y-25175000D03*
%TD*%
D13*
%TO.C,C5*%
X26500000Y-10775000D03*
X26500000Y-9225000D03*
%TD*%
%LPD*%
M02*
