%TF.GenerationSoftware,KiCad,Pcbnew,10.0.6*%
%TF.CreationDate,2026-09-06T20:14:15-07:00*%
%TF.ProjectId,pmw3610_daughterboard,706d7733-3631-4305-9f64-617567687465,rev?*%
%TF.SameCoordinates,Original*%
%TF.FileFunction,Drillmap*%
%TF.FilePolarity,Positive*%
%FSLAX45Y45*%
G04 Gerber Fmt 4.5, Leading zero omitted, Abs format (unit mm)*
G04 Created by KiCad (PCBNEW 10.0.6) date 2026-09-06 20:14:15*
%MOMM*%
%LPD*%
G01*
G04 APERTURE LIST*
%ADD10C,0.100000*%
%ADD11C,0.200000*%
G04 APERTURE END LIST*
D10*
X0Y0D02*
X2300000Y0D01*
X0Y-2500000D02*
X0Y0D01*
X687500Y-1105000D02*
X687500Y-2500000D01*
X687500Y-2500000D02*
X0Y-2500000D01*
X1512500Y-1105000D02*
X687500Y-1105000D01*
X1512500Y-2500000D02*
X1512500Y-1105000D01*
X2300000Y0D02*
X2300000Y-2500000D01*
X2300000Y-2500000D02*
X1512500Y-2500000D01*
D11*
D10*
X353430Y-1588170D02*
X383430Y-1618170D01*
X383430Y-1588170D02*
X353430Y-1618170D01*
X368530Y-1725400D02*
X398530Y-1755400D01*
X398530Y-1725400D02*
X368530Y-1755400D01*
X830680Y-991890D02*
X860680Y-1021890D01*
X860680Y-991890D02*
X830680Y-1021890D01*
X831000Y-505000D02*
X861000Y-535000D01*
X861000Y-505000D02*
X831000Y-535000D01*
X1332300Y-915260D02*
X1362300Y-945260D01*
X1362300Y-915260D02*
X1332300Y-945260D01*
X1339000Y-505000D02*
X1369000Y-535000D01*
X1369000Y-505000D02*
X1339000Y-535000D01*
X1620000Y-2047200D02*
X1650000Y-2077200D01*
X1650000Y-2047200D02*
X1620000Y-2077200D01*
X1765020Y-1603530D02*
X1795020Y-1633530D01*
X1795020Y-1603530D02*
X1765020Y-1633530D01*
X1886770Y-1771790D02*
X1916770Y-1801790D01*
X1916770Y-1771790D02*
X1886770Y-1801790D01*
X1923180Y-816880D02*
X1953180Y-846880D01*
X1953180Y-816880D02*
X1923180Y-846880D01*
X2089280Y-1644260D02*
X2119280Y-1674260D01*
X2119280Y-1644260D02*
X2089280Y-1674260D01*
X602500Y-1083200D02*
G75*
G02*
X527500Y-1083200I-37500J0D01*
G01*
X527500Y-1083200D02*
G75*
G02*
X602500Y-1083200I37500J0D01*
G01*
X602500Y-1261200D02*
G75*
G02*
X527500Y-1261200I-37500J0D01*
G01*
X527500Y-1261200D02*
G75*
G02*
X602500Y-1261200I37500J0D01*
G01*
X602500Y-1439200D02*
G75*
G02*
X527500Y-1439200I-37500J0D01*
G01*
X527500Y-1439200D02*
G75*
G02*
X602500Y-1439200I37500J0D01*
G01*
X602500Y-1617200D02*
G75*
G02*
X527500Y-1617200I-37500J0D01*
G01*
X527500Y-1617200D02*
G75*
G02*
X602500Y-1617200I37500J0D01*
G01*
X602500Y-1795200D02*
G75*
G02*
X527500Y-1795200I-37500J0D01*
G01*
X527500Y-1795200D02*
G75*
G02*
X602500Y-1795200I37500J0D01*
G01*
X602500Y-1973200D02*
G75*
G02*
X527500Y-1973200I-37500J0D01*
G01*
X527500Y-1973200D02*
G75*
G02*
X602500Y-1973200I37500J0D01*
G01*
X602500Y-2151200D02*
G75*
G02*
X527500Y-2151200I-37500J0D01*
G01*
X527500Y-2151200D02*
G75*
G02*
X602500Y-2151200I37500J0D01*
G01*
X602500Y-2329200D02*
G75*
G02*
X527500Y-2329200I-37500J0D01*
G01*
X527500Y-2329200D02*
G75*
G02*
X602500Y-2329200I37500J0D01*
G01*
X1672500Y-1172200D02*
G75*
G02*
X1597500Y-1172200I-37500J0D01*
G01*
X1597500Y-1172200D02*
G75*
G02*
X1672500Y-1172200I37500J0D01*
G01*
X1672500Y-1350200D02*
G75*
G02*
X1597500Y-1350200I-37500J0D01*
G01*
X1597500Y-1350200D02*
G75*
G02*
X1672500Y-1350200I37500J0D01*
G01*
X1672500Y-1528200D02*
G75*
G02*
X1597500Y-1528200I-37500J0D01*
G01*
X1597500Y-1528200D02*
G75*
G02*
X1672500Y-1528200I37500J0D01*
G01*
X1672500Y-1706200D02*
G75*
G02*
X1597500Y-1706200I-37500J0D01*
G01*
X1597500Y-1706200D02*
G75*
G02*
X1672500Y-1706200I37500J0D01*
G01*
X1672500Y-1884200D02*
G75*
G02*
X1597500Y-1884200I-37500J0D01*
G01*
X1597500Y-1884200D02*
G75*
G02*
X1672500Y-1884200I37500J0D01*
G01*
X1672500Y-2062200D02*
G75*
G02*
X1597500Y-2062200I-37500J0D01*
G01*
X1597500Y-2062200D02*
G75*
G02*
X1672500Y-2062200I37500J0D01*
G01*
X1672500Y-2240200D02*
G75*
G02*
X1597500Y-2240200I-37500J0D01*
G01*
X1597500Y-2240200D02*
G75*
G02*
X1672500Y-2240200I37500J0D01*
G01*
X1672500Y-2418200D02*
G75*
G02*
X1597500Y-2418200I-37500J0D01*
G01*
X1597500Y-2418200D02*
G75*
G02*
X1672500Y-2418200I37500J0D01*
G01*
X338000Y-475000D02*
X338000Y-565000D01*
X293000Y-520000D02*
X383000Y-520000D01*
X592000Y-475000D02*
X592000Y-565000D01*
X547000Y-520000D02*
X637000Y-520000D01*
X846000Y-475000D02*
X846000Y-565000D01*
X801000Y-520000D02*
X891000Y-520000D01*
X1100000Y-475000D02*
X1100000Y-565000D01*
X1055000Y-520000D02*
X1145000Y-520000D01*
X1354000Y-475000D02*
X1354000Y-565000D01*
X1309000Y-520000D02*
X1399000Y-520000D01*
X1608000Y-475000D02*
X1608000Y-565000D01*
X1563000Y-520000D02*
X1653000Y-520000D01*
X1862000Y-475000D02*
X1862000Y-565000D01*
X1817000Y-520000D02*
X1907000Y-520000D01*
X2116000Y-475000D02*
X2116000Y-565000D01*
X2071000Y-520000D02*
X2161000Y-520000D01*
D11*
X255777Y-2816484D02*
X255777Y-2616484D01*
X255777Y-2616484D02*
X303396Y-2616484D01*
X303396Y-2616484D02*
X331967Y-2626008D01*
X331967Y-2626008D02*
X351015Y-2645055D01*
X351015Y-2645055D02*
X360539Y-2664103D01*
X360539Y-2664103D02*
X370062Y-2702198D01*
X370062Y-2702198D02*
X370062Y-2730770D01*
X370062Y-2730770D02*
X360539Y-2768865D01*
X360539Y-2768865D02*
X351015Y-2787912D01*
X351015Y-2787912D02*
X331967Y-2806960D01*
X331967Y-2806960D02*
X303396Y-2816484D01*
X303396Y-2816484D02*
X255777Y-2816484D01*
X455777Y-2816484D02*
X455777Y-2683150D01*
X455777Y-2721246D02*
X465301Y-2702198D01*
X465301Y-2702198D02*
X474824Y-2692674D01*
X474824Y-2692674D02*
X493872Y-2683150D01*
X493872Y-2683150D02*
X512920Y-2683150D01*
X579586Y-2816484D02*
X579586Y-2683150D01*
X579586Y-2616484D02*
X570063Y-2626008D01*
X570063Y-2626008D02*
X579586Y-2635531D01*
X579586Y-2635531D02*
X589110Y-2626008D01*
X589110Y-2626008D02*
X579586Y-2616484D01*
X579586Y-2616484D02*
X579586Y-2635531D01*
X703396Y-2816484D02*
X684348Y-2806960D01*
X684348Y-2806960D02*
X674824Y-2787912D01*
X674824Y-2787912D02*
X674824Y-2616484D01*
X808158Y-2816484D02*
X789110Y-2806960D01*
X789110Y-2806960D02*
X779586Y-2787912D01*
X779586Y-2787912D02*
X779586Y-2616484D01*
X1036729Y-2816484D02*
X1036729Y-2616484D01*
X1036729Y-2616484D02*
X1103396Y-2759341D01*
X1103396Y-2759341D02*
X1170063Y-2616484D01*
X1170063Y-2616484D02*
X1170063Y-2816484D01*
X1351015Y-2816484D02*
X1351015Y-2711722D01*
X1351015Y-2711722D02*
X1341491Y-2692674D01*
X1341491Y-2692674D02*
X1322444Y-2683150D01*
X1322444Y-2683150D02*
X1284348Y-2683150D01*
X1284348Y-2683150D02*
X1265301Y-2692674D01*
X1351015Y-2806960D02*
X1331967Y-2816484D01*
X1331967Y-2816484D02*
X1284348Y-2816484D01*
X1284348Y-2816484D02*
X1265301Y-2806960D01*
X1265301Y-2806960D02*
X1255777Y-2787912D01*
X1255777Y-2787912D02*
X1255777Y-2768865D01*
X1255777Y-2768865D02*
X1265301Y-2749817D01*
X1265301Y-2749817D02*
X1284348Y-2740293D01*
X1284348Y-2740293D02*
X1331967Y-2740293D01*
X1331967Y-2740293D02*
X1351015Y-2730770D01*
X1446253Y-2683150D02*
X1446253Y-2883150D01*
X1446253Y-2692674D02*
X1465301Y-2683150D01*
X1465301Y-2683150D02*
X1503396Y-2683150D01*
X1503396Y-2683150D02*
X1522443Y-2692674D01*
X1522443Y-2692674D02*
X1531967Y-2702198D01*
X1531967Y-2702198D02*
X1541491Y-2721246D01*
X1541491Y-2721246D02*
X1541491Y-2778389D01*
X1541491Y-2778389D02*
X1531967Y-2797436D01*
X1531967Y-2797436D02*
X1522443Y-2806960D01*
X1522443Y-2806960D02*
X1503396Y-2816484D01*
X1503396Y-2816484D02*
X1465301Y-2816484D01*
X1465301Y-2816484D02*
X1446253Y-2806960D01*
X1627205Y-2797436D02*
X1636729Y-2806960D01*
X1636729Y-2806960D02*
X1627205Y-2816484D01*
X1627205Y-2816484D02*
X1617682Y-2806960D01*
X1617682Y-2806960D02*
X1627205Y-2797436D01*
X1627205Y-2797436D02*
X1627205Y-2816484D01*
X1627205Y-2692674D02*
X1636729Y-2702198D01*
X1636729Y-2702198D02*
X1627205Y-2711722D01*
X1627205Y-2711722D02*
X1617682Y-2702198D01*
X1617682Y-2702198D02*
X1627205Y-2692674D01*
X1627205Y-2692674D02*
X1627205Y-2711722D01*
D10*
X-35000Y-3130000D02*
X-5000Y-3160000D01*
X-5000Y-3130000D02*
X-35000Y-3160000D01*
D11*
X293872Y-3036484D02*
X312920Y-3036484D01*
X312920Y-3036484D02*
X331967Y-3046008D01*
X331967Y-3046008D02*
X341491Y-3055531D01*
X341491Y-3055531D02*
X351015Y-3074579D01*
X351015Y-3074579D02*
X360539Y-3112674D01*
X360539Y-3112674D02*
X360539Y-3160293D01*
X360539Y-3160293D02*
X351015Y-3198388D01*
X351015Y-3198388D02*
X341491Y-3217436D01*
X341491Y-3217436D02*
X331967Y-3226960D01*
X331967Y-3226960D02*
X312920Y-3236484D01*
X312920Y-3236484D02*
X293872Y-3236484D01*
X293872Y-3236484D02*
X274824Y-3226960D01*
X274824Y-3226960D02*
X265301Y-3217436D01*
X265301Y-3217436D02*
X255777Y-3198388D01*
X255777Y-3198388D02*
X246253Y-3160293D01*
X246253Y-3160293D02*
X246253Y-3112674D01*
X246253Y-3112674D02*
X255777Y-3074579D01*
X255777Y-3074579D02*
X265301Y-3055531D01*
X265301Y-3055531D02*
X274824Y-3046008D01*
X274824Y-3046008D02*
X293872Y-3036484D01*
X446253Y-3217436D02*
X455777Y-3226960D01*
X455777Y-3226960D02*
X446253Y-3236484D01*
X446253Y-3236484D02*
X436729Y-3226960D01*
X436729Y-3226960D02*
X446253Y-3217436D01*
X446253Y-3217436D02*
X446253Y-3236484D01*
X522443Y-3036484D02*
X646253Y-3036484D01*
X646253Y-3036484D02*
X579586Y-3112674D01*
X579586Y-3112674D02*
X608158Y-3112674D01*
X608158Y-3112674D02*
X627205Y-3122198D01*
X627205Y-3122198D02*
X636729Y-3131722D01*
X636729Y-3131722D02*
X646253Y-3150769D01*
X646253Y-3150769D02*
X646253Y-3198388D01*
X646253Y-3198388D02*
X636729Y-3217436D01*
X636729Y-3217436D02*
X627205Y-3226960D01*
X627205Y-3226960D02*
X608158Y-3236484D01*
X608158Y-3236484D02*
X551015Y-3236484D01*
X551015Y-3236484D02*
X531967Y-3226960D01*
X531967Y-3226960D02*
X522443Y-3217436D01*
X770062Y-3036484D02*
X789110Y-3036484D01*
X789110Y-3036484D02*
X808158Y-3046008D01*
X808158Y-3046008D02*
X817682Y-3055531D01*
X817682Y-3055531D02*
X827205Y-3074579D01*
X827205Y-3074579D02*
X836729Y-3112674D01*
X836729Y-3112674D02*
X836729Y-3160293D01*
X836729Y-3160293D02*
X827205Y-3198388D01*
X827205Y-3198388D02*
X817682Y-3217436D01*
X817682Y-3217436D02*
X808158Y-3226960D01*
X808158Y-3226960D02*
X789110Y-3236484D01*
X789110Y-3236484D02*
X770062Y-3236484D01*
X770062Y-3236484D02*
X751015Y-3226960D01*
X751015Y-3226960D02*
X741491Y-3217436D01*
X741491Y-3217436D02*
X731967Y-3198388D01*
X731967Y-3198388D02*
X722443Y-3160293D01*
X722443Y-3160293D02*
X722443Y-3112674D01*
X722443Y-3112674D02*
X731967Y-3074579D01*
X731967Y-3074579D02*
X741491Y-3055531D01*
X741491Y-3055531D02*
X751015Y-3046008D01*
X751015Y-3046008D02*
X770062Y-3036484D01*
X960539Y-3036484D02*
X979586Y-3036484D01*
X979586Y-3036484D02*
X998634Y-3046008D01*
X998634Y-3046008D02*
X1008158Y-3055531D01*
X1008158Y-3055531D02*
X1017682Y-3074579D01*
X1017682Y-3074579D02*
X1027205Y-3112674D01*
X1027205Y-3112674D02*
X1027205Y-3160293D01*
X1027205Y-3160293D02*
X1017682Y-3198388D01*
X1017682Y-3198388D02*
X1008158Y-3217436D01*
X1008158Y-3217436D02*
X998634Y-3226960D01*
X998634Y-3226960D02*
X979586Y-3236484D01*
X979586Y-3236484D02*
X960539Y-3236484D01*
X960539Y-3236484D02*
X941491Y-3226960D01*
X941491Y-3226960D02*
X931967Y-3217436D01*
X931967Y-3217436D02*
X922443Y-3198388D01*
X922443Y-3198388D02*
X912920Y-3160293D01*
X912920Y-3160293D02*
X912920Y-3112674D01*
X912920Y-3112674D02*
X922443Y-3074579D01*
X922443Y-3074579D02*
X931967Y-3055531D01*
X931967Y-3055531D02*
X941491Y-3046008D01*
X941491Y-3046008D02*
X960539Y-3036484D01*
X1112920Y-3236484D02*
X1112920Y-3103150D01*
X1112920Y-3122198D02*
X1122444Y-3112674D01*
X1122444Y-3112674D02*
X1141491Y-3103150D01*
X1141491Y-3103150D02*
X1170063Y-3103150D01*
X1170063Y-3103150D02*
X1189110Y-3112674D01*
X1189110Y-3112674D02*
X1198634Y-3131722D01*
X1198634Y-3131722D02*
X1198634Y-3236484D01*
X1198634Y-3131722D02*
X1208158Y-3112674D01*
X1208158Y-3112674D02*
X1227205Y-3103150D01*
X1227205Y-3103150D02*
X1255777Y-3103150D01*
X1255777Y-3103150D02*
X1274825Y-3112674D01*
X1274825Y-3112674D02*
X1284348Y-3131722D01*
X1284348Y-3131722D02*
X1284348Y-3236484D01*
X1379586Y-3236484D02*
X1379586Y-3103150D01*
X1379586Y-3122198D02*
X1389110Y-3112674D01*
X1389110Y-3112674D02*
X1408158Y-3103150D01*
X1408158Y-3103150D02*
X1436729Y-3103150D01*
X1436729Y-3103150D02*
X1455777Y-3112674D01*
X1455777Y-3112674D02*
X1465301Y-3131722D01*
X1465301Y-3131722D02*
X1465301Y-3236484D01*
X1465301Y-3131722D02*
X1474824Y-3112674D01*
X1474824Y-3112674D02*
X1493872Y-3103150D01*
X1493872Y-3103150D02*
X1522443Y-3103150D01*
X1522443Y-3103150D02*
X1541491Y-3112674D01*
X1541491Y-3112674D02*
X1551015Y-3131722D01*
X1551015Y-3131722D02*
X1551015Y-3236484D01*
X1941491Y-3026960D02*
X1770063Y-3284103D01*
X2198634Y-3036484D02*
X2217682Y-3036484D01*
X2217682Y-3036484D02*
X2236729Y-3046008D01*
X2236729Y-3046008D02*
X2246253Y-3055531D01*
X2246253Y-3055531D02*
X2255777Y-3074579D01*
X2255777Y-3074579D02*
X2265301Y-3112674D01*
X2265301Y-3112674D02*
X2265301Y-3160293D01*
X2265301Y-3160293D02*
X2255777Y-3198388D01*
X2255777Y-3198388D02*
X2246253Y-3217436D01*
X2246253Y-3217436D02*
X2236729Y-3226960D01*
X2236729Y-3226960D02*
X2217682Y-3236484D01*
X2217682Y-3236484D02*
X2198634Y-3236484D01*
X2198634Y-3236484D02*
X2179587Y-3226960D01*
X2179587Y-3226960D02*
X2170063Y-3217436D01*
X2170063Y-3217436D02*
X2160539Y-3198388D01*
X2160539Y-3198388D02*
X2151015Y-3160293D01*
X2151015Y-3160293D02*
X2151015Y-3112674D01*
X2151015Y-3112674D02*
X2160539Y-3074579D01*
X2160539Y-3074579D02*
X2170063Y-3055531D01*
X2170063Y-3055531D02*
X2179587Y-3046008D01*
X2179587Y-3046008D02*
X2198634Y-3036484D01*
X2351015Y-3217436D02*
X2360539Y-3226960D01*
X2360539Y-3226960D02*
X2351015Y-3236484D01*
X2351015Y-3236484D02*
X2341491Y-3226960D01*
X2341491Y-3226960D02*
X2351015Y-3217436D01*
X2351015Y-3217436D02*
X2351015Y-3236484D01*
X2484348Y-3036484D02*
X2503396Y-3036484D01*
X2503396Y-3036484D02*
X2522444Y-3046008D01*
X2522444Y-3046008D02*
X2531968Y-3055531D01*
X2531968Y-3055531D02*
X2541491Y-3074579D01*
X2541491Y-3074579D02*
X2551015Y-3112674D01*
X2551015Y-3112674D02*
X2551015Y-3160293D01*
X2551015Y-3160293D02*
X2541491Y-3198388D01*
X2541491Y-3198388D02*
X2531968Y-3217436D01*
X2531968Y-3217436D02*
X2522444Y-3226960D01*
X2522444Y-3226960D02*
X2503396Y-3236484D01*
X2503396Y-3236484D02*
X2484348Y-3236484D01*
X2484348Y-3236484D02*
X2465301Y-3226960D01*
X2465301Y-3226960D02*
X2455777Y-3217436D01*
X2455777Y-3217436D02*
X2446253Y-3198388D01*
X2446253Y-3198388D02*
X2436729Y-3160293D01*
X2436729Y-3160293D02*
X2436729Y-3112674D01*
X2436729Y-3112674D02*
X2446253Y-3074579D01*
X2446253Y-3074579D02*
X2455777Y-3055531D01*
X2455777Y-3055531D02*
X2465301Y-3046008D01*
X2465301Y-3046008D02*
X2484348Y-3036484D01*
X2741491Y-3236484D02*
X2627206Y-3236484D01*
X2684348Y-3236484D02*
X2684348Y-3036484D01*
X2684348Y-3036484D02*
X2665301Y-3065055D01*
X2665301Y-3065055D02*
X2646253Y-3084103D01*
X2646253Y-3084103D02*
X2627206Y-3093627D01*
X2931967Y-3236484D02*
X2817682Y-3236484D01*
X2874825Y-3236484D02*
X2874825Y-3036484D01*
X2874825Y-3036484D02*
X2855777Y-3065055D01*
X2855777Y-3065055D02*
X2836729Y-3084103D01*
X2836729Y-3084103D02*
X2817682Y-3093627D01*
X3046253Y-3122198D02*
X3027206Y-3112674D01*
X3027206Y-3112674D02*
X3017682Y-3103150D01*
X3017682Y-3103150D02*
X3008158Y-3084103D01*
X3008158Y-3084103D02*
X3008158Y-3074579D01*
X3008158Y-3074579D02*
X3017682Y-3055531D01*
X3017682Y-3055531D02*
X3027206Y-3046008D01*
X3027206Y-3046008D02*
X3046253Y-3036484D01*
X3046253Y-3036484D02*
X3084348Y-3036484D01*
X3084348Y-3036484D02*
X3103396Y-3046008D01*
X3103396Y-3046008D02*
X3112920Y-3055531D01*
X3112920Y-3055531D02*
X3122444Y-3074579D01*
X3122444Y-3074579D02*
X3122444Y-3084103D01*
X3122444Y-3084103D02*
X3112920Y-3103150D01*
X3112920Y-3103150D02*
X3103396Y-3112674D01*
X3103396Y-3112674D02*
X3084348Y-3122198D01*
X3084348Y-3122198D02*
X3046253Y-3122198D01*
X3046253Y-3122198D02*
X3027206Y-3131722D01*
X3027206Y-3131722D02*
X3017682Y-3141246D01*
X3017682Y-3141246D02*
X3008158Y-3160293D01*
X3008158Y-3160293D02*
X3008158Y-3198388D01*
X3008158Y-3198388D02*
X3017682Y-3217436D01*
X3017682Y-3217436D02*
X3027206Y-3226960D01*
X3027206Y-3226960D02*
X3046253Y-3236484D01*
X3046253Y-3236484D02*
X3084348Y-3236484D01*
X3084348Y-3236484D02*
X3103396Y-3226960D01*
X3103396Y-3226960D02*
X3112920Y-3217436D01*
X3112920Y-3217436D02*
X3122444Y-3198388D01*
X3122444Y-3198388D02*
X3122444Y-3160293D01*
X3122444Y-3160293D02*
X3112920Y-3141246D01*
X3112920Y-3141246D02*
X3103396Y-3131722D01*
X3103396Y-3131722D02*
X3084348Y-3122198D01*
X3198634Y-3036484D02*
X3198634Y-3074579D01*
X3274825Y-3036484D02*
X3274825Y-3074579D01*
X3570063Y-3312674D02*
X3560539Y-3303150D01*
X3560539Y-3303150D02*
X3541491Y-3274579D01*
X3541491Y-3274579D02*
X3531968Y-3255531D01*
X3531968Y-3255531D02*
X3522444Y-3226960D01*
X3522444Y-3226960D02*
X3512920Y-3179341D01*
X3512920Y-3179341D02*
X3512920Y-3141246D01*
X3512920Y-3141246D02*
X3522444Y-3093627D01*
X3522444Y-3093627D02*
X3531968Y-3065055D01*
X3531968Y-3065055D02*
X3541491Y-3046008D01*
X3541491Y-3046008D02*
X3560539Y-3017436D01*
X3560539Y-3017436D02*
X3570063Y-3007912D01*
X3751015Y-3236484D02*
X3636729Y-3236484D01*
X3693872Y-3236484D02*
X3693872Y-3036484D01*
X3693872Y-3036484D02*
X3674825Y-3065055D01*
X3674825Y-3065055D02*
X3655777Y-3084103D01*
X3655777Y-3084103D02*
X3636729Y-3093627D01*
X3941491Y-3236484D02*
X3827206Y-3236484D01*
X3884348Y-3236484D02*
X3884348Y-3036484D01*
X3884348Y-3036484D02*
X3865301Y-3065055D01*
X3865301Y-3065055D02*
X3846253Y-3084103D01*
X3846253Y-3084103D02*
X3827206Y-3093627D01*
X4179587Y-3236484D02*
X4179587Y-3036484D01*
X4265301Y-3236484D02*
X4265301Y-3131722D01*
X4265301Y-3131722D02*
X4255777Y-3112674D01*
X4255777Y-3112674D02*
X4236730Y-3103150D01*
X4236730Y-3103150D02*
X4208158Y-3103150D01*
X4208158Y-3103150D02*
X4189110Y-3112674D01*
X4189110Y-3112674D02*
X4179587Y-3122198D01*
X4389111Y-3236484D02*
X4370063Y-3226960D01*
X4370063Y-3226960D02*
X4360539Y-3217436D01*
X4360539Y-3217436D02*
X4351015Y-3198388D01*
X4351015Y-3198388D02*
X4351015Y-3141246D01*
X4351015Y-3141246D02*
X4360539Y-3122198D01*
X4360539Y-3122198D02*
X4370063Y-3112674D01*
X4370063Y-3112674D02*
X4389111Y-3103150D01*
X4389111Y-3103150D02*
X4417682Y-3103150D01*
X4417682Y-3103150D02*
X4436730Y-3112674D01*
X4436730Y-3112674D02*
X4446253Y-3122198D01*
X4446253Y-3122198D02*
X4455777Y-3141246D01*
X4455777Y-3141246D02*
X4455777Y-3198388D01*
X4455777Y-3198388D02*
X4446253Y-3217436D01*
X4446253Y-3217436D02*
X4436730Y-3226960D01*
X4436730Y-3226960D02*
X4417682Y-3236484D01*
X4417682Y-3236484D02*
X4389111Y-3236484D01*
X4570063Y-3236484D02*
X4551015Y-3226960D01*
X4551015Y-3226960D02*
X4541492Y-3207912D01*
X4541492Y-3207912D02*
X4541492Y-3036484D01*
X4722444Y-3226960D02*
X4703396Y-3236484D01*
X4703396Y-3236484D02*
X4665301Y-3236484D01*
X4665301Y-3236484D02*
X4646253Y-3226960D01*
X4646253Y-3226960D02*
X4636730Y-3207912D01*
X4636730Y-3207912D02*
X4636730Y-3131722D01*
X4636730Y-3131722D02*
X4646253Y-3112674D01*
X4646253Y-3112674D02*
X4665301Y-3103150D01*
X4665301Y-3103150D02*
X4703396Y-3103150D01*
X4703396Y-3103150D02*
X4722444Y-3112674D01*
X4722444Y-3112674D02*
X4731968Y-3131722D01*
X4731968Y-3131722D02*
X4731968Y-3150769D01*
X4731968Y-3150769D02*
X4636730Y-3169817D01*
X4808158Y-3226960D02*
X4827206Y-3236484D01*
X4827206Y-3236484D02*
X4865301Y-3236484D01*
X4865301Y-3236484D02*
X4884349Y-3226960D01*
X4884349Y-3226960D02*
X4893873Y-3207912D01*
X4893873Y-3207912D02*
X4893873Y-3198388D01*
X4893873Y-3198388D02*
X4884349Y-3179341D01*
X4884349Y-3179341D02*
X4865301Y-3169817D01*
X4865301Y-3169817D02*
X4836730Y-3169817D01*
X4836730Y-3169817D02*
X4817682Y-3160293D01*
X4817682Y-3160293D02*
X4808158Y-3141246D01*
X4808158Y-3141246D02*
X4808158Y-3131722D01*
X4808158Y-3131722D02*
X4817682Y-3112674D01*
X4817682Y-3112674D02*
X4836730Y-3103150D01*
X4836730Y-3103150D02*
X4865301Y-3103150D01*
X4865301Y-3103150D02*
X4884349Y-3112674D01*
X4960539Y-3312674D02*
X4970063Y-3303150D01*
X4970063Y-3303150D02*
X4989111Y-3274579D01*
X4989111Y-3274579D02*
X4998634Y-3255531D01*
X4998634Y-3255531D02*
X5008158Y-3226960D01*
X5008158Y-3226960D02*
X5017682Y-3179341D01*
X5017682Y-3179341D02*
X5017682Y-3141246D01*
X5017682Y-3141246D02*
X5008158Y-3093627D01*
X5008158Y-3093627D02*
X4998634Y-3065055D01*
X4998634Y-3065055D02*
X4989111Y-3046008D01*
X4989111Y-3046008D02*
X4970063Y-3017436D01*
X4970063Y-3017436D02*
X4960539Y-3007912D01*
D10*
X-5000Y-3409000D02*
G75*
G02*
X-80000Y-3409000I-37500J0D01*
G01*
X-80000Y-3409000D02*
G75*
G02*
X-5000Y-3409000I37500J0D01*
G01*
D11*
X293872Y-3300484D02*
X312920Y-3300484D01*
X312920Y-3300484D02*
X331967Y-3310008D01*
X331967Y-3310008D02*
X341491Y-3319531D01*
X341491Y-3319531D02*
X351015Y-3338579D01*
X351015Y-3338579D02*
X360539Y-3376674D01*
X360539Y-3376674D02*
X360539Y-3424293D01*
X360539Y-3424293D02*
X351015Y-3462388D01*
X351015Y-3462388D02*
X341491Y-3481436D01*
X341491Y-3481436D02*
X331967Y-3490960D01*
X331967Y-3490960D02*
X312920Y-3500484D01*
X312920Y-3500484D02*
X293872Y-3500484D01*
X293872Y-3500484D02*
X274824Y-3490960D01*
X274824Y-3490960D02*
X265301Y-3481436D01*
X265301Y-3481436D02*
X255777Y-3462388D01*
X255777Y-3462388D02*
X246253Y-3424293D01*
X246253Y-3424293D02*
X246253Y-3376674D01*
X246253Y-3376674D02*
X255777Y-3338579D01*
X255777Y-3338579D02*
X265301Y-3319531D01*
X265301Y-3319531D02*
X274824Y-3310008D01*
X274824Y-3310008D02*
X293872Y-3300484D01*
X446253Y-3481436D02*
X455777Y-3490960D01*
X455777Y-3490960D02*
X446253Y-3500484D01*
X446253Y-3500484D02*
X436729Y-3490960D01*
X436729Y-3490960D02*
X446253Y-3481436D01*
X446253Y-3481436D02*
X446253Y-3500484D01*
X522443Y-3300484D02*
X655777Y-3300484D01*
X655777Y-3300484D02*
X570063Y-3500484D01*
X827205Y-3300484D02*
X731967Y-3300484D01*
X731967Y-3300484D02*
X722443Y-3395722D01*
X722443Y-3395722D02*
X731967Y-3386198D01*
X731967Y-3386198D02*
X751015Y-3376674D01*
X751015Y-3376674D02*
X798634Y-3376674D01*
X798634Y-3376674D02*
X817682Y-3386198D01*
X817682Y-3386198D02*
X827205Y-3395722D01*
X827205Y-3395722D02*
X836729Y-3414769D01*
X836729Y-3414769D02*
X836729Y-3462388D01*
X836729Y-3462388D02*
X827205Y-3481436D01*
X827205Y-3481436D02*
X817682Y-3490960D01*
X817682Y-3490960D02*
X798634Y-3500484D01*
X798634Y-3500484D02*
X751015Y-3500484D01*
X751015Y-3500484D02*
X731967Y-3490960D01*
X731967Y-3490960D02*
X722443Y-3481436D01*
X960539Y-3300484D02*
X979586Y-3300484D01*
X979586Y-3300484D02*
X998634Y-3310008D01*
X998634Y-3310008D02*
X1008158Y-3319531D01*
X1008158Y-3319531D02*
X1017682Y-3338579D01*
X1017682Y-3338579D02*
X1027205Y-3376674D01*
X1027205Y-3376674D02*
X1027205Y-3424293D01*
X1027205Y-3424293D02*
X1017682Y-3462388D01*
X1017682Y-3462388D02*
X1008158Y-3481436D01*
X1008158Y-3481436D02*
X998634Y-3490960D01*
X998634Y-3490960D02*
X979586Y-3500484D01*
X979586Y-3500484D02*
X960539Y-3500484D01*
X960539Y-3500484D02*
X941491Y-3490960D01*
X941491Y-3490960D02*
X931967Y-3481436D01*
X931967Y-3481436D02*
X922443Y-3462388D01*
X922443Y-3462388D02*
X912920Y-3424293D01*
X912920Y-3424293D02*
X912920Y-3376674D01*
X912920Y-3376674D02*
X922443Y-3338579D01*
X922443Y-3338579D02*
X931967Y-3319531D01*
X931967Y-3319531D02*
X941491Y-3310008D01*
X941491Y-3310008D02*
X960539Y-3300484D01*
X1112920Y-3500484D02*
X1112920Y-3367150D01*
X1112920Y-3386198D02*
X1122444Y-3376674D01*
X1122444Y-3376674D02*
X1141491Y-3367150D01*
X1141491Y-3367150D02*
X1170063Y-3367150D01*
X1170063Y-3367150D02*
X1189110Y-3376674D01*
X1189110Y-3376674D02*
X1198634Y-3395722D01*
X1198634Y-3395722D02*
X1198634Y-3500484D01*
X1198634Y-3395722D02*
X1208158Y-3376674D01*
X1208158Y-3376674D02*
X1227205Y-3367150D01*
X1227205Y-3367150D02*
X1255777Y-3367150D01*
X1255777Y-3367150D02*
X1274825Y-3376674D01*
X1274825Y-3376674D02*
X1284348Y-3395722D01*
X1284348Y-3395722D02*
X1284348Y-3500484D01*
X1379586Y-3500484D02*
X1379586Y-3367150D01*
X1379586Y-3386198D02*
X1389110Y-3376674D01*
X1389110Y-3376674D02*
X1408158Y-3367150D01*
X1408158Y-3367150D02*
X1436729Y-3367150D01*
X1436729Y-3367150D02*
X1455777Y-3376674D01*
X1455777Y-3376674D02*
X1465301Y-3395722D01*
X1465301Y-3395722D02*
X1465301Y-3500484D01*
X1465301Y-3395722D02*
X1474824Y-3376674D01*
X1474824Y-3376674D02*
X1493872Y-3367150D01*
X1493872Y-3367150D02*
X1522443Y-3367150D01*
X1522443Y-3367150D02*
X1541491Y-3376674D01*
X1541491Y-3376674D02*
X1551015Y-3395722D01*
X1551015Y-3395722D02*
X1551015Y-3500484D01*
X1941491Y-3290960D02*
X1770063Y-3548103D01*
X2198634Y-3300484D02*
X2217682Y-3300484D01*
X2217682Y-3300484D02*
X2236729Y-3310008D01*
X2236729Y-3310008D02*
X2246253Y-3319531D01*
X2246253Y-3319531D02*
X2255777Y-3338579D01*
X2255777Y-3338579D02*
X2265301Y-3376674D01*
X2265301Y-3376674D02*
X2265301Y-3424293D01*
X2265301Y-3424293D02*
X2255777Y-3462388D01*
X2255777Y-3462388D02*
X2246253Y-3481436D01*
X2246253Y-3481436D02*
X2236729Y-3490960D01*
X2236729Y-3490960D02*
X2217682Y-3500484D01*
X2217682Y-3500484D02*
X2198634Y-3500484D01*
X2198634Y-3500484D02*
X2179587Y-3490960D01*
X2179587Y-3490960D02*
X2170063Y-3481436D01*
X2170063Y-3481436D02*
X2160539Y-3462388D01*
X2160539Y-3462388D02*
X2151015Y-3424293D01*
X2151015Y-3424293D02*
X2151015Y-3376674D01*
X2151015Y-3376674D02*
X2160539Y-3338579D01*
X2160539Y-3338579D02*
X2170063Y-3319531D01*
X2170063Y-3319531D02*
X2179587Y-3310008D01*
X2179587Y-3310008D02*
X2198634Y-3300484D01*
X2351015Y-3481436D02*
X2360539Y-3490960D01*
X2360539Y-3490960D02*
X2351015Y-3500484D01*
X2351015Y-3500484D02*
X2341491Y-3490960D01*
X2341491Y-3490960D02*
X2351015Y-3481436D01*
X2351015Y-3481436D02*
X2351015Y-3500484D01*
X2484348Y-3300484D02*
X2503396Y-3300484D01*
X2503396Y-3300484D02*
X2522444Y-3310008D01*
X2522444Y-3310008D02*
X2531968Y-3319531D01*
X2531968Y-3319531D02*
X2541491Y-3338579D01*
X2541491Y-3338579D02*
X2551015Y-3376674D01*
X2551015Y-3376674D02*
X2551015Y-3424293D01*
X2551015Y-3424293D02*
X2541491Y-3462388D01*
X2541491Y-3462388D02*
X2531968Y-3481436D01*
X2531968Y-3481436D02*
X2522444Y-3490960D01*
X2522444Y-3490960D02*
X2503396Y-3500484D01*
X2503396Y-3500484D02*
X2484348Y-3500484D01*
X2484348Y-3500484D02*
X2465301Y-3490960D01*
X2465301Y-3490960D02*
X2455777Y-3481436D01*
X2455777Y-3481436D02*
X2446253Y-3462388D01*
X2446253Y-3462388D02*
X2436729Y-3424293D01*
X2436729Y-3424293D02*
X2436729Y-3376674D01*
X2436729Y-3376674D02*
X2446253Y-3338579D01*
X2446253Y-3338579D02*
X2455777Y-3319531D01*
X2455777Y-3319531D02*
X2465301Y-3310008D01*
X2465301Y-3310008D02*
X2484348Y-3300484D01*
X2627206Y-3319531D02*
X2636729Y-3310008D01*
X2636729Y-3310008D02*
X2655777Y-3300484D01*
X2655777Y-3300484D02*
X2703396Y-3300484D01*
X2703396Y-3300484D02*
X2722444Y-3310008D01*
X2722444Y-3310008D02*
X2731968Y-3319531D01*
X2731968Y-3319531D02*
X2741491Y-3338579D01*
X2741491Y-3338579D02*
X2741491Y-3357627D01*
X2741491Y-3357627D02*
X2731968Y-3386198D01*
X2731968Y-3386198D02*
X2617682Y-3500484D01*
X2617682Y-3500484D02*
X2741491Y-3500484D01*
X2836729Y-3500484D02*
X2874825Y-3500484D01*
X2874825Y-3500484D02*
X2893872Y-3490960D01*
X2893872Y-3490960D02*
X2903396Y-3481436D01*
X2903396Y-3481436D02*
X2922444Y-3452865D01*
X2922444Y-3452865D02*
X2931967Y-3414769D01*
X2931967Y-3414769D02*
X2931967Y-3338579D01*
X2931967Y-3338579D02*
X2922444Y-3319531D01*
X2922444Y-3319531D02*
X2912920Y-3310008D01*
X2912920Y-3310008D02*
X2893872Y-3300484D01*
X2893872Y-3300484D02*
X2855777Y-3300484D01*
X2855777Y-3300484D02*
X2836729Y-3310008D01*
X2836729Y-3310008D02*
X2827206Y-3319531D01*
X2827206Y-3319531D02*
X2817682Y-3338579D01*
X2817682Y-3338579D02*
X2817682Y-3386198D01*
X2817682Y-3386198D02*
X2827206Y-3405246D01*
X2827206Y-3405246D02*
X2836729Y-3414769D01*
X2836729Y-3414769D02*
X2855777Y-3424293D01*
X2855777Y-3424293D02*
X2893872Y-3424293D01*
X2893872Y-3424293D02*
X2912920Y-3414769D01*
X2912920Y-3414769D02*
X2922444Y-3405246D01*
X2922444Y-3405246D02*
X2931967Y-3386198D01*
X3112920Y-3300484D02*
X3017682Y-3300484D01*
X3017682Y-3300484D02*
X3008158Y-3395722D01*
X3008158Y-3395722D02*
X3017682Y-3386198D01*
X3017682Y-3386198D02*
X3036729Y-3376674D01*
X3036729Y-3376674D02*
X3084348Y-3376674D01*
X3084348Y-3376674D02*
X3103396Y-3386198D01*
X3103396Y-3386198D02*
X3112920Y-3395722D01*
X3112920Y-3395722D02*
X3122444Y-3414769D01*
X3122444Y-3414769D02*
X3122444Y-3462388D01*
X3122444Y-3462388D02*
X3112920Y-3481436D01*
X3112920Y-3481436D02*
X3103396Y-3490960D01*
X3103396Y-3490960D02*
X3084348Y-3500484D01*
X3084348Y-3500484D02*
X3036729Y-3500484D01*
X3036729Y-3500484D02*
X3017682Y-3490960D01*
X3017682Y-3490960D02*
X3008158Y-3481436D01*
X3198634Y-3300484D02*
X3198634Y-3338579D01*
X3274825Y-3300484D02*
X3274825Y-3338579D01*
X3570063Y-3576674D02*
X3560539Y-3567150D01*
X3560539Y-3567150D02*
X3541491Y-3538579D01*
X3541491Y-3538579D02*
X3531968Y-3519531D01*
X3531968Y-3519531D02*
X3522444Y-3490960D01*
X3522444Y-3490960D02*
X3512920Y-3443341D01*
X3512920Y-3443341D02*
X3512920Y-3405246D01*
X3512920Y-3405246D02*
X3522444Y-3357627D01*
X3522444Y-3357627D02*
X3531968Y-3329055D01*
X3531968Y-3329055D02*
X3541491Y-3310008D01*
X3541491Y-3310008D02*
X3560539Y-3281436D01*
X3560539Y-3281436D02*
X3570063Y-3271912D01*
X3751015Y-3500484D02*
X3636729Y-3500484D01*
X3693872Y-3500484D02*
X3693872Y-3300484D01*
X3693872Y-3300484D02*
X3674825Y-3329055D01*
X3674825Y-3329055D02*
X3655777Y-3348103D01*
X3655777Y-3348103D02*
X3636729Y-3357627D01*
X3922444Y-3300484D02*
X3884348Y-3300484D01*
X3884348Y-3300484D02*
X3865301Y-3310008D01*
X3865301Y-3310008D02*
X3855777Y-3319531D01*
X3855777Y-3319531D02*
X3836729Y-3348103D01*
X3836729Y-3348103D02*
X3827206Y-3386198D01*
X3827206Y-3386198D02*
X3827206Y-3462388D01*
X3827206Y-3462388D02*
X3836729Y-3481436D01*
X3836729Y-3481436D02*
X3846253Y-3490960D01*
X3846253Y-3490960D02*
X3865301Y-3500484D01*
X3865301Y-3500484D02*
X3903396Y-3500484D01*
X3903396Y-3500484D02*
X3922444Y-3490960D01*
X3922444Y-3490960D02*
X3931968Y-3481436D01*
X3931968Y-3481436D02*
X3941491Y-3462388D01*
X3941491Y-3462388D02*
X3941491Y-3414769D01*
X3941491Y-3414769D02*
X3931968Y-3395722D01*
X3931968Y-3395722D02*
X3922444Y-3386198D01*
X3922444Y-3386198D02*
X3903396Y-3376674D01*
X3903396Y-3376674D02*
X3865301Y-3376674D01*
X3865301Y-3376674D02*
X3846253Y-3386198D01*
X3846253Y-3386198D02*
X3836729Y-3395722D01*
X3836729Y-3395722D02*
X3827206Y-3414769D01*
X4179587Y-3500484D02*
X4179587Y-3300484D01*
X4265301Y-3500484D02*
X4265301Y-3395722D01*
X4265301Y-3395722D02*
X4255777Y-3376674D01*
X4255777Y-3376674D02*
X4236730Y-3367150D01*
X4236730Y-3367150D02*
X4208158Y-3367150D01*
X4208158Y-3367150D02*
X4189110Y-3376674D01*
X4189110Y-3376674D02*
X4179587Y-3386198D01*
X4389111Y-3500484D02*
X4370063Y-3490960D01*
X4370063Y-3490960D02*
X4360539Y-3481436D01*
X4360539Y-3481436D02*
X4351015Y-3462388D01*
X4351015Y-3462388D02*
X4351015Y-3405246D01*
X4351015Y-3405246D02*
X4360539Y-3386198D01*
X4360539Y-3386198D02*
X4370063Y-3376674D01*
X4370063Y-3376674D02*
X4389111Y-3367150D01*
X4389111Y-3367150D02*
X4417682Y-3367150D01*
X4417682Y-3367150D02*
X4436730Y-3376674D01*
X4436730Y-3376674D02*
X4446253Y-3386198D01*
X4446253Y-3386198D02*
X4455777Y-3405246D01*
X4455777Y-3405246D02*
X4455777Y-3462388D01*
X4455777Y-3462388D02*
X4446253Y-3481436D01*
X4446253Y-3481436D02*
X4436730Y-3490960D01*
X4436730Y-3490960D02*
X4417682Y-3500484D01*
X4417682Y-3500484D02*
X4389111Y-3500484D01*
X4570063Y-3500484D02*
X4551015Y-3490960D01*
X4551015Y-3490960D02*
X4541492Y-3471912D01*
X4541492Y-3471912D02*
X4541492Y-3300484D01*
X4722444Y-3490960D02*
X4703396Y-3500484D01*
X4703396Y-3500484D02*
X4665301Y-3500484D01*
X4665301Y-3500484D02*
X4646253Y-3490960D01*
X4646253Y-3490960D02*
X4636730Y-3471912D01*
X4636730Y-3471912D02*
X4636730Y-3395722D01*
X4636730Y-3395722D02*
X4646253Y-3376674D01*
X4646253Y-3376674D02*
X4665301Y-3367150D01*
X4665301Y-3367150D02*
X4703396Y-3367150D01*
X4703396Y-3367150D02*
X4722444Y-3376674D01*
X4722444Y-3376674D02*
X4731968Y-3395722D01*
X4731968Y-3395722D02*
X4731968Y-3414769D01*
X4731968Y-3414769D02*
X4636730Y-3433817D01*
X4808158Y-3490960D02*
X4827206Y-3500484D01*
X4827206Y-3500484D02*
X4865301Y-3500484D01*
X4865301Y-3500484D02*
X4884349Y-3490960D01*
X4884349Y-3490960D02*
X4893873Y-3471912D01*
X4893873Y-3471912D02*
X4893873Y-3462388D01*
X4893873Y-3462388D02*
X4884349Y-3443341D01*
X4884349Y-3443341D02*
X4865301Y-3433817D01*
X4865301Y-3433817D02*
X4836730Y-3433817D01*
X4836730Y-3433817D02*
X4817682Y-3424293D01*
X4817682Y-3424293D02*
X4808158Y-3405246D01*
X4808158Y-3405246D02*
X4808158Y-3395722D01*
X4808158Y-3395722D02*
X4817682Y-3376674D01*
X4817682Y-3376674D02*
X4836730Y-3367150D01*
X4836730Y-3367150D02*
X4865301Y-3367150D01*
X4865301Y-3367150D02*
X4884349Y-3376674D01*
X4960539Y-3576674D02*
X4970063Y-3567150D01*
X4970063Y-3567150D02*
X4989111Y-3538579D01*
X4989111Y-3538579D02*
X4998634Y-3519531D01*
X4998634Y-3519531D02*
X5008158Y-3490960D01*
X5008158Y-3490960D02*
X5017682Y-3443341D01*
X5017682Y-3443341D02*
X5017682Y-3405246D01*
X5017682Y-3405246D02*
X5008158Y-3357627D01*
X5008158Y-3357627D02*
X4998634Y-3329055D01*
X4998634Y-3329055D02*
X4989111Y-3310008D01*
X4989111Y-3310008D02*
X4970063Y-3281436D01*
X4970063Y-3281436D02*
X4960539Y-3271912D01*
D10*
X-50000Y-3628000D02*
X-50000Y-3718000D01*
X-95000Y-3673000D02*
X-5000Y-3673000D01*
D11*
X293872Y-3564484D02*
X312920Y-3564484D01*
X312920Y-3564484D02*
X331967Y-3574008D01*
X331967Y-3574008D02*
X341491Y-3583531D01*
X341491Y-3583531D02*
X351015Y-3602579D01*
X351015Y-3602579D02*
X360539Y-3640674D01*
X360539Y-3640674D02*
X360539Y-3688293D01*
X360539Y-3688293D02*
X351015Y-3726388D01*
X351015Y-3726388D02*
X341491Y-3745436D01*
X341491Y-3745436D02*
X331967Y-3754960D01*
X331967Y-3754960D02*
X312920Y-3764484D01*
X312920Y-3764484D02*
X293872Y-3764484D01*
X293872Y-3764484D02*
X274824Y-3754960D01*
X274824Y-3754960D02*
X265301Y-3745436D01*
X265301Y-3745436D02*
X255777Y-3726388D01*
X255777Y-3726388D02*
X246253Y-3688293D01*
X246253Y-3688293D02*
X246253Y-3640674D01*
X246253Y-3640674D02*
X255777Y-3602579D01*
X255777Y-3602579D02*
X265301Y-3583531D01*
X265301Y-3583531D02*
X274824Y-3574008D01*
X274824Y-3574008D02*
X293872Y-3564484D01*
X446253Y-3745436D02*
X455777Y-3754960D01*
X455777Y-3754960D02*
X446253Y-3764484D01*
X446253Y-3764484D02*
X436729Y-3754960D01*
X436729Y-3754960D02*
X446253Y-3745436D01*
X446253Y-3745436D02*
X446253Y-3764484D01*
X551015Y-3764484D02*
X589110Y-3764484D01*
X589110Y-3764484D02*
X608158Y-3754960D01*
X608158Y-3754960D02*
X617682Y-3745436D01*
X617682Y-3745436D02*
X636729Y-3716865D01*
X636729Y-3716865D02*
X646253Y-3678769D01*
X646253Y-3678769D02*
X646253Y-3602579D01*
X646253Y-3602579D02*
X636729Y-3583531D01*
X636729Y-3583531D02*
X627205Y-3574008D01*
X627205Y-3574008D02*
X608158Y-3564484D01*
X608158Y-3564484D02*
X570063Y-3564484D01*
X570063Y-3564484D02*
X551015Y-3574008D01*
X551015Y-3574008D02*
X541491Y-3583531D01*
X541491Y-3583531D02*
X531967Y-3602579D01*
X531967Y-3602579D02*
X531967Y-3650198D01*
X531967Y-3650198D02*
X541491Y-3669246D01*
X541491Y-3669246D02*
X551015Y-3678769D01*
X551015Y-3678769D02*
X570063Y-3688293D01*
X570063Y-3688293D02*
X608158Y-3688293D01*
X608158Y-3688293D02*
X627205Y-3678769D01*
X627205Y-3678769D02*
X636729Y-3669246D01*
X636729Y-3669246D02*
X646253Y-3650198D01*
X770062Y-3564484D02*
X789110Y-3564484D01*
X789110Y-3564484D02*
X808158Y-3574008D01*
X808158Y-3574008D02*
X817682Y-3583531D01*
X817682Y-3583531D02*
X827205Y-3602579D01*
X827205Y-3602579D02*
X836729Y-3640674D01*
X836729Y-3640674D02*
X836729Y-3688293D01*
X836729Y-3688293D02*
X827205Y-3726388D01*
X827205Y-3726388D02*
X817682Y-3745436D01*
X817682Y-3745436D02*
X808158Y-3754960D01*
X808158Y-3754960D02*
X789110Y-3764484D01*
X789110Y-3764484D02*
X770062Y-3764484D01*
X770062Y-3764484D02*
X751015Y-3754960D01*
X751015Y-3754960D02*
X741491Y-3745436D01*
X741491Y-3745436D02*
X731967Y-3726388D01*
X731967Y-3726388D02*
X722443Y-3688293D01*
X722443Y-3688293D02*
X722443Y-3640674D01*
X722443Y-3640674D02*
X731967Y-3602579D01*
X731967Y-3602579D02*
X741491Y-3583531D01*
X741491Y-3583531D02*
X751015Y-3574008D01*
X751015Y-3574008D02*
X770062Y-3564484D01*
X960539Y-3564484D02*
X979586Y-3564484D01*
X979586Y-3564484D02*
X998634Y-3574008D01*
X998634Y-3574008D02*
X1008158Y-3583531D01*
X1008158Y-3583531D02*
X1017682Y-3602579D01*
X1017682Y-3602579D02*
X1027205Y-3640674D01*
X1027205Y-3640674D02*
X1027205Y-3688293D01*
X1027205Y-3688293D02*
X1017682Y-3726388D01*
X1017682Y-3726388D02*
X1008158Y-3745436D01*
X1008158Y-3745436D02*
X998634Y-3754960D01*
X998634Y-3754960D02*
X979586Y-3764484D01*
X979586Y-3764484D02*
X960539Y-3764484D01*
X960539Y-3764484D02*
X941491Y-3754960D01*
X941491Y-3754960D02*
X931967Y-3745436D01*
X931967Y-3745436D02*
X922443Y-3726388D01*
X922443Y-3726388D02*
X912920Y-3688293D01*
X912920Y-3688293D02*
X912920Y-3640674D01*
X912920Y-3640674D02*
X922443Y-3602579D01*
X922443Y-3602579D02*
X931967Y-3583531D01*
X931967Y-3583531D02*
X941491Y-3574008D01*
X941491Y-3574008D02*
X960539Y-3564484D01*
X1112920Y-3764484D02*
X1112920Y-3631150D01*
X1112920Y-3650198D02*
X1122444Y-3640674D01*
X1122444Y-3640674D02*
X1141491Y-3631150D01*
X1141491Y-3631150D02*
X1170063Y-3631150D01*
X1170063Y-3631150D02*
X1189110Y-3640674D01*
X1189110Y-3640674D02*
X1198634Y-3659722D01*
X1198634Y-3659722D02*
X1198634Y-3764484D01*
X1198634Y-3659722D02*
X1208158Y-3640674D01*
X1208158Y-3640674D02*
X1227205Y-3631150D01*
X1227205Y-3631150D02*
X1255777Y-3631150D01*
X1255777Y-3631150D02*
X1274825Y-3640674D01*
X1274825Y-3640674D02*
X1284348Y-3659722D01*
X1284348Y-3659722D02*
X1284348Y-3764484D01*
X1379586Y-3764484D02*
X1379586Y-3631150D01*
X1379586Y-3650198D02*
X1389110Y-3640674D01*
X1389110Y-3640674D02*
X1408158Y-3631150D01*
X1408158Y-3631150D02*
X1436729Y-3631150D01*
X1436729Y-3631150D02*
X1455777Y-3640674D01*
X1455777Y-3640674D02*
X1465301Y-3659722D01*
X1465301Y-3659722D02*
X1465301Y-3764484D01*
X1465301Y-3659722D02*
X1474824Y-3640674D01*
X1474824Y-3640674D02*
X1493872Y-3631150D01*
X1493872Y-3631150D02*
X1522443Y-3631150D01*
X1522443Y-3631150D02*
X1541491Y-3640674D01*
X1541491Y-3640674D02*
X1551015Y-3659722D01*
X1551015Y-3659722D02*
X1551015Y-3764484D01*
X1941491Y-3554960D02*
X1770063Y-3812103D01*
X2198634Y-3564484D02*
X2217682Y-3564484D01*
X2217682Y-3564484D02*
X2236729Y-3574008D01*
X2236729Y-3574008D02*
X2246253Y-3583531D01*
X2246253Y-3583531D02*
X2255777Y-3602579D01*
X2255777Y-3602579D02*
X2265301Y-3640674D01*
X2265301Y-3640674D02*
X2265301Y-3688293D01*
X2265301Y-3688293D02*
X2255777Y-3726388D01*
X2255777Y-3726388D02*
X2246253Y-3745436D01*
X2246253Y-3745436D02*
X2236729Y-3754960D01*
X2236729Y-3754960D02*
X2217682Y-3764484D01*
X2217682Y-3764484D02*
X2198634Y-3764484D01*
X2198634Y-3764484D02*
X2179587Y-3754960D01*
X2179587Y-3754960D02*
X2170063Y-3745436D01*
X2170063Y-3745436D02*
X2160539Y-3726388D01*
X2160539Y-3726388D02*
X2151015Y-3688293D01*
X2151015Y-3688293D02*
X2151015Y-3640674D01*
X2151015Y-3640674D02*
X2160539Y-3602579D01*
X2160539Y-3602579D02*
X2170063Y-3583531D01*
X2170063Y-3583531D02*
X2179587Y-3574008D01*
X2179587Y-3574008D02*
X2198634Y-3564484D01*
X2351015Y-3745436D02*
X2360539Y-3754960D01*
X2360539Y-3754960D02*
X2351015Y-3764484D01*
X2351015Y-3764484D02*
X2341491Y-3754960D01*
X2341491Y-3754960D02*
X2351015Y-3745436D01*
X2351015Y-3745436D02*
X2351015Y-3764484D01*
X2484348Y-3564484D02*
X2503396Y-3564484D01*
X2503396Y-3564484D02*
X2522444Y-3574008D01*
X2522444Y-3574008D02*
X2531968Y-3583531D01*
X2531968Y-3583531D02*
X2541491Y-3602579D01*
X2541491Y-3602579D02*
X2551015Y-3640674D01*
X2551015Y-3640674D02*
X2551015Y-3688293D01*
X2551015Y-3688293D02*
X2541491Y-3726388D01*
X2541491Y-3726388D02*
X2531968Y-3745436D01*
X2531968Y-3745436D02*
X2522444Y-3754960D01*
X2522444Y-3754960D02*
X2503396Y-3764484D01*
X2503396Y-3764484D02*
X2484348Y-3764484D01*
X2484348Y-3764484D02*
X2465301Y-3754960D01*
X2465301Y-3754960D02*
X2455777Y-3745436D01*
X2455777Y-3745436D02*
X2446253Y-3726388D01*
X2446253Y-3726388D02*
X2436729Y-3688293D01*
X2436729Y-3688293D02*
X2436729Y-3640674D01*
X2436729Y-3640674D02*
X2446253Y-3602579D01*
X2446253Y-3602579D02*
X2455777Y-3583531D01*
X2455777Y-3583531D02*
X2465301Y-3574008D01*
X2465301Y-3574008D02*
X2484348Y-3564484D01*
X2617682Y-3564484D02*
X2741491Y-3564484D01*
X2741491Y-3564484D02*
X2674825Y-3640674D01*
X2674825Y-3640674D02*
X2703396Y-3640674D01*
X2703396Y-3640674D02*
X2722444Y-3650198D01*
X2722444Y-3650198D02*
X2731968Y-3659722D01*
X2731968Y-3659722D02*
X2741491Y-3678769D01*
X2741491Y-3678769D02*
X2741491Y-3726388D01*
X2741491Y-3726388D02*
X2731968Y-3745436D01*
X2731968Y-3745436D02*
X2722444Y-3754960D01*
X2722444Y-3754960D02*
X2703396Y-3764484D01*
X2703396Y-3764484D02*
X2646253Y-3764484D01*
X2646253Y-3764484D02*
X2627206Y-3754960D01*
X2627206Y-3754960D02*
X2617682Y-3745436D01*
X2922444Y-3564484D02*
X2827206Y-3564484D01*
X2827206Y-3564484D02*
X2817682Y-3659722D01*
X2817682Y-3659722D02*
X2827206Y-3650198D01*
X2827206Y-3650198D02*
X2846253Y-3640674D01*
X2846253Y-3640674D02*
X2893872Y-3640674D01*
X2893872Y-3640674D02*
X2912920Y-3650198D01*
X2912920Y-3650198D02*
X2922444Y-3659722D01*
X2922444Y-3659722D02*
X2931967Y-3678769D01*
X2931967Y-3678769D02*
X2931967Y-3726388D01*
X2931967Y-3726388D02*
X2922444Y-3745436D01*
X2922444Y-3745436D02*
X2912920Y-3754960D01*
X2912920Y-3754960D02*
X2893872Y-3764484D01*
X2893872Y-3764484D02*
X2846253Y-3764484D01*
X2846253Y-3764484D02*
X2827206Y-3754960D01*
X2827206Y-3754960D02*
X2817682Y-3745436D01*
X3103396Y-3631150D02*
X3103396Y-3764484D01*
X3055777Y-3554960D02*
X3008158Y-3697817D01*
X3008158Y-3697817D02*
X3131967Y-3697817D01*
X3198634Y-3564484D02*
X3198634Y-3602579D01*
X3274825Y-3564484D02*
X3274825Y-3602579D01*
X3570063Y-3840674D02*
X3560539Y-3831150D01*
X3560539Y-3831150D02*
X3541491Y-3802579D01*
X3541491Y-3802579D02*
X3531968Y-3783531D01*
X3531968Y-3783531D02*
X3522444Y-3754960D01*
X3522444Y-3754960D02*
X3512920Y-3707341D01*
X3512920Y-3707341D02*
X3512920Y-3669246D01*
X3512920Y-3669246D02*
X3522444Y-3621627D01*
X3522444Y-3621627D02*
X3531968Y-3593055D01*
X3531968Y-3593055D02*
X3541491Y-3574008D01*
X3541491Y-3574008D02*
X3560539Y-3545436D01*
X3560539Y-3545436D02*
X3570063Y-3535912D01*
X3674825Y-3650198D02*
X3655777Y-3640674D01*
X3655777Y-3640674D02*
X3646253Y-3631150D01*
X3646253Y-3631150D02*
X3636729Y-3612103D01*
X3636729Y-3612103D02*
X3636729Y-3602579D01*
X3636729Y-3602579D02*
X3646253Y-3583531D01*
X3646253Y-3583531D02*
X3655777Y-3574008D01*
X3655777Y-3574008D02*
X3674825Y-3564484D01*
X3674825Y-3564484D02*
X3712920Y-3564484D01*
X3712920Y-3564484D02*
X3731968Y-3574008D01*
X3731968Y-3574008D02*
X3741491Y-3583531D01*
X3741491Y-3583531D02*
X3751015Y-3602579D01*
X3751015Y-3602579D02*
X3751015Y-3612103D01*
X3751015Y-3612103D02*
X3741491Y-3631150D01*
X3741491Y-3631150D02*
X3731968Y-3640674D01*
X3731968Y-3640674D02*
X3712920Y-3650198D01*
X3712920Y-3650198D02*
X3674825Y-3650198D01*
X3674825Y-3650198D02*
X3655777Y-3659722D01*
X3655777Y-3659722D02*
X3646253Y-3669246D01*
X3646253Y-3669246D02*
X3636729Y-3688293D01*
X3636729Y-3688293D02*
X3636729Y-3726388D01*
X3636729Y-3726388D02*
X3646253Y-3745436D01*
X3646253Y-3745436D02*
X3655777Y-3754960D01*
X3655777Y-3754960D02*
X3674825Y-3764484D01*
X3674825Y-3764484D02*
X3712920Y-3764484D01*
X3712920Y-3764484D02*
X3731968Y-3754960D01*
X3731968Y-3754960D02*
X3741491Y-3745436D01*
X3741491Y-3745436D02*
X3751015Y-3726388D01*
X3751015Y-3726388D02*
X3751015Y-3688293D01*
X3751015Y-3688293D02*
X3741491Y-3669246D01*
X3741491Y-3669246D02*
X3731968Y-3659722D01*
X3731968Y-3659722D02*
X3712920Y-3650198D01*
X3989110Y-3764484D02*
X3989110Y-3564484D01*
X4074825Y-3764484D02*
X4074825Y-3659722D01*
X4074825Y-3659722D02*
X4065301Y-3640674D01*
X4065301Y-3640674D02*
X4046253Y-3631150D01*
X4046253Y-3631150D02*
X4017682Y-3631150D01*
X4017682Y-3631150D02*
X3998634Y-3640674D01*
X3998634Y-3640674D02*
X3989110Y-3650198D01*
X4198634Y-3764484D02*
X4179587Y-3754960D01*
X4179587Y-3754960D02*
X4170063Y-3745436D01*
X4170063Y-3745436D02*
X4160539Y-3726388D01*
X4160539Y-3726388D02*
X4160539Y-3669246D01*
X4160539Y-3669246D02*
X4170063Y-3650198D01*
X4170063Y-3650198D02*
X4179587Y-3640674D01*
X4179587Y-3640674D02*
X4198634Y-3631150D01*
X4198634Y-3631150D02*
X4227206Y-3631150D01*
X4227206Y-3631150D02*
X4246253Y-3640674D01*
X4246253Y-3640674D02*
X4255777Y-3650198D01*
X4255777Y-3650198D02*
X4265301Y-3669246D01*
X4265301Y-3669246D02*
X4265301Y-3726388D01*
X4265301Y-3726388D02*
X4255777Y-3745436D01*
X4255777Y-3745436D02*
X4246253Y-3754960D01*
X4246253Y-3754960D02*
X4227206Y-3764484D01*
X4227206Y-3764484D02*
X4198634Y-3764484D01*
X4379587Y-3764484D02*
X4360539Y-3754960D01*
X4360539Y-3754960D02*
X4351015Y-3735912D01*
X4351015Y-3735912D02*
X4351015Y-3564484D01*
X4531968Y-3754960D02*
X4512920Y-3764484D01*
X4512920Y-3764484D02*
X4474825Y-3764484D01*
X4474825Y-3764484D02*
X4455777Y-3754960D01*
X4455777Y-3754960D02*
X4446253Y-3735912D01*
X4446253Y-3735912D02*
X4446253Y-3659722D01*
X4446253Y-3659722D02*
X4455777Y-3640674D01*
X4455777Y-3640674D02*
X4474825Y-3631150D01*
X4474825Y-3631150D02*
X4512920Y-3631150D01*
X4512920Y-3631150D02*
X4531968Y-3640674D01*
X4531968Y-3640674D02*
X4541492Y-3659722D01*
X4541492Y-3659722D02*
X4541492Y-3678769D01*
X4541492Y-3678769D02*
X4446253Y-3697817D01*
X4617682Y-3754960D02*
X4636730Y-3764484D01*
X4636730Y-3764484D02*
X4674825Y-3764484D01*
X4674825Y-3764484D02*
X4693873Y-3754960D01*
X4693873Y-3754960D02*
X4703396Y-3735912D01*
X4703396Y-3735912D02*
X4703396Y-3726388D01*
X4703396Y-3726388D02*
X4693873Y-3707341D01*
X4693873Y-3707341D02*
X4674825Y-3697817D01*
X4674825Y-3697817D02*
X4646253Y-3697817D01*
X4646253Y-3697817D02*
X4627206Y-3688293D01*
X4627206Y-3688293D02*
X4617682Y-3669246D01*
X4617682Y-3669246D02*
X4617682Y-3659722D01*
X4617682Y-3659722D02*
X4627206Y-3640674D01*
X4627206Y-3640674D02*
X4646253Y-3631150D01*
X4646253Y-3631150D02*
X4674825Y-3631150D01*
X4674825Y-3631150D02*
X4693873Y-3640674D01*
X4770063Y-3840674D02*
X4779587Y-3831150D01*
X4779587Y-3831150D02*
X4798634Y-3802579D01*
X4798634Y-3802579D02*
X4808158Y-3783531D01*
X4808158Y-3783531D02*
X4817682Y-3754960D01*
X4817682Y-3754960D02*
X4827206Y-3707341D01*
X4827206Y-3707341D02*
X4827206Y-3669246D01*
X4827206Y-3669246D02*
X4817682Y-3621627D01*
X4817682Y-3621627D02*
X4808158Y-3593055D01*
X4808158Y-3593055D02*
X4798634Y-3574008D01*
X4798634Y-3574008D02*
X4779587Y-3545436D01*
X4779587Y-3545436D02*
X4770063Y-3535912D01*
M02*
