%TF.GenerationSoftware,KiCad,Pcbnew,10.0.6*%
%TF.CreationDate,2026-09-06T20:56:08-07:00*%
%TF.ProjectId,pmw3610_daughterboard,706d7733-3631-4305-9f64-617567687465,rev?*%
%TF.SameCoordinates,Original*%
%TF.FileFunction,Copper,L1,Top*%
%TF.FilePolarity,Positive*%
%FSLAX46Y46*%
G04 Gerber Fmt 4.6, Leading zero omitted, Abs format (unit mm)*
G04 Created by KiCad (PCBNEW 10.0.6) date 2026-09-06 20:56:08*
%MOMM*%
%LPD*%
G01*
G04 APERTURE LIST*
G04 Aperture macros list*
%AMRoundRect*
0 Rectangle with rounded corners*
0 $1 Rounding radius*
0 $2 $3 $4 $5 $6 $7 $8 $9 X,Y pos of 4 corners*
0 Add a 4 corners polygon primitive as box body*
4,1,4,$2,$3,$4,$5,$6,$7,$8,$9,$2,$3,0*
0 Add four circle primitives for the rounded corners*
1,1,$1+$1,$2,$3*
1,1,$1+$1,$4,$5*
1,1,$1+$1,$6,$7*
1,1,$1+$1,$8,$9*
0 Add four rect primitives between the rounded corners*
20,1,$1+$1,$2,$3,$4,$5,0*
20,1,$1+$1,$4,$5,$6,$7,0*
20,1,$1+$1,$6,$7,$8,$9,0*
20,1,$1+$1,$8,$9,$2,$3,0*%
G04 Aperture macros list end*
%TA.AperFunction,SMDPad,CuDef*%
%ADD10RoundRect,0.225000X0.250000X-0.225000X0.250000X0.225000X-0.250000X0.225000X-0.250000X-0.225000X0*%
%TD*%
%TA.AperFunction,SMDPad,CuDef*%
%ADD11RoundRect,0.250000X-0.250000X-0.475000X0.250000X-0.475000X0.250000X0.475000X-0.250000X0.475000X0*%
%TD*%
%TA.AperFunction,ComponentPad*%
%ADD12R,1.500000X1.500000*%
%TD*%
%TA.AperFunction,ComponentPad*%
%ADD13C,1.500000*%
%TD*%
%TA.AperFunction,SMDPad,CuDef*%
%ADD14RoundRect,0.200000X0.275000X-0.200000X0.275000X0.200000X-0.275000X0.200000X-0.275000X-0.200000X0*%
%TD*%
%TA.AperFunction,ComponentPad*%
%ADD15RoundRect,0.187500X-0.437500X0.437500X-0.437500X-0.437500X0.437500X-0.437500X0.437500X0.437500X0*%
%TD*%
%TA.AperFunction,ComponentPad*%
%ADD16O,1.250000X1.250000*%
%TD*%
%TA.AperFunction,SMDPad,CuDef*%
%ADD17RoundRect,0.200000X-0.200000X-0.275000X0.200000X-0.275000X0.200000X0.275000X-0.200000X0.275000X0*%
%TD*%
%TA.AperFunction,SMDPad,CuDef*%
%ADD18RoundRect,0.150000X-0.512500X-0.150000X0.512500X-0.150000X0.512500X0.150000X-0.512500X0.150000X0*%
%TD*%
%TA.AperFunction,ViaPad*%
%ADD19C,0.500000*%
%TD*%
%TA.AperFunction,ViaPad*%
%ADD20C,0.550000*%
%TD*%
%TA.AperFunction,Conductor*%
%ADD21C,0.200000*%
%TD*%
%TA.AperFunction,Conductor*%
%ADD22C,0.150000*%
%TD*%
G04 APERTURE END LIST*
D10*
%TO.P,C2,1*%
%TO.N,+1V8*%
X20300000Y-19275000D03*
%TO.P,C2,2*%
%TO.N,GND*%
X20300000Y-17725000D03*
%TD*%
D11*
%TO.P,C1,1*%
%TO.N,+1V8*%
X8050000Y-7500000D03*
%TO.P,C1,2*%
%TO.N,GND*%
X9950000Y-7500000D03*
%TD*%
D10*
%TO.P,C4,1*%
%TO.N,+1V8*%
X2800000Y-13275000D03*
%TO.P,C4,2*%
%TO.N,GND*%
X2800000Y-11725000D03*
%TD*%
%TO.P,C8,1*%
%TO.N,VCC*%
X2800000Y-22275000D03*
%TO.P,C8,2*%
%TO.N,GND*%
X2800000Y-20725000D03*
%TD*%
D12*
%TO.P,J1,1*%
%TO.N,SCLK*%
X3380000Y-5200000D03*
D13*
%TO.P,J1,2*%
%TO.N,SDIO*%
X5920000Y-5200000D03*
%TO.P,J1,3*%
%TO.N,GND*%
X8460000Y-5200000D03*
%TO.P,J1,4*%
%TO.N,VCC*%
X11000000Y-5200000D03*
%TO.P,J1,5*%
%TO.N,GND*%
X13540000Y-5200000D03*
%TO.P,J1,6*%
%TO.N,NCS*%
X16080000Y-5200000D03*
%TO.P,J1,7*%
%TO.N,NRESET*%
X18620000Y-5200000D03*
%TD*%
D14*
%TO.P,R1,1*%
%TO.N,VCC*%
X2800000Y-16325000D03*
%TO.P,R1,2*%
%TO.N,NRESET*%
X2800000Y-14675000D03*
%TD*%
D10*
%TO.P,C9,1*%
%TO.N,+1V8*%
X2800000Y-19275000D03*
%TO.P,C9,2*%
%TO.N,GND*%
X2800000Y-17725000D03*
%TD*%
%TO.P,C3,1*%
%TO.N,VCC*%
X20300000Y-8775000D03*
%TO.P,C3,2*%
%TO.N,GND*%
X20300000Y-7225000D03*
%TD*%
%TO.P,C5,1*%
%TO.N,CP*%
X20300000Y-12275000D03*
%TO.P,C5,2*%
%TO.N,CN*%
X20300000Y-10725000D03*
%TD*%
D13*
%TO.P,MOT1,1*%
%TO.N,MOTION*%
X21160000Y-5200000D03*
%TD*%
D10*
%TO.P,C7,1*%
%TO.N,VCP*%
X20300000Y-15775000D03*
%TO.P,C7,2*%
%TO.N,GND*%
X20300000Y-14225000D03*
%TD*%
D15*
%TO.P,U1,1*%
%TO.N,N/C*%
X5650000Y-10832000D03*
D16*
%TO.P,U1,2*%
%TO.N,SDIO*%
X5650000Y-12612000D03*
%TO.P,U1,3*%
%TO.N,SCLK*%
X5650000Y-14392000D03*
%TO.P,U1,4*%
%TO.N,N/C*%
X5650000Y-16172000D03*
%TO.P,U1,5*%
%TO.N,NCS*%
X5650000Y-17952000D03*
%TO.P,U1,6*%
%TO.N,VCC*%
X5650000Y-19732000D03*
%TO.P,U1,7*%
%TO.N,NRESET*%
X5650000Y-21512000D03*
%TO.P,U1,8*%
%TO.N,MOTION*%
X5650000Y-23292000D03*
%TO.P,U1,9*%
%TO.N,VCP*%
X16350000Y-24182000D03*
%TO.P,U1,10*%
%TO.N,PASST*%
X16350000Y-22402000D03*
%TO.P,U1,11*%
%TO.N,GND*%
X16350000Y-20622000D03*
%TO.P,U1,12*%
%TO.N,CP*%
X16350000Y-18842000D03*
%TO.P,U1,13*%
%TO.N,CN*%
X16350000Y-17062000D03*
%TO.P,U1,14*%
%TO.N,+1V8*%
X16350000Y-15282000D03*
%TO.P,U1,15*%
%TO.N,N/C*%
X16350000Y-13502000D03*
%TO.P,U1,16*%
X16350000Y-11722000D03*
%TD*%
D17*
%TO.P,R2,1*%
%TO.N,VCC*%
X15175000Y-7500000D03*
%TO.P,R2,2*%
%TO.N,MOTION*%
X16825000Y-7500000D03*
%TD*%
D18*
%TO.P,U2,1*%
%TO.N,VCC*%
X3362500Y-7350000D03*
%TO.P,U2,2*%
%TO.N,GND*%
X3362500Y-8300000D03*
%TO.P,U2,3*%
%TO.N,VCC*%
X3362500Y-9250000D03*
%TO.P,U2,4*%
%TO.N,N/C*%
X5637500Y-9250000D03*
%TO.P,U2,5*%
%TO.N,+1V8*%
X5637500Y-7350000D03*
%TD*%
D11*
%TO.P,C6,1*%
%TO.N,PASST*%
X12050000Y-7500000D03*
%TO.P,C6,2*%
%TO.N,GND*%
X13950000Y-7500000D03*
%TD*%
D19*
%TO.N,+1V8*%
X7081800Y-9286700D03*
X3795200Y-12654900D03*
D20*
%TO.N,GND*%
X13540000Y-5200000D03*
X16350000Y-20622000D03*
X8460000Y-5200000D03*
D19*
X19417400Y-17426100D03*
X2437200Y-6554800D03*
%TO.N,SCLK*%
X4813900Y-8222000D03*
%TO.N,NRESET*%
X3735200Y-17626400D03*
%TO.N,CP*%
X19051100Y-16140900D03*
%TO.N,CN*%
X18531100Y-14712500D03*
%TO.N,VCP*%
X20300000Y-16854200D03*
%TD*%
%TO.N,+1V8*%
D21*
X7081800Y-7500000D02*
X8050000Y-7500000D01*
X20059500Y-19275000D02*
X20300000Y-19275000D01*
X3795200Y-12654900D02*
X3795200Y-12662700D01*
X7081800Y-9286700D02*
X7081800Y-7500000D01*
X2800000Y-13275000D02*
X3182900Y-13275000D01*
X16350000Y-16158700D02*
X16943200Y-16158700D01*
X3182900Y-13275000D02*
X4294500Y-14386600D01*
X4294500Y-14386600D02*
X4294500Y-17780500D01*
X16943200Y-16158700D02*
X20059500Y-19275000D01*
X4294500Y-17780500D02*
X2800000Y-19275000D01*
X16350000Y-15282000D02*
X16350000Y-16158700D01*
X7081800Y-7500000D02*
X6931800Y-7350000D01*
X3795200Y-12662700D02*
X3182900Y-13275000D01*
X6931800Y-7350000D02*
X5637500Y-7350000D01*
%TO.N,GND*%
X2437200Y-11362200D02*
X2704000Y-11629000D01*
X21027600Y-14952600D02*
X20300000Y-14225000D01*
X2437200Y-6554800D02*
X2437200Y-8300000D01*
X15018900Y-8648800D02*
X18013300Y-11643200D01*
X18013300Y-15884700D02*
X19486100Y-17357400D01*
X21046800Y-7971800D02*
X21046800Y-13478200D01*
X13540000Y-6145000D02*
X13540000Y-7490200D01*
X19417400Y-17426100D02*
X19486100Y-17357400D01*
X2051100Y-18473900D02*
X2051100Y-19976100D01*
X13540000Y-5200000D02*
X13540000Y-6145000D01*
X19853600Y-17725000D02*
X20300000Y-17725000D01*
X21027600Y-16997400D02*
X21027600Y-14952600D01*
X13540000Y-6145000D02*
X13540000Y-7090000D01*
X2800000Y-17725000D02*
X1642100Y-16567100D01*
X21046800Y-13478200D02*
X20300000Y-14225000D01*
X3362500Y-8300000D02*
X2437200Y-8300000D01*
X2051100Y-19976100D02*
X2800000Y-20725000D01*
X1642100Y-12690900D02*
X2704000Y-11629000D01*
X2800000Y-17725000D02*
X2051100Y-18473900D01*
X13540000Y-7090000D02*
X13950000Y-7500000D01*
X18013300Y-11643200D02*
X18013300Y-15884700D01*
X20300000Y-17725000D02*
X21027600Y-16997400D01*
X9950000Y-6690000D02*
X9950000Y-7500000D01*
X13540000Y-7490200D02*
X14698600Y-8648800D01*
X20300000Y-7225000D02*
X21046800Y-7971800D01*
X2800000Y-11725000D02*
X2704000Y-11629000D01*
X19486100Y-17357400D02*
X19853600Y-17725000D01*
X2437200Y-8300000D02*
X2437200Y-11362200D01*
X8460000Y-5200000D02*
X9950000Y-6690000D01*
X14698600Y-8648800D02*
X15018900Y-8648800D01*
X1642100Y-16567100D02*
X1642100Y-12690900D01*
%TO.N,VCC*%
X2033900Y-12843600D02*
X2033900Y-15558900D01*
X2305100Y-12572400D02*
X2033900Y-12843600D01*
X4297000Y-7585900D02*
X4297000Y-8850800D01*
X16450000Y-8775000D02*
X20300000Y-8775000D01*
X11000000Y-5200000D02*
X12016300Y-4183700D01*
X1253600Y-20728600D02*
X2800000Y-22275000D01*
X4869700Y-6541400D02*
X4869700Y-4833700D01*
X4234300Y-4198300D02*
X2525700Y-4198300D01*
X2033900Y-15558900D02*
X2800000Y-16325000D01*
X3362500Y-9250000D02*
X3572900Y-9460400D01*
X3572900Y-9460400D02*
X3572900Y-12114900D01*
X5519000Y-4184400D02*
X9984400Y-4184400D01*
X3115400Y-12572400D02*
X2305100Y-12572400D01*
D22*
X3761700Y-8850800D02*
X3362500Y-9250000D01*
D21*
X4061100Y-7350000D02*
X4297000Y-7585900D01*
X4061100Y-7350000D02*
X4869700Y-6541400D01*
X15175000Y-6962900D02*
X15175000Y-7500000D01*
X5650000Y-19732000D02*
X4773300Y-19732000D01*
X2525700Y-4198300D02*
X1253600Y-5470400D01*
D22*
X4297000Y-8850800D02*
X3761700Y-8850800D01*
D21*
X14701200Y-4871400D02*
X14701200Y-6489100D01*
X9984400Y-4184400D02*
X11000000Y-5200000D01*
X14013500Y-4183700D02*
X14701200Y-4871400D01*
X14701200Y-6489100D02*
X15175000Y-6962900D01*
X4869700Y-4833700D02*
X5519000Y-4184400D01*
X4869700Y-4833700D02*
X4234300Y-4198300D01*
X1253600Y-5470400D02*
X1253600Y-20728600D01*
X4773300Y-20301700D02*
X4773300Y-19732000D01*
X3362500Y-7350000D02*
X4061100Y-7350000D01*
X3572900Y-12114900D02*
X3115400Y-12572400D01*
X12016300Y-4183700D02*
X14013500Y-4183700D01*
X15175000Y-7500000D02*
X16450000Y-8775000D01*
X2800000Y-22275000D02*
X4773300Y-20301700D01*
%TO.N,SCLK*%
X4685600Y-9026100D02*
X4685600Y-8350300D01*
X5650000Y-14392000D02*
X5650000Y-13515300D01*
X4327100Y-9384600D02*
X4685600Y-9026100D01*
X5102100Y-13515300D02*
X4327100Y-12740300D01*
X5650000Y-13515300D02*
X5102100Y-13515300D01*
X4685600Y-8350300D02*
X4813900Y-8222000D01*
X4327100Y-12740300D02*
X4327100Y-9384600D01*
%TO.N,SDIO*%
X8315300Y-6255000D02*
X6975000Y-6255000D01*
X8844900Y-6784600D02*
X8315300Y-6255000D01*
X4773300Y-12612000D02*
X4693800Y-12532500D01*
X7247600Y-9830400D02*
X8844900Y-8233100D01*
X4693800Y-12532500D02*
X4693800Y-10286900D01*
X5150300Y-9830400D02*
X7247600Y-9830400D01*
X4693800Y-10286900D02*
X5150300Y-9830400D01*
X8844900Y-8233100D02*
X8844900Y-6784600D01*
X5650000Y-12612000D02*
X4773300Y-12612000D01*
X6975000Y-6255000D02*
X5920000Y-5200000D01*
%TO.N,NRESET*%
X2800000Y-14675000D02*
X3735200Y-15610200D01*
X3735200Y-15610200D02*
X3735200Y-17626400D01*
%TO.N,CP*%
X20300000Y-12275000D02*
X19051100Y-13523900D01*
X19051100Y-13523900D02*
X19051100Y-16140900D01*
%TO.N,CN*%
X18531100Y-12493900D02*
X20300000Y-10725000D01*
X18531100Y-14712500D02*
X18531100Y-12493900D01*
%TO.N,MOTION*%
X16825000Y-7500000D02*
X18860000Y-7500000D01*
X18860000Y-7500000D02*
X21160000Y-5200000D01*
%TO.N,VCP*%
X20300000Y-15775000D02*
X20300000Y-16854200D01*
%TO.N,PASST*%
X19729400Y-18447600D02*
X20701700Y-18447600D01*
X21034200Y-18780100D02*
X21034200Y-19694000D01*
X17599800Y-16318000D02*
X19729400Y-18447600D01*
X20701700Y-18447600D02*
X21034200Y-18780100D01*
X21034200Y-19694000D02*
X18326200Y-22402000D01*
X18326200Y-22402000D02*
X16350000Y-22402000D01*
X17599800Y-11727000D02*
X17599800Y-16318000D01*
X13725500Y-9175500D02*
X15048300Y-9175500D01*
X15048300Y-9175500D02*
X17599800Y-11727000D01*
X12050000Y-7500000D02*
X13725500Y-9175500D01*
%TD*%
M02*
