%TF.GenerationSoftware,KiCad,Pcbnew,10.0.6*%
%TF.CreationDate,2026-09-06T20:18:22-07:00*%
%TF.ProjectId,pmw3610_daughterboard,706d7733-3631-4305-9f64-617567687465,rev?*%
%TF.SameCoordinates,Original*%
%TF.FileFunction,Copper,L2,Bot*%
%TF.FilePolarity,Positive*%
%FSLAX46Y46*%
G04 Gerber Fmt 4.6, Leading zero omitted, Abs format (unit mm)*
G04 Created by KiCad (PCBNEW 10.0.6) date 2026-09-06 20:18:22*
%MOMM*%
%LPD*%
G01*
G04 APERTURE LIST*
G04 Aperture macros list*
%AMRoundRect*
0 Rectangle with rounded corners*
0 $1 Rounding radius*
0 $2 $3 $4 $5 $6 $7 $8 $9 X,Y pos of 4 corners*
0 Add a 4 corners polygon primitive as box body*
4,1,4,$2,$3,$4,$5,$6,$7,$8,$9,$2,$3,0*
0 Add four circle primitives for the rounded corners*
1,1,$1+$1,$2,$3*
1,1,$1+$1,$4,$5*
1,1,$1+$1,$6,$7*
1,1,$1+$1,$8,$9*
0 Add four rect primitives between the rounded corners*
20,1,$1+$1,$2,$3,$4,$5,0*
20,1,$1+$1,$4,$5,$6,$7,0*
20,1,$1+$1,$6,$7,$8,$9,0*
20,1,$1+$1,$8,$9,$2,$3,0*%
G04 Aperture macros list end*
%TA.AperFunction,ComponentPad*%
%ADD10RoundRect,0.187500X-0.437500X0.437500X-0.437500X-0.437500X0.437500X-0.437500X0.437500X0.437500X0*%
%TD*%
%TA.AperFunction,ComponentPad*%
%ADD11O,1.250000X1.250000*%
%TD*%
%TA.AperFunction,ComponentPad*%
%ADD12C,1.500000*%
%TD*%
%TA.AperFunction,ComponentPad*%
%ADD13R,1.500000X1.500000*%
%TD*%
%TA.AperFunction,ViaPad*%
%ADD14C,0.500000*%
%TD*%
%TA.AperFunction,ViaPad*%
%ADD15C,0.550000*%
%TD*%
%TA.AperFunction,Conductor*%
%ADD16C,0.200000*%
%TD*%
G04 APERTURE END LIST*
D10*
%TO.P,U1,1*%
%TO.N,N/C*%
X5650000Y-10832000D03*
D11*
%TO.P,U1,2*%
%TO.N,SDIO*%
X5650000Y-12612000D03*
%TO.P,U1,3*%
%TO.N,SCLK*%
X5650000Y-14392000D03*
%TO.P,U1,4*%
%TO.N,N/C*%
X5650000Y-16172000D03*
%TO.P,U1,5*%
%TO.N,NCS*%
X5650000Y-17952000D03*
%TO.P,U1,6*%
%TO.N,VCC*%
X5650000Y-19732000D03*
%TO.P,U1,7*%
%TO.N,NRESET*%
X5650000Y-21512000D03*
%TO.P,U1,8*%
%TO.N,MOTION*%
X5650000Y-23292000D03*
%TO.P,U1,9*%
%TO.N,VCP*%
X16350000Y-24182000D03*
%TO.P,U1,10*%
%TO.N,PASST*%
X16350000Y-22402000D03*
%TO.P,U1,11*%
%TO.N,GND*%
X16350000Y-20622000D03*
%TO.P,U1,12*%
%TO.N,CP*%
X16350000Y-18842000D03*
%TO.P,U1,13*%
%TO.N,CN*%
X16350000Y-17062000D03*
%TO.P,U1,14*%
%TO.N,+1V8*%
X16350000Y-15282000D03*
%TO.P,U1,15*%
%TO.N,N/C*%
X16350000Y-13502000D03*
%TO.P,U1,16*%
X16350000Y-11722000D03*
%TD*%
D12*
%TO.P,MOT1,1*%
%TO.N,MOTION*%
X21160000Y-5200000D03*
%TD*%
D13*
%TO.P,J1,1*%
%TO.N,SCLK*%
X3380000Y-5200000D03*
D12*
%TO.P,J1,2*%
%TO.N,SDIO*%
X5920000Y-5200000D03*
%TO.P,J1,3*%
%TO.N,GND*%
X8460000Y-5200000D03*
%TO.P,J1,4*%
%TO.N,VCC*%
X11000000Y-5200000D03*
%TO.P,J1,5*%
%TO.N,GND*%
X13540000Y-5200000D03*
%TO.P,J1,6*%
%TO.N,NCS*%
X16080000Y-5200000D03*
%TO.P,J1,7*%
%TO.N,NRESET*%
X18620000Y-5200000D03*
%TD*%
D14*
%TO.N,GND*%
X1916300Y-17321900D03*
D15*
X16350000Y-20622000D03*
D14*
X21001900Y-17023100D03*
D15*
X8460000Y-5200000D03*
X13540000Y-5200000D03*
D14*
X3490100Y-19965200D03*
%TO.N,SDIO*%
X3747200Y-10921800D03*
%TO.N,NRESET*%
X4045800Y-17465900D03*
%TO.N,PASST*%
X18949300Y-15453700D03*
%TO.N,CP*%
X19404500Y-14256600D03*
%TO.N,CN*%
X19014900Y-13146000D03*
%TO.N,+1V8*%
X4232200Y-11358600D03*
X6689500Y-7865700D03*
%TD*%
%TO.N,GND*%
D16*
X17403000Y-20622000D02*
X21001900Y-17023100D01*
X1916300Y-17321900D02*
X1916300Y-18391400D01*
X12514000Y-6226000D02*
X9486000Y-6226000D01*
X16350000Y-20622000D02*
X17403000Y-20622000D01*
X13540000Y-5200000D02*
X12514000Y-6226000D01*
X1916300Y-18391400D02*
X3490100Y-19965200D01*
X9486000Y-6226000D02*
X8460000Y-5200000D01*
%TO.N,SDIO*%
X4773300Y-12612000D02*
X3672100Y-11510800D01*
X5650000Y-12612000D02*
X4773300Y-12612000D01*
X3672100Y-11510800D02*
X3672100Y-10996900D01*
X3672100Y-10996900D02*
X3747200Y-10921800D01*
%TO.N,NCS*%
X6879000Y-6954900D02*
X18308100Y-6954900D01*
X3245400Y-15034100D02*
X3245400Y-10588500D01*
X19067700Y-4177500D02*
X17102500Y-4177500D01*
X3245400Y-10588500D02*
X6879000Y-6954900D01*
X17102500Y-4177500D02*
X16080000Y-5200000D01*
X18308100Y-6954900D02*
X19632000Y-5631000D01*
X5650000Y-17952000D02*
X5650000Y-17075300D01*
X19632000Y-4741800D02*
X19067700Y-4177500D01*
X5650000Y-17075300D02*
X5286600Y-17075300D01*
X19632000Y-5631000D02*
X19632000Y-4741800D01*
X5286600Y-17075300D02*
X3245400Y-15034100D01*
%TO.N,NRESET*%
X4045800Y-17465900D02*
X2866300Y-16286400D01*
X6728900Y-6577700D02*
X17242300Y-6577700D01*
X4753800Y-20135300D02*
X4753800Y-18173900D01*
X5650000Y-20635300D02*
X5253800Y-20635300D01*
X5650000Y-21512000D02*
X5650000Y-20635300D01*
X2866300Y-16286400D02*
X2866300Y-10440300D01*
X4753800Y-18173900D02*
X4045800Y-17465900D01*
X17242300Y-6577700D02*
X18620000Y-5200000D01*
X2866300Y-10440300D02*
X6728900Y-6577700D01*
X5253800Y-20635300D02*
X4753800Y-20135300D01*
%TO.N,MOTION*%
X5650000Y-23292000D02*
X5650000Y-22415300D01*
X2502500Y-18131500D02*
X4070200Y-19699200D01*
X7314000Y-4846200D02*
X7314000Y-5306600D01*
X2502500Y-10118100D02*
X2502500Y-18131500D01*
X4070200Y-21198900D02*
X5286600Y-22415300D01*
X19741400Y-3781400D02*
X8378800Y-3781400D01*
X8378800Y-3781400D02*
X7314000Y-4846200D01*
X21160000Y-5200000D02*
X19741400Y-3781400D01*
X5286600Y-22415300D02*
X5650000Y-22415300D01*
X4070200Y-19699200D02*
X4070200Y-21198900D01*
X7314000Y-5306600D02*
X2502500Y-10118100D01*
%TO.N,PASST*%
X17258400Y-21525300D02*
X21551500Y-17232200D01*
X21551500Y-17232200D02*
X21551500Y-16833200D01*
X16350000Y-21525300D02*
X17258400Y-21525300D01*
X20172000Y-15453700D02*
X18949300Y-15453700D01*
X21551500Y-16833200D02*
X20172000Y-15453700D01*
X16350000Y-22402000D02*
X16350000Y-21525300D01*
%TO.N,CP*%
X16788400Y-17965300D02*
X17372300Y-17381400D01*
X16350000Y-18842000D02*
X16350000Y-17965300D01*
X16350000Y-17965300D02*
X16788400Y-17965300D01*
X17372300Y-16288800D02*
X19404500Y-14256600D01*
X17372300Y-17381400D02*
X17372300Y-16288800D01*
%TO.N,CN*%
X18292400Y-14661300D02*
X18292400Y-13868500D01*
X16768400Y-16185300D02*
X18292400Y-14661300D01*
X18292400Y-13868500D02*
X19014900Y-13146000D01*
X16350000Y-17062000D02*
X16350000Y-16185300D01*
X16350000Y-16185300D02*
X16768400Y-16185300D01*
%TO.N,+1V8*%
X16350000Y-15282000D02*
X16350000Y-14405300D01*
X13770300Y-7865700D02*
X6689500Y-7865700D01*
X16713400Y-14405300D02*
X17254800Y-13863900D01*
X17254800Y-11350200D02*
X13770300Y-7865700D01*
X16350000Y-14405300D02*
X16713400Y-14405300D01*
X4248900Y-11341900D02*
X4248900Y-10306300D01*
X4248900Y-10306300D02*
X6689500Y-7865700D01*
X17254800Y-13863900D02*
X17254800Y-11350200D01*
X4232200Y-11358600D02*
X4248900Y-11341900D01*
%TD*%
%TA.AperFunction,Conductor*%
%TO.N,GND*%
G36*
X22693039Y-269685D02*
G01*
X22738794Y-322489D01*
X22750000Y-374000D01*
X22750000Y-19759981D01*
X22730315Y-19827020D01*
X22677511Y-19872775D01*
X22608353Y-19882719D01*
X22544797Y-19853694D01*
X22538319Y-19847662D01*
X22446545Y-19755888D01*
X22446541Y-19755885D01*
X22331817Y-19679228D01*
X22331804Y-19679221D01*
X22204332Y-19626421D01*
X22204322Y-19626418D01*
X22068995Y-19599500D01*
X22068993Y-19599500D01*
X21931007Y-19599500D01*
X21931005Y-19599500D01*
X21795677Y-19626418D01*
X21795667Y-19626421D01*
X21668195Y-19679221D01*
X21668182Y-19679228D01*
X21553458Y-19755885D01*
X21553454Y-19755888D01*
X21455888Y-19853454D01*
X21455885Y-19853458D01*
X21379228Y-19968182D01*
X21379221Y-19968195D01*
X21326421Y-20095667D01*
X21326418Y-20095677D01*
X21299500Y-20231004D01*
X21299500Y-20231007D01*
X21299500Y-20368993D01*
X21299500Y-20368995D01*
X21299499Y-20368995D01*
X21326418Y-20504322D01*
X21326421Y-20504332D01*
X21379221Y-20631804D01*
X21379228Y-20631817D01*
X21455885Y-20746541D01*
X21455888Y-20746545D01*
X21553454Y-20844111D01*
X21553458Y-20844114D01*
X21668182Y-20920771D01*
X21668195Y-20920778D01*
X21795667Y-20973578D01*
X21795672Y-20973580D01*
X21795676Y-20973580D01*
X21795677Y-20973581D01*
X21931004Y-21000500D01*
X21931007Y-21000500D01*
X22068995Y-21000500D01*
X22160041Y-20982389D01*
X22204328Y-20973580D01*
X22331811Y-20920775D01*
X22446542Y-20844114D01*
X22459483Y-20831173D01*
X22538319Y-20752338D01*
X22599642Y-20718853D01*
X22669334Y-20723837D01*
X22725267Y-20765709D01*
X22749684Y-20831173D01*
X22750000Y-20840019D01*
X22750000Y-24626000D01*
X22730315Y-24693039D01*
X22677511Y-24738794D01*
X22626000Y-24750000D01*
X17519538Y-24750000D01*
X17452499Y-24730315D01*
X17406744Y-24677511D01*
X17396800Y-24608353D01*
X17401607Y-24587682D01*
X17424500Y-24517222D01*
X17447786Y-24445555D01*
X17475500Y-24270579D01*
X17475500Y-24093421D01*
X17447786Y-23918445D01*
X17393042Y-23749958D01*
X17393042Y-23749957D01*
X17352061Y-23669529D01*
X17312614Y-23592110D01*
X17208483Y-23448786D01*
X17139378Y-23379681D01*
X17105893Y-23318358D01*
X17110877Y-23248666D01*
X17139378Y-23204319D01*
X17140276Y-23203421D01*
X17208483Y-23135214D01*
X17312614Y-22991890D01*
X17393042Y-22834042D01*
X17447786Y-22665555D01*
X17475500Y-22490579D01*
X17475500Y-22313421D01*
X17456896Y-22195964D01*
X17465850Y-22126674D01*
X17510846Y-22073222D01*
X17517369Y-22069182D01*
X17556510Y-22046584D01*
X17627116Y-22005820D01*
X17738920Y-21894016D01*
X17738920Y-21894014D01*
X17749124Y-21883811D01*
X17749128Y-21883806D01*
X21910006Y-17722928D01*
X21910011Y-17722924D01*
X21920214Y-17712720D01*
X21920216Y-17712720D01*
X22032020Y-17600916D01*
X22103733Y-17476705D01*
X22111077Y-17463985D01*
X22152000Y-17311258D01*
X22152000Y-17153143D01*
X22152000Y-16922260D01*
X22152001Y-16922247D01*
X22152001Y-16754144D01*
X22118725Y-16629958D01*
X22111077Y-16601416D01*
X22056695Y-16507222D01*
X22032024Y-16464490D01*
X22032018Y-16464482D01*
X20659590Y-15092055D01*
X20659588Y-15092052D01*
X20540717Y-14973181D01*
X20540716Y-14973180D01*
X20453904Y-14923060D01*
X20453904Y-14923059D01*
X20453900Y-14923058D01*
X20403785Y-14894123D01*
X20251057Y-14853199D01*
X20140472Y-14853199D01*
X20073433Y-14833514D01*
X20027678Y-14780710D01*
X20017734Y-14711552D01*
X20037370Y-14660309D01*
X20069577Y-14612106D01*
X20069578Y-14612102D01*
X20069584Y-14612095D01*
X20126158Y-14475513D01*
X20136501Y-14423517D01*
X20155000Y-14330520D01*
X20155000Y-14182679D01*
X20126159Y-14037692D01*
X20126158Y-14037691D01*
X20126158Y-14037687D01*
X20126156Y-14037682D01*
X20069587Y-13901111D01*
X20069580Y-13901098D01*
X19987451Y-13778184D01*
X19987448Y-13778180D01*
X19882919Y-13673651D01*
X19882915Y-13673648D01*
X19754930Y-13588131D01*
X19756126Y-13586340D01*
X19713223Y-13544185D01*
X19697771Y-13476046D01*
X19706965Y-13436356D01*
X19736558Y-13364913D01*
X19753813Y-13278168D01*
X19765400Y-13219920D01*
X19765400Y-13072079D01*
X19736559Y-12927092D01*
X19736558Y-12927091D01*
X19736558Y-12927087D01*
X19697668Y-12833197D01*
X19679987Y-12790511D01*
X19679980Y-12790498D01*
X19597851Y-12667584D01*
X19597848Y-12667580D01*
X19493319Y-12563051D01*
X19493315Y-12563048D01*
X19370401Y-12480919D01*
X19370388Y-12480912D01*
X19233817Y-12424343D01*
X19233807Y-12424340D01*
X19088820Y-12395500D01*
X19088818Y-12395500D01*
X18940982Y-12395500D01*
X18940980Y-12395500D01*
X18795992Y-12424340D01*
X18795982Y-12424343D01*
X18659411Y-12480912D01*
X18659398Y-12480919D01*
X18536484Y-12563048D01*
X18536480Y-12563051D01*
X18431951Y-12667580D01*
X18431948Y-12667584D01*
X18349819Y-12790498D01*
X18349812Y-12790511D01*
X18293242Y-12927084D01*
X18293240Y-12927092D01*
X18277900Y-13004210D01*
X18245515Y-13066121D01*
X18243964Y-13067699D01*
X18066981Y-13244683D01*
X18005658Y-13278168D01*
X17935967Y-13273184D01*
X17880033Y-13231313D01*
X17855616Y-13165848D01*
X17855300Y-13157002D01*
X17855300Y-11271144D01*
X17855300Y-11271143D01*
X17844256Y-11229927D01*
X17814377Y-11118415D01*
X17775150Y-11050473D01*
X17735320Y-10981484D01*
X17623516Y-10869680D01*
X17623515Y-10869679D01*
X17619185Y-10865349D01*
X17619174Y-10865339D01*
X14520916Y-7767081D01*
X14487431Y-7705758D01*
X14492415Y-7636066D01*
X14534287Y-7580133D01*
X14599751Y-7555716D01*
X14608597Y-7555400D01*
X18221431Y-7555400D01*
X18221447Y-7555401D01*
X18229043Y-7555401D01*
X18387154Y-7555401D01*
X18387157Y-7555401D01*
X18539885Y-7514477D01*
X18590004Y-7485539D01*
X18676816Y-7435420D01*
X18788620Y-7323616D01*
X18788620Y-7323614D01*
X18798828Y-7313407D01*
X18798830Y-7313404D01*
X19990506Y-6121728D01*
X19990511Y-6121724D01*
X20000714Y-6111520D01*
X20000716Y-6111520D01*
X20064200Y-6048036D01*
X20125523Y-6014551D01*
X20195215Y-6019535D01*
X20239562Y-6048036D01*
X20345354Y-6153828D01*
X20504595Y-6269524D01*
X20579214Y-6307544D01*
X20679970Y-6358882D01*
X20679972Y-6358882D01*
X20679975Y-6358884D01*
X20769329Y-6387917D01*
X20867173Y-6419709D01*
X21061578Y-6450500D01*
X21061583Y-6450500D01*
X21258422Y-6450500D01*
X21452826Y-6419709D01*
X21532574Y-6393797D01*
X21640025Y-6358884D01*
X21815405Y-6269524D01*
X21974646Y-6153828D01*
X22113828Y-6014646D01*
X22229524Y-5855405D01*
X22318884Y-5680025D01*
X22379709Y-5492826D01*
X22396683Y-5385655D01*
X22410500Y-5298422D01*
X22410500Y-5101577D01*
X22379709Y-4907173D01*
X22351487Y-4820317D01*
X22318884Y-4719975D01*
X22318882Y-4719972D01*
X22318882Y-4719970D01*
X22248218Y-4581285D01*
X22229524Y-4544595D01*
X22113828Y-4385354D01*
X21974646Y-4246172D01*
X21815405Y-4130476D01*
X21640029Y-4041117D01*
X21452826Y-3980290D01*
X21258422Y-3949500D01*
X21258417Y-3949500D01*
X21061583Y-3949500D01*
X21061577Y-3949500D01*
X20862544Y-3981023D01*
X20793251Y-3972068D01*
X20755466Y-3946231D01*
X20228990Y-3419755D01*
X20228988Y-3419752D01*
X20110117Y-3300881D01*
X20110116Y-3300880D01*
X20023304Y-3250760D01*
X20023304Y-3250759D01*
X20023300Y-3250758D01*
X19973185Y-3221823D01*
X19820457Y-3180899D01*
X19662343Y-3180899D01*
X19654747Y-3180899D01*
X19654731Y-3180900D01*
X8465470Y-3180900D01*
X8465454Y-3180899D01*
X8457858Y-3180899D01*
X8299743Y-3180899D01*
X8223379Y-3201361D01*
X8147014Y-3221823D01*
X8147009Y-3221826D01*
X8010090Y-3300875D01*
X8010082Y-3300881D01*
X6987400Y-4323564D01*
X6926077Y-4357049D01*
X6856385Y-4352065D01*
X6812038Y-4323564D01*
X6734648Y-4246174D01*
X6734646Y-4246172D01*
X6575405Y-4130476D01*
X6400029Y-4041117D01*
X6212826Y-3980290D01*
X6018422Y-3949500D01*
X6018417Y-3949500D01*
X5821583Y-3949500D01*
X5821578Y-3949500D01*
X5627173Y-3980290D01*
X5439970Y-4041117D01*
X5264594Y-4130476D01*
X5173741Y-4196485D01*
X5105354Y-4246172D01*
X5105352Y-4246174D01*
X5105351Y-4246174D01*
X4966173Y-4385352D01*
X4854817Y-4538620D01*
X4799486Y-4581285D01*
X4729873Y-4587264D01*
X4668078Y-4554658D01*
X4633721Y-4493819D01*
X4630499Y-4465734D01*
X4630499Y-4402129D01*
X4630498Y-4402123D01*
X4630497Y-4402116D01*
X4624091Y-4342517D01*
X4588157Y-4246174D01*
X4573797Y-4207671D01*
X4573793Y-4207664D01*
X4487547Y-4092455D01*
X4487544Y-4092452D01*
X4372335Y-4006206D01*
X4372328Y-4006202D01*
X4237482Y-3955908D01*
X4237483Y-3955908D01*
X4177883Y-3949501D01*
X4177881Y-3949500D01*
X4177873Y-3949500D01*
X4177864Y-3949500D01*
X2582129Y-3949500D01*
X2582123Y-3949501D01*
X2522516Y-3955908D01*
X2387671Y-4006202D01*
X2387664Y-4006206D01*
X2272455Y-4092452D01*
X2272452Y-4092455D01*
X2186206Y-4207664D01*
X2186202Y-4207671D01*
X2135908Y-4342517D01*
X2131303Y-4385354D01*
X2129501Y-4402123D01*
X2129500Y-4402135D01*
X2129500Y-5997870D01*
X2129501Y-5997876D01*
X2135908Y-6057483D01*
X2186202Y-6192328D01*
X2186206Y-6192335D01*
X2272452Y-6307544D01*
X2272455Y-6307547D01*
X2387664Y-6393793D01*
X2387671Y-6393797D01*
X2522517Y-6444091D01*
X2522516Y-6444091D01*
X2529444Y-6444835D01*
X2582127Y-6450500D01*
X4177872Y-6450499D01*
X4237483Y-6444091D01*
X4372331Y-6393796D01*
X4487546Y-6307546D01*
X4573796Y-6192331D01*
X4624091Y-6057483D01*
X4630500Y-5997873D01*
X4630499Y-5934265D01*
X4650183Y-5867229D01*
X4702986Y-5821473D01*
X4772144Y-5811529D01*
X4835700Y-5840553D01*
X4854816Y-5861381D01*
X4953980Y-5997865D01*
X4966172Y-6014646D01*
X5105354Y-6153828D01*
X5264595Y-6269524D01*
X5264597Y-6269525D01*
X5269691Y-6272121D01*
X5320486Y-6320096D01*
X5337281Y-6387917D01*
X5314743Y-6454051D01*
X5301076Y-6470286D01*
X2133786Y-9637578D01*
X2021981Y-9749382D01*
X2021979Y-9749385D01*
X1999926Y-9787582D01*
X1977873Y-9825780D01*
X1942923Y-9886315D01*
X1901999Y-10039043D01*
X1901999Y-10039045D01*
X1901999Y-10207146D01*
X1902000Y-10207159D01*
X1902000Y-18044830D01*
X1901999Y-18044848D01*
X1901999Y-18210554D01*
X1901998Y-18210554D01*
X1901999Y-18210557D01*
X1942923Y-18363285D01*
X1967403Y-18405685D01*
X1977189Y-18422635D01*
X2021979Y-18500214D01*
X2021981Y-18500217D01*
X2140849Y-18619085D01*
X2140855Y-18619090D01*
X3433381Y-19911616D01*
X3466866Y-19972939D01*
X3469700Y-19999297D01*
X3469700Y-21112230D01*
X3469699Y-21112248D01*
X3469699Y-21277954D01*
X3469698Y-21277954D01*
X3473868Y-21293514D01*
X3510623Y-21430685D01*
X3515647Y-21439386D01*
X3515648Y-21439387D01*
X3515649Y-21439390D01*
X3589677Y-21567612D01*
X3589681Y-21567617D01*
X3708549Y-21686485D01*
X3708555Y-21686490D01*
X4636099Y-22614034D01*
X4669584Y-22675357D01*
X4664600Y-22745049D01*
X4658903Y-22758010D01*
X4606957Y-22859957D01*
X4606956Y-22859960D01*
X4552214Y-23028443D01*
X4524500Y-23203421D01*
X4524500Y-23380578D01*
X4552214Y-23555556D01*
X4606956Y-23724039D01*
X4606957Y-23724042D01*
X4669495Y-23846777D01*
X4687386Y-23881890D01*
X4791517Y-24025214D01*
X4916786Y-24150483D01*
X5060110Y-24254614D01*
X5091443Y-24270579D01*
X5217957Y-24335042D01*
X5217960Y-24335043D01*
X5302201Y-24362414D01*
X5386445Y-24389786D01*
X5561421Y-24417500D01*
X5561422Y-24417500D01*
X5738578Y-24417500D01*
X5738579Y-24417500D01*
X5913555Y-24389786D01*
X6082042Y-24335042D01*
X6239890Y-24254614D01*
X6383214Y-24150483D01*
X6508483Y-24025214D01*
X6508483Y-24025213D01*
X6511928Y-24021769D01*
X6513370Y-24023211D01*
X6564673Y-23989694D01*
X6634541Y-23989170D01*
X6693601Y-24026502D01*
X6723102Y-24089838D01*
X6724500Y-24108406D01*
X6724500Y-24626000D01*
X6704815Y-24693039D01*
X6652011Y-24738794D01*
X6600500Y-24750000D01*
X374000Y-24750000D01*
X306961Y-24730315D01*
X261206Y-24677511D01*
X250000Y-24626000D01*
X250000Y-374000D01*
X269685Y-306961D01*
X322489Y-261206D01*
X374000Y-250000D01*
X22626000Y-250000D01*
X22693039Y-269685D01*
G37*
%TD.AperFunction*%
%TA.AperFunction,Conductor*%
G36*
X19938942Y-16073885D02*
G01*
X19959583Y-16090518D01*
X20814084Y-16945020D01*
X20847568Y-17006341D01*
X20842584Y-17076033D01*
X20814083Y-17120380D01*
X17045984Y-20888481D01*
X16984661Y-20921966D01*
X16958303Y-20924800D01*
X16270943Y-20924800D01*
X16118216Y-20965723D01*
X16118209Y-20965726D01*
X15981290Y-21044775D01*
X15981282Y-21044781D01*
X15869481Y-21156582D01*
X15869475Y-21156590D01*
X15790426Y-21293509D01*
X15790423Y-21293514D01*
X15760582Y-21404885D01*
X15724217Y-21464545D01*
X15713693Y-21473108D01*
X15616792Y-21543512D01*
X15616783Y-21543519D01*
X15488072Y-21672231D01*
X15486638Y-21670797D01*
X15435271Y-21704322D01*
X15365403Y-21704813D01*
X15306360Y-21667453D01*
X15276889Y-21604103D01*
X15275500Y-21585593D01*
X15275500Y-19658406D01*
X15295185Y-19591367D01*
X15347989Y-19545612D01*
X15417147Y-19535668D01*
X15480703Y-19564693D01*
X15487898Y-19571942D01*
X15488072Y-19571769D01*
X15491517Y-19575214D01*
X15616786Y-19700483D01*
X15760110Y-19804614D01*
X15804084Y-19827020D01*
X15917957Y-19885042D01*
X15917960Y-19885043D01*
X15999745Y-19911616D01*
X16086445Y-19939786D01*
X16261421Y-19967500D01*
X16261422Y-19967500D01*
X16438578Y-19967500D01*
X16438579Y-19967500D01*
X16613555Y-19939786D01*
X16782042Y-19885042D01*
X16939890Y-19804614D01*
X17083214Y-19700483D01*
X17208483Y-19575214D01*
X17312614Y-19431890D01*
X17393042Y-19274042D01*
X17447786Y-19105555D01*
X17475500Y-18930579D01*
X17475500Y-18753421D01*
X17447786Y-18578445D01*
X17393042Y-18409958D01*
X17366410Y-18357691D01*
X17353515Y-18289025D01*
X17379791Y-18224285D01*
X17389206Y-18213727D01*
X17730806Y-17872128D01*
X17730811Y-17872124D01*
X17741014Y-17861920D01*
X17741016Y-17861920D01*
X17852820Y-17750116D01*
X17919353Y-17634877D01*
X17931877Y-17613185D01*
X17972800Y-17460458D01*
X17972800Y-17302343D01*
X17972800Y-16588896D01*
X17992485Y-16521857D01*
X18009115Y-16501219D01*
X18400605Y-16109728D01*
X18461926Y-16076245D01*
X18531617Y-16081229D01*
X18557175Y-16094309D01*
X18593798Y-16118780D01*
X18593811Y-16118787D01*
X18722280Y-16172000D01*
X18730387Y-16175358D01*
X18730391Y-16175358D01*
X18730392Y-16175359D01*
X18875379Y-16204200D01*
X18875382Y-16204200D01*
X19023220Y-16204200D01*
X19120762Y-16184796D01*
X19168213Y-16175358D01*
X19304795Y-16118784D01*
X19370176Y-16075098D01*
X19436853Y-16054220D01*
X19439067Y-16054200D01*
X19871903Y-16054200D01*
X19938942Y-16073885D01*
G37*
%TD.AperFunction*%
%TA.AperFunction,Conductor*%
G36*
X9878063Y-4401585D02*
G01*
X9923818Y-4454389D01*
X9933762Y-4523547D01*
X9921509Y-4562191D01*
X9911782Y-4581285D01*
X9841117Y-4719970D01*
X9780290Y-4907173D01*
X9749500Y-5101577D01*
X9749500Y-5298422D01*
X9780290Y-5492826D01*
X9841117Y-5680029D01*
X9900669Y-5796905D01*
X9913565Y-5865575D01*
X9887289Y-5930315D01*
X9830182Y-5970572D01*
X9790184Y-5977200D01*
X7791998Y-5977200D01*
X7724959Y-5957515D01*
X7679204Y-5904711D01*
X7669260Y-5835553D01*
X7698285Y-5771997D01*
X7704317Y-5765519D01*
X7794520Y-5675316D01*
X7873577Y-5538384D01*
X7914501Y-5385657D01*
X7914501Y-5227542D01*
X7914501Y-5219947D01*
X7914500Y-5219929D01*
X7914500Y-5146297D01*
X7934185Y-5079258D01*
X7950819Y-5058616D01*
X8591217Y-4418219D01*
X8652540Y-4384734D01*
X8678898Y-4381900D01*
X9811024Y-4381900D01*
X9878063Y-4401585D01*
G37*
%TD.AperFunction*%
%TA.AperFunction,Conductor*%
G36*
X14958063Y-4401585D02*
G01*
X15003818Y-4454389D01*
X15013762Y-4523547D01*
X15001509Y-4562191D01*
X14991782Y-4581285D01*
X14921117Y-4719970D01*
X14860290Y-4907173D01*
X14829500Y-5101577D01*
X14829500Y-5298422D01*
X14860290Y-5492826D01*
X14921117Y-5680029D01*
X14980669Y-5796905D01*
X14993565Y-5865575D01*
X14967289Y-5930315D01*
X14910182Y-5970572D01*
X14870184Y-5977200D01*
X12209816Y-5977200D01*
X12142777Y-5957515D01*
X12097022Y-5904711D01*
X12087078Y-5835553D01*
X12099331Y-5796905D01*
X12158882Y-5680029D01*
X12158882Y-5680028D01*
X12158884Y-5680025D01*
X12219709Y-5492826D01*
X12236683Y-5385655D01*
X12250500Y-5298422D01*
X12250500Y-5101577D01*
X12219709Y-4907173D01*
X12191487Y-4820317D01*
X12158884Y-4719975D01*
X12158882Y-4719972D01*
X12158882Y-4719970D01*
X12120197Y-4644047D01*
X12078490Y-4562193D01*
X12065595Y-4493526D01*
X12091871Y-4428785D01*
X12148978Y-4388528D01*
X12188976Y-4381900D01*
X14891024Y-4381900D01*
X14958063Y-4401585D01*
G37*
%TD.AperFunction*%
%TD*%
M02*
