M48
; DRILL file KiCad 10.0.6 date 2026-09-06T17:44:02
; FORMAT={-:-/ absolute / metric / decimal}
; #@! TF.CreationDate,2026-09-06T17:44:02-07:00
; #@! TF.GenerationSoftware,Kicad,Pcbnew,10.0.6
; #@! TF.FileFunction,Plated,1,2,PTH
FMAT,2
METRIC
; #@! TA.AperFunction,Plated,PTH,ViaDrill
T1C0.300
; #@! TA.AperFunction,Plated,PTH,ComponentDrill
T2C0.800
; #@! TA.AperFunction,Plated,PTH,ComponentDrill
T3C0.900
%
G90
G05
T1
X6.726Y-11.549
X7.038Y-27.0
X8.277Y-12.174
X12.837Y-25.661
X13.927Y-24.88
X25.262Y-27.0
X27.5Y-18.35
X29.756Y-29.919
X30.5Y-24.259
T2
X11.92Y-3.11
X11.92Y-5.65
X11.92Y-8.19
X11.92Y-10.73
X11.92Y-13.27
X11.92Y-15.81
X11.92Y-18.35
X11.92Y-20.89
X22.08Y-3.11
X22.08Y-5.65
X22.08Y-8.19
X22.08Y-10.73
X22.08Y-13.27
X22.08Y-15.81
X22.08Y-18.35
X22.08Y-20.89
T3
X8.11Y-37.5
X10.65Y-37.5
X13.19Y-37.5
X15.73Y-37.5
X18.27Y-37.5
X20.81Y-37.5
X23.35Y-37.5
X25.89Y-37.5
M30
