%TF.GenerationSoftware,KiCad,Pcbnew,10.0.6*%
%TF.CreationDate,2026-09-06T17:44:02-07:00*%
%TF.ProjectId,pmw3610_daughterboard,706d7733-3631-4305-9f64-617567687465,rev?*%
%TF.SameCoordinates,Original*%
%TF.FileFunction,Copper,L2,Bot*%
%TF.FilePolarity,Positive*%
%FSLAX46Y46*%
G04 Gerber Fmt 4.6, Leading zero omitted, Abs format (unit mm)*
G04 Created by KiCad (PCBNEW 10.0.6) date 2026-09-06 17:44:02*
%MOMM*%
%LPD*%
G01*
G04 APERTURE LIST*
%TA.AperFunction,ComponentPad*%
%ADD10R,1.500000X1.500000*%
%TD*%
%TA.AperFunction,ComponentPad*%
%ADD11C,1.500000*%
%TD*%
%TA.AperFunction,ViaPad*%
%ADD12C,0.600000*%
%TD*%
%TA.AperFunction,Conductor*%
%ADD13C,0.250000*%
%TD*%
G04 APERTURE END LIST*
D10*
%TO.P,U1,1*%
%TO.N,N/C*%
X11920000Y-3110000D03*
D11*
%TO.P,U1,2*%
%TO.N,SDIO*%
X11920000Y-5650000D03*
%TO.P,U1,3*%
%TO.N,SCLK*%
X11920000Y-8190000D03*
%TO.P,U1,4*%
%TO.N,N/C*%
X11920000Y-10730000D03*
%TO.P,U1,5*%
%TO.N,NCS*%
X11920000Y-13270000D03*
%TO.P,U1,6*%
%TO.N,+3V3*%
X11920000Y-15810000D03*
%TO.P,U1,7*%
%TO.N,NRESET*%
X11920000Y-18350000D03*
%TO.P,U1,8*%
%TO.N,MOTION*%
X11920000Y-20890000D03*
%TO.P,U1,9*%
%TO.N,VCP*%
X22080000Y-20890000D03*
%TO.P,U1,10*%
%TO.N,PASST*%
X22080000Y-18350000D03*
%TO.P,U1,11*%
%TO.N,GND*%
X22080000Y-15810000D03*
%TO.P,U1,12*%
%TO.N,CP*%
X22080000Y-13270000D03*
%TO.P,U1,13*%
%TO.N,CN*%
X22080000Y-10730000D03*
%TO.P,U1,14*%
%TO.N,+1V8*%
X22080000Y-8190000D03*
%TO.P,U1,15*%
%TO.N,N/C*%
X22080000Y-5650000D03*
%TO.P,U1,16*%
X22080000Y-3110000D03*
%TD*%
D10*
%TO.P,J1,1*%
%TO.N,+3V3*%
X8110000Y-37500000D03*
D11*
%TO.P,J1,2*%
%TO.N,GND*%
X10650000Y-37500000D03*
%TO.P,J1,3*%
%TO.N,SCLK*%
X13190000Y-37500000D03*
%TO.P,J1,4*%
%TO.N,SDIO*%
X15730000Y-37500000D03*
%TO.P,J1,5*%
%TO.N,NCS*%
X18270000Y-37500000D03*
%TO.P,J1,6*%
%TO.N,MOTION*%
X20810000Y-37500000D03*
%TO.P,J1,7*%
%TO.N,GND*%
X23350000Y-37500000D03*
%TO.P,J1,8*%
%TO.N,N/C*%
X25890000Y-37500000D03*
%TD*%
D12*
%TO.N,VCP*%
X6726300Y-11548700D03*
%TO.N,GND*%
X8276900Y-12174000D03*
%TO.N,+3V3*%
X7037800Y-27000000D03*
X25262500Y-27000000D03*
%TO.N,MOTION*%
X29756400Y-29918600D03*
%TO.N,SDIO*%
X13926700Y-24880300D03*
%TO.N,SCLK*%
X12836600Y-25661000D03*
%TO.N,NRESET*%
X30500000Y-24258800D03*
%TO.N,PASST*%
X27500000Y-18350000D03*
%TD*%
%TO.N,VCP*%
D13*
X15730000Y-14540000D02*
X9717600Y-14540000D01*
X22080000Y-20890000D02*
X15730000Y-14540000D01*
X9717600Y-14540000D02*
X6726300Y-11548700D01*
%TO.N,GND*%
X11729900Y-38579900D02*
X10650000Y-37500000D01*
X23350000Y-37500000D02*
X22270100Y-38579900D01*
X22270100Y-38579900D02*
X11729900Y-38579900D01*
X22080000Y-15810000D02*
X18444000Y-12174000D01*
X18444000Y-12174000D02*
X8276900Y-12174000D01*
%TO.N,+3V3*%
X11920000Y-15810000D02*
X10820900Y-16909100D01*
X12678500Y-19426700D02*
X20251800Y-27000000D01*
X7037800Y-23790900D02*
X7037800Y-27000000D01*
X10820900Y-18845600D02*
X11402000Y-19426700D01*
X20251800Y-27000000D02*
X25262500Y-27000000D01*
X11402000Y-19426700D02*
X7037800Y-23790900D01*
X11402000Y-19426700D02*
X12678500Y-19426700D01*
X10820900Y-16909100D02*
X10820900Y-18845600D01*
%TO.N,MOTION*%
X20810000Y-37500000D02*
X21158800Y-37151200D01*
X21158800Y-30128800D02*
X29546200Y-30128800D01*
X11920000Y-20890000D02*
X21158800Y-30128800D01*
X29546200Y-30128800D02*
X29756400Y-29918600D01*
X21158800Y-37151200D02*
X21158800Y-30128800D01*
%TO.N,SDIO*%
X15730000Y-37500000D02*
X15730000Y-26683600D01*
X15730000Y-26683600D02*
X13926700Y-24880300D01*
%TO.N,SCLK*%
X13190000Y-37500000D02*
X12836600Y-37146600D01*
X12836600Y-37146600D02*
X12836600Y-25661000D01*
%TO.N,NRESET*%
X12505300Y-18350000D02*
X11920000Y-18350000D01*
X30500000Y-24258800D02*
X18414100Y-24258800D01*
X18414100Y-24258800D02*
X12505300Y-18350000D01*
%TO.N,PASST*%
X22080000Y-18350000D02*
X27500000Y-18350000D01*
%TD*%
M02*
