%TF.GenerationSoftware,KiCad,Pcbnew,10.0.6*%
%TF.CreationDate,2026-09-06T17:44:02-07:00*%
%TF.ProjectId,pmw3610_daughterboard,706d7733-3631-4305-9f64-617567687465,rev?*%
%TF.SameCoordinates,Original*%
%TF.FileFunction,Drillmap*%
%TF.FilePolarity,Positive*%
%FSLAX45Y45*%
G04 Gerber Fmt 4.5, Leading zero omitted, Abs format (unit mm)*
G04 Created by KiCad (PCBNEW 10.0.6) date 2026-09-06 17:44:02*
%MOMM*%
%LPD*%
G01*
G04 APERTURE LIST*
%ADD10C,0.100000*%
%ADD11C,0.200000*%
G04 APERTURE END LIST*
D10*
X0Y0D02*
X3400000Y0D01*
X0Y-4000000D02*
X0Y0D01*
X3400000Y0D02*
X3400000Y-4000000D01*
X3400000Y-4000000D02*
X0Y-4000000D01*
D11*
X255777Y-4316484D02*
X255777Y-4116484D01*
X255777Y-4116484D02*
X303396Y-4116484D01*
X303396Y-4116484D02*
X331967Y-4126008D01*
X331967Y-4126008D02*
X351015Y-4145055D01*
X351015Y-4145055D02*
X360539Y-4164103D01*
X360539Y-4164103D02*
X370062Y-4202198D01*
X370062Y-4202198D02*
X370062Y-4230770D01*
X370062Y-4230770D02*
X360539Y-4268865D01*
X360539Y-4268865D02*
X351015Y-4287912D01*
X351015Y-4287912D02*
X331967Y-4306960D01*
X331967Y-4306960D02*
X303396Y-4316484D01*
X303396Y-4316484D02*
X255777Y-4316484D01*
X455777Y-4316484D02*
X455777Y-4183150D01*
X455777Y-4221246D02*
X465301Y-4202198D01*
X465301Y-4202198D02*
X474824Y-4192674D01*
X474824Y-4192674D02*
X493872Y-4183150D01*
X493872Y-4183150D02*
X512920Y-4183150D01*
X579586Y-4316484D02*
X579586Y-4183150D01*
X579586Y-4116484D02*
X570063Y-4126008D01*
X570063Y-4126008D02*
X579586Y-4135531D01*
X579586Y-4135531D02*
X589110Y-4126008D01*
X589110Y-4126008D02*
X579586Y-4116484D01*
X579586Y-4116484D02*
X579586Y-4135531D01*
X703396Y-4316484D02*
X684348Y-4306960D01*
X684348Y-4306960D02*
X674824Y-4287912D01*
X674824Y-4287912D02*
X674824Y-4116484D01*
X808158Y-4316484D02*
X789110Y-4306960D01*
X789110Y-4306960D02*
X779586Y-4287912D01*
X779586Y-4287912D02*
X779586Y-4116484D01*
X1036729Y-4316484D02*
X1036729Y-4116484D01*
X1036729Y-4116484D02*
X1103396Y-4259341D01*
X1103396Y-4259341D02*
X1170063Y-4116484D01*
X1170063Y-4116484D02*
X1170063Y-4316484D01*
X1351015Y-4316484D02*
X1351015Y-4211722D01*
X1351015Y-4211722D02*
X1341491Y-4192674D01*
X1341491Y-4192674D02*
X1322444Y-4183150D01*
X1322444Y-4183150D02*
X1284348Y-4183150D01*
X1284348Y-4183150D02*
X1265301Y-4192674D01*
X1351015Y-4306960D02*
X1331967Y-4316484D01*
X1331967Y-4316484D02*
X1284348Y-4316484D01*
X1284348Y-4316484D02*
X1265301Y-4306960D01*
X1265301Y-4306960D02*
X1255777Y-4287912D01*
X1255777Y-4287912D02*
X1255777Y-4268865D01*
X1255777Y-4268865D02*
X1265301Y-4249817D01*
X1265301Y-4249817D02*
X1284348Y-4240293D01*
X1284348Y-4240293D02*
X1331967Y-4240293D01*
X1331967Y-4240293D02*
X1351015Y-4230770D01*
X1446253Y-4183150D02*
X1446253Y-4383150D01*
X1446253Y-4192674D02*
X1465301Y-4183150D01*
X1465301Y-4183150D02*
X1503396Y-4183150D01*
X1503396Y-4183150D02*
X1522443Y-4192674D01*
X1522443Y-4192674D02*
X1531967Y-4202198D01*
X1531967Y-4202198D02*
X1541491Y-4221246D01*
X1541491Y-4221246D02*
X1541491Y-4278389D01*
X1541491Y-4278389D02*
X1531967Y-4297436D01*
X1531967Y-4297436D02*
X1522443Y-4306960D01*
X1522443Y-4306960D02*
X1503396Y-4316484D01*
X1503396Y-4316484D02*
X1465301Y-4316484D01*
X1465301Y-4316484D02*
X1446253Y-4306960D01*
X1627205Y-4297436D02*
X1636729Y-4306960D01*
X1636729Y-4306960D02*
X1627205Y-4316484D01*
X1627205Y-4316484D02*
X1617682Y-4306960D01*
X1617682Y-4306960D02*
X1627205Y-4297436D01*
X1627205Y-4297436D02*
X1627205Y-4316484D01*
X1627205Y-4192674D02*
X1636729Y-4202198D01*
X1636729Y-4202198D02*
X1627205Y-4211722D01*
X1627205Y-4211722D02*
X1617682Y-4202198D01*
X1617682Y-4202198D02*
X1627205Y-4192674D01*
X1627205Y-4192674D02*
X1627205Y-4211722D01*
M02*
