%TF.GenerationSoftware,KiCad,Pcbnew,10.0.6*%
%TF.CreationDate,2026-09-06T20:56:08-07:00*%
%TF.ProjectId,pmw3610_daughterboard,706d7733-3631-4305-9f64-617567687465,rev?*%
%TF.SameCoordinates,Original*%
%TF.FileFunction,Copper,L2,Bot*%
%TF.FilePolarity,Positive*%
%FSLAX46Y46*%
G04 Gerber Fmt 4.6, Leading zero omitted, Abs format (unit mm)*
G04 Created by KiCad (PCBNEW 10.0.6) date 2026-09-06 20:56:08*
%MOMM*%
%LPD*%
G01*
G04 APERTURE LIST*
G04 Aperture macros list*
%AMRoundRect*
0 Rectangle with rounded corners*
0 $1 Rounding radius*
0 $2 $3 $4 $5 $6 $7 $8 $9 X,Y pos of 4 corners*
0 Add a 4 corners polygon primitive as box body*
4,1,4,$2,$3,$4,$5,$6,$7,$8,$9,$2,$3,0*
0 Add four circle primitives for the rounded corners*
1,1,$1+$1,$2,$3*
1,1,$1+$1,$4,$5*
1,1,$1+$1,$6,$7*
1,1,$1+$1,$8,$9*
0 Add four rect primitives between the rounded corners*
20,1,$1+$1,$2,$3,$4,$5,0*
20,1,$1+$1,$4,$5,$6,$7,0*
20,1,$1+$1,$6,$7,$8,$9,0*
20,1,$1+$1,$8,$9,$2,$3,0*%
G04 Aperture macros list end*
%TA.AperFunction,ComponentPad*%
%ADD10R,1.500000X1.500000*%
%TD*%
%TA.AperFunction,ComponentPad*%
%ADD11C,1.500000*%
%TD*%
%TA.AperFunction,ComponentPad*%
%ADD12RoundRect,0.187500X-0.437500X0.437500X-0.437500X-0.437500X0.437500X-0.437500X0.437500X0.437500X0*%
%TD*%
%TA.AperFunction,ComponentPad*%
%ADD13O,1.250000X1.250000*%
%TD*%
%TA.AperFunction,ViaPad*%
%ADD14C,0.500000*%
%TD*%
%TA.AperFunction,ViaPad*%
%ADD15C,0.550000*%
%TD*%
%TA.AperFunction,Conductor*%
%ADD16C,0.200000*%
%TD*%
G04 APERTURE END LIST*
D10*
%TO.P,J1,1*%
%TO.N,SCLK*%
X3380000Y-5200000D03*
D11*
%TO.P,J1,2*%
%TO.N,SDIO*%
X5920000Y-5200000D03*
%TO.P,J1,3*%
%TO.N,GND*%
X8460000Y-5200000D03*
%TO.P,J1,4*%
%TO.N,VCC*%
X11000000Y-5200000D03*
%TO.P,J1,5*%
%TO.N,GND*%
X13540000Y-5200000D03*
%TO.P,J1,6*%
%TO.N,NCS*%
X16080000Y-5200000D03*
%TO.P,J1,7*%
%TO.N,NRESET*%
X18620000Y-5200000D03*
%TD*%
%TO.P,MOT1,1*%
%TO.N,MOTION*%
X21160000Y-5200000D03*
%TD*%
D12*
%TO.P,U1,1*%
%TO.N,N/C*%
X5650000Y-10832000D03*
D13*
%TO.P,U1,2*%
%TO.N,SDIO*%
X5650000Y-12612000D03*
%TO.P,U1,3*%
%TO.N,SCLK*%
X5650000Y-14392000D03*
%TO.P,U1,4*%
%TO.N,N/C*%
X5650000Y-16172000D03*
%TO.P,U1,5*%
%TO.N,NCS*%
X5650000Y-17952000D03*
%TO.P,U1,6*%
%TO.N,VCC*%
X5650000Y-19732000D03*
%TO.P,U1,7*%
%TO.N,NRESET*%
X5650000Y-21512000D03*
%TO.P,U1,8*%
%TO.N,MOTION*%
X5650000Y-23292000D03*
%TO.P,U1,9*%
%TO.N,VCP*%
X16350000Y-24182000D03*
%TO.P,U1,10*%
%TO.N,PASST*%
X16350000Y-22402000D03*
%TO.P,U1,11*%
%TO.N,GND*%
X16350000Y-20622000D03*
%TO.P,U1,12*%
%TO.N,CP*%
X16350000Y-18842000D03*
%TO.P,U1,13*%
%TO.N,CN*%
X16350000Y-17062000D03*
%TO.P,U1,14*%
%TO.N,+1V8*%
X16350000Y-15282000D03*
%TO.P,U1,15*%
%TO.N,N/C*%
X16350000Y-13502000D03*
%TO.P,U1,16*%
X16350000Y-11722000D03*
%TD*%
D14*
%TO.N,+1V8*%
X7081800Y-9286700D03*
X3795200Y-12654900D03*
D15*
%TO.N,GND*%
X13540000Y-5200000D03*
X16350000Y-20622000D03*
X8460000Y-5200000D03*
D14*
X19417400Y-17426100D03*
X2437200Y-6554800D03*
%TO.N,SCLK*%
X4813900Y-8222000D03*
%TO.N,NRESET*%
X3735200Y-17626400D03*
%TO.N,CP*%
X19051100Y-16140900D03*
%TO.N,CN*%
X18531100Y-14712500D03*
%TO.N,VCP*%
X20300000Y-16854200D03*
%TD*%
%TO.N,+1V8*%
D16*
X3795200Y-11134400D02*
X5642900Y-9286700D01*
X16350000Y-15282000D02*
X16350000Y-14405300D01*
X16350000Y-14405300D02*
X16713400Y-14405300D01*
X16713400Y-14405300D02*
X17226700Y-13892000D01*
X15159600Y-9286700D02*
X7081800Y-9286700D01*
X17226700Y-13892000D02*
X17226700Y-11353800D01*
X5642900Y-9286700D02*
X7081800Y-9286700D01*
X3795200Y-12654900D02*
X3795200Y-11134400D01*
X17226700Y-11353800D02*
X15159600Y-9286700D01*
%TO.N,GND*%
X9482500Y-4177500D02*
X12517500Y-4177500D01*
X8460000Y-5200000D02*
X9482500Y-4177500D01*
X1992900Y-4711300D02*
X2515600Y-4188600D01*
X16350000Y-19745300D02*
X17098200Y-19745300D01*
X1992900Y-6110500D02*
X1992900Y-4711300D01*
X2515600Y-4188600D02*
X7448600Y-4188600D01*
X17098200Y-19745300D02*
X19417400Y-17426100D01*
X2437200Y-6554800D02*
X1992900Y-6110500D01*
X12517500Y-4177500D02*
X13540000Y-5200000D01*
X16350000Y-20622000D02*
X16350000Y-19745300D01*
X7448600Y-4188600D02*
X8460000Y-5200000D01*
%TO.N,SCLK*%
X3380000Y-5200000D02*
X2378300Y-5200000D01*
X4813900Y-8222000D02*
X2645000Y-6053100D01*
X2436700Y-6053100D02*
X2378300Y-5994700D01*
X2378300Y-5994700D02*
X2378300Y-5200000D01*
X2645000Y-6053100D02*
X2436700Y-6053100D01*
%TO.N,NCS*%
X14489800Y-6790200D02*
X16080000Y-5200000D01*
X5211700Y-17075300D02*
X3257900Y-15121500D01*
X3257900Y-15121500D02*
X3257900Y-11137500D01*
X5650000Y-17952000D02*
X5650000Y-17075300D01*
X7605200Y-6790200D02*
X14489800Y-6790200D01*
X5650000Y-17075300D02*
X5211700Y-17075300D01*
X3257900Y-11137500D02*
X7605200Y-6790200D01*
%TO.N,NRESET*%
X5650000Y-21512000D02*
X5650000Y-20635300D01*
X5211600Y-20635300D02*
X3735200Y-19158900D01*
X17223500Y-3803500D02*
X18620000Y-5200000D01*
X1597500Y-4601300D02*
X2395300Y-3803500D01*
X3735200Y-19158900D02*
X3735200Y-17626400D01*
X2395300Y-3803500D02*
X17223500Y-3803500D01*
X1597500Y-15488700D02*
X1597500Y-4601300D01*
X3735200Y-17626400D02*
X1597500Y-15488700D01*
X5650000Y-20635300D02*
X5211600Y-20635300D01*
%TO.N,CP*%
X16350000Y-18842000D02*
X16350000Y-17965300D01*
X16350000Y-17965300D02*
X17226700Y-17965300D01*
X17226700Y-17965300D02*
X19051100Y-16140900D01*
%TO.N,CN*%
X17058300Y-16185300D02*
X18531100Y-14712500D01*
X16350000Y-16185300D02*
X17058300Y-16185300D01*
X16350000Y-17062000D02*
X16350000Y-16185300D01*
%TO.N,MOTION*%
X19385100Y-3425100D02*
X2200800Y-3425100D01*
X1222900Y-18351600D02*
X5286600Y-22415300D01*
X1222900Y-4403000D02*
X1222900Y-18351600D01*
X5286600Y-22415300D02*
X5650000Y-22415300D01*
X2200800Y-3425100D02*
X1222900Y-4403000D01*
X21160000Y-5200000D02*
X19385100Y-3425100D01*
X5650000Y-23292000D02*
X5650000Y-22415300D01*
%TO.N,VCP*%
X16788300Y-23305300D02*
X20300000Y-19793600D01*
X20300000Y-19793600D02*
X20300000Y-16854200D01*
X16350000Y-24182000D02*
X16350000Y-23305300D01*
X16350000Y-23305300D02*
X16788300Y-23305300D01*
%TD*%
%TA.AperFunction,Conductor*%
%TO.N,GND*%
G36*
X19509996Y-16841615D02*
G01*
X19545648Y-16901704D01*
X19548213Y-16922125D01*
X19548903Y-16922058D01*
X19549499Y-16928120D01*
X19578340Y-17073107D01*
X19578343Y-17073117D01*
X19634912Y-17209688D01*
X19634919Y-17209701D01*
X19678602Y-17275076D01*
X19699480Y-17341753D01*
X19699500Y-17343967D01*
X19699500Y-19493502D01*
X19679815Y-19560541D01*
X19663181Y-19581183D01*
X17465620Y-21778743D01*
X17404297Y-21812228D01*
X17334605Y-21807244D01*
X17278672Y-21765372D01*
X17277656Y-21763994D01*
X17208483Y-21668786D01*
X17083214Y-21543517D01*
X16939890Y-21439386D01*
X16782042Y-21358957D01*
X16782039Y-21358956D01*
X16613556Y-21304214D01*
X16526067Y-21290357D01*
X16438579Y-21276500D01*
X16261421Y-21276500D01*
X16203095Y-21285738D01*
X16086443Y-21304214D01*
X15917960Y-21358956D01*
X15917957Y-21358957D01*
X15760109Y-21439386D01*
X15678338Y-21498796D01*
X15616786Y-21543517D01*
X15616784Y-21543519D01*
X15616783Y-21543519D01*
X15488072Y-21672231D01*
X15486638Y-21670797D01*
X15435271Y-21704322D01*
X15365403Y-21704813D01*
X15306360Y-21667453D01*
X15276889Y-21604103D01*
X15275500Y-21585593D01*
X15275500Y-19658406D01*
X15295185Y-19591367D01*
X15347989Y-19545612D01*
X15417147Y-19535668D01*
X15480703Y-19564693D01*
X15487898Y-19571942D01*
X15488072Y-19571769D01*
X15491517Y-19575214D01*
X15616786Y-19700483D01*
X15760110Y-19804614D01*
X15837529Y-19844061D01*
X15917957Y-19885042D01*
X15917960Y-19885043D01*
X16002201Y-19912414D01*
X16086445Y-19939786D01*
X16261421Y-19967500D01*
X16261422Y-19967500D01*
X16438578Y-19967500D01*
X16438579Y-19967500D01*
X16613555Y-19939786D01*
X16782042Y-19885042D01*
X16939890Y-19804614D01*
X17083214Y-19700483D01*
X17208483Y-19575214D01*
X17312614Y-19431890D01*
X17393042Y-19274042D01*
X17447786Y-19105555D01*
X17475500Y-18930579D01*
X17475500Y-18753421D01*
X17454240Y-18619194D01*
X17463194Y-18549903D01*
X17508190Y-18496451D01*
X17514668Y-18492437D01*
X17595416Y-18445820D01*
X17707220Y-18334016D01*
X17707220Y-18334014D01*
X17717428Y-18323807D01*
X17717430Y-18323804D01*
X19129401Y-16911832D01*
X19190722Y-16878349D01*
X19192744Y-16877927D01*
X19270013Y-16862558D01*
X19320574Y-16841615D01*
X19378048Y-16817809D01*
X19447517Y-16810340D01*
X19509996Y-16841615D01*
G37*
%TD.AperFunction*%
%TA.AperFunction,Conductor*%
G36*
X2354083Y-6652646D02*
G01*
X2357643Y-6653600D01*
X2357655Y-6653600D01*
X2360386Y-6653960D01*
X2362532Y-6654909D01*
X2365497Y-6655704D01*
X2365373Y-6656166D01*
X2424283Y-6682226D01*
X2431884Y-6689219D01*
X4042964Y-8300300D01*
X4076449Y-8361623D01*
X4076900Y-8363789D01*
X4092240Y-8440907D01*
X4092242Y-8440915D01*
X4148812Y-8577488D01*
X4148819Y-8577501D01*
X4230948Y-8700415D01*
X4230951Y-8700419D01*
X4335481Y-8804949D01*
X4335484Y-8804951D01*
X4453070Y-8883519D01*
X4497875Y-8937131D01*
X4506582Y-9006455D01*
X4476428Y-9069483D01*
X4471860Y-9074302D01*
X2889186Y-10656978D01*
X2777381Y-10768782D01*
X2777379Y-10768785D01*
X2772010Y-10778085D01*
X2732511Y-10846500D01*
X2698323Y-10905715D01*
X2657399Y-11058443D01*
X2657399Y-11058445D01*
X2657399Y-11226546D01*
X2657400Y-11226559D01*
X2657400Y-15034830D01*
X2657399Y-15034848D01*
X2657399Y-15200554D01*
X2657398Y-15200554D01*
X2670777Y-15250483D01*
X2690833Y-15325334D01*
X2698324Y-15353288D01*
X2703930Y-15362997D01*
X2703932Y-15363000D01*
X2756042Y-15453258D01*
X2772515Y-15521159D01*
X2749662Y-15587185D01*
X2694741Y-15630376D01*
X2625187Y-15637017D01*
X2563085Y-15605001D01*
X2560974Y-15602939D01*
X2234319Y-15276284D01*
X2200834Y-15214961D01*
X2198000Y-15188603D01*
X2198000Y-6772423D01*
X2217685Y-6705384D01*
X2270489Y-6659629D01*
X2339647Y-6649685D01*
X2354083Y-6652646D01*
G37*
%TD.AperFunction*%
%TA.AperFunction,Conductor*%
G36*
X9866802Y-4423685D02*
G01*
X9912557Y-4476489D01*
X9922501Y-4545647D01*
X9910248Y-4584295D01*
X9841117Y-4719970D01*
X9780290Y-4907173D01*
X9749500Y-5101577D01*
X9749500Y-5298422D01*
X9780290Y-5492826D01*
X9841117Y-5680029D01*
X9930475Y-5855403D01*
X9930476Y-5855405D01*
X10030311Y-5992816D01*
X10053791Y-6058620D01*
X10037966Y-6126674D01*
X9987861Y-6175369D01*
X9929993Y-6189700D01*
X7691870Y-6189700D01*
X7691854Y-6189699D01*
X7684258Y-6189699D01*
X7526143Y-6189699D01*
X7449779Y-6210161D01*
X7373414Y-6230623D01*
X7373409Y-6230626D01*
X7236490Y-6309675D01*
X7236482Y-6309681D01*
X5666202Y-7879960D01*
X5604879Y-7913445D01*
X5535187Y-7908461D01*
X5479254Y-7866589D01*
X5475428Y-7861184D01*
X5396851Y-7743584D01*
X5396849Y-7743581D01*
X5292319Y-7639051D01*
X5292315Y-7639048D01*
X5169401Y-7556919D01*
X5169388Y-7556912D01*
X5032815Y-7500342D01*
X5032807Y-7500340D01*
X4955689Y-7485000D01*
X4893778Y-7452615D01*
X4892200Y-7451064D01*
X4102686Y-6661551D01*
X4069201Y-6600228D01*
X4074185Y-6530537D01*
X4116057Y-6474603D01*
X4177115Y-6450580D01*
X4177869Y-6450499D01*
X4177872Y-6450499D01*
X4237483Y-6444091D01*
X4372331Y-6393796D01*
X4487546Y-6307546D01*
X4573796Y-6192331D01*
X4624091Y-6057483D01*
X4630500Y-5997873D01*
X4630499Y-5934265D01*
X4650183Y-5867229D01*
X4702986Y-5821473D01*
X4772144Y-5811529D01*
X4835700Y-5840553D01*
X4854816Y-5861381D01*
X4950310Y-5992814D01*
X4966172Y-6014646D01*
X5105354Y-6153828D01*
X5264595Y-6269524D01*
X5339214Y-6307544D01*
X5439970Y-6358882D01*
X5439972Y-6358882D01*
X5439975Y-6358884D01*
X5540317Y-6391487D01*
X5627173Y-6419709D01*
X5821578Y-6450500D01*
X5821583Y-6450500D01*
X6018422Y-6450500D01*
X6212826Y-6419709D01*
X6215085Y-6418975D01*
X6400025Y-6358884D01*
X6575405Y-6269524D01*
X6734646Y-6153828D01*
X6873828Y-6014646D01*
X6989524Y-5855405D01*
X7078884Y-5680025D01*
X7139709Y-5492826D01*
X7170500Y-5298422D01*
X7170500Y-5101577D01*
X7139709Y-4907173D01*
X7078882Y-4719970D01*
X7009752Y-4584295D01*
X6996856Y-4515625D01*
X7023132Y-4450885D01*
X7080239Y-4410628D01*
X7120237Y-4404000D01*
X9799763Y-4404000D01*
X9866802Y-4423685D01*
G37*
%TD.AperFunction*%
%TA.AperFunction,Conductor*%
G36*
X14946802Y-4423685D02*
G01*
X14992557Y-4476489D01*
X15002501Y-4545647D01*
X14990248Y-4584295D01*
X14921117Y-4719970D01*
X14860290Y-4907173D01*
X14829500Y-5101577D01*
X14829500Y-5298422D01*
X14861023Y-5497453D01*
X14852068Y-5566747D01*
X14826231Y-5604532D01*
X14277384Y-6153381D01*
X14216061Y-6186866D01*
X14189703Y-6189700D01*
X12070007Y-6189700D01*
X12002968Y-6170015D01*
X11957213Y-6117211D01*
X11947269Y-6048053D01*
X11969687Y-5992817D01*
X12069524Y-5855405D01*
X12158884Y-5680025D01*
X12219709Y-5492826D01*
X12250500Y-5298422D01*
X12250500Y-5101577D01*
X12219709Y-4907173D01*
X12158882Y-4719970D01*
X12089752Y-4584295D01*
X12076856Y-4515625D01*
X12103132Y-4450885D01*
X12160239Y-4410628D01*
X12200237Y-4404000D01*
X14879763Y-4404000D01*
X14946802Y-4423685D01*
G37*
%TD.AperFunction*%
%TD*%
M02*
