%TF.GenerationSoftware,KiCad,Pcbnew,10.0.6*%
%TF.CreationDate,2026-09-06T20:14:15-07:00*%
%TF.ProjectId,pmw3610_daughterboard,706d7733-3631-4305-9f64-617567687465,rev?*%
%TF.SameCoordinates,Original*%
%TF.FileFunction,Legend,Top*%
%TF.FilePolarity,Positive*%
%FSLAX46Y46*%
G04 Gerber Fmt 4.6, Leading zero omitted, Abs format (unit mm)*
G04 Created by KiCad (PCBNEW 10.0.6) date 2026-09-06 20:14:15*
%MOMM*%
%LPD*%
G01*
G04 APERTURE LIST*
G04 Aperture macros list*
%AMRoundRect*
0 Rectangle with rounded corners*
0 $1 Rounding radius*
0 $2 $3 $4 $5 $6 $7 $8 $9 X,Y pos of 4 corners*
0 Add a 4 corners polygon primitive as box body*
4,1,4,$2,$3,$4,$5,$6,$7,$8,$9,$2,$3,0*
0 Add four circle primitives for the rounded corners*
1,1,$1+$1,$2,$3*
1,1,$1+$1,$4,$5*
1,1,$1+$1,$6,$7*
1,1,$1+$1,$8,$9*
0 Add four rect primitives between the rounded corners*
20,1,$1+$1,$2,$3,$4,$5,0*
20,1,$1+$1,$4,$5,$6,$7,0*
20,1,$1+$1,$6,$7,$8,$9,0*
20,1,$1+$1,$8,$9,$2,$3,0*%
G04 Aperture macros list end*
%ADD10C,0.150000*%
%ADD11C,0.125000*%
%ADD12C,0.158750*%
%ADD13C,0.120000*%
%ADD14RoundRect,0.225000X0.250000X-0.225000X0.250000X0.225000X-0.250000X0.225000X-0.250000X-0.225000X0*%
%ADD15RoundRect,0.250000X-0.250000X-0.475000X0.250000X-0.475000X0.250000X0.475000X-0.250000X0.475000X0*%
%ADD16RoundRect,0.200000X0.275000X-0.200000X0.275000X0.200000X-0.275000X0.200000X-0.275000X-0.200000X0*%
%ADD17RoundRect,0.187500X-0.437500X0.437500X-0.437500X-0.437500X0.437500X-0.437500X0.437500X0.437500X0*%
%ADD18O,1.250000X1.250000*%
%ADD19R,1.500000X1.500000*%
%ADD20C,1.500000*%
%ADD21RoundRect,0.150000X-0.512500X-0.150000X0.512500X-0.150000X0.512500X0.150000X-0.512500X0.150000X0*%
%ADD22C,0.900000*%
%ADD23RoundRect,0.200000X-0.200000X-0.275000X0.200000X-0.275000X0.200000X0.275000X-0.200000X0.275000X0*%
G04 APERTURE END LIST*
D10*
X19229580Y-8166666D02*
X19277200Y-8214285D01*
X19277200Y-8214285D02*
X19324819Y-8357142D01*
X19324819Y-8357142D02*
X19324819Y-8452380D01*
X19324819Y-8452380D02*
X19277200Y-8595237D01*
X19277200Y-8595237D02*
X19181961Y-8690475D01*
X19181961Y-8690475D02*
X19086723Y-8738094D01*
X19086723Y-8738094D02*
X18896247Y-8785713D01*
X18896247Y-8785713D02*
X18753390Y-8785713D01*
X18753390Y-8785713D02*
X18562914Y-8738094D01*
X18562914Y-8738094D02*
X18467676Y-8690475D01*
X18467676Y-8690475D02*
X18372438Y-8595237D01*
X18372438Y-8595237D02*
X18324819Y-8452380D01*
X18324819Y-8452380D02*
X18324819Y-8357142D01*
X18324819Y-8357142D02*
X18372438Y-8214285D01*
X18372438Y-8214285D02*
X18420057Y-8166666D01*
X18324819Y-7833332D02*
X18324819Y-7214285D01*
X18324819Y-7214285D02*
X18705771Y-7547618D01*
X18705771Y-7547618D02*
X18705771Y-7404761D01*
X18705771Y-7404761D02*
X18753390Y-7309523D01*
X18753390Y-7309523D02*
X18801009Y-7261904D01*
X18801009Y-7261904D02*
X18896247Y-7214285D01*
X18896247Y-7214285D02*
X19134342Y-7214285D01*
X19134342Y-7214285D02*
X19229580Y-7261904D01*
X19229580Y-7261904D02*
X19277200Y-7309523D01*
X19277200Y-7309523D02*
X19324819Y-7404761D01*
X19324819Y-7404761D02*
X19324819Y-7690475D01*
X19324819Y-7690475D02*
X19277200Y-7785713D01*
X19277200Y-7785713D02*
X19229580Y-7833332D01*
X8333333Y-8179580D02*
X8285714Y-8227200D01*
X8285714Y-8227200D02*
X8142857Y-8274819D01*
X8142857Y-8274819D02*
X8047619Y-8274819D01*
X8047619Y-8274819D02*
X7904762Y-8227200D01*
X7904762Y-8227200D02*
X7809524Y-8131961D01*
X7809524Y-8131961D02*
X7761905Y-8036723D01*
X7761905Y-8036723D02*
X7714286Y-7846247D01*
X7714286Y-7846247D02*
X7714286Y-7703390D01*
X7714286Y-7703390D02*
X7761905Y-7512914D01*
X7761905Y-7512914D02*
X7809524Y-7417676D01*
X7809524Y-7417676D02*
X7904762Y-7322438D01*
X7904762Y-7322438D02*
X8047619Y-7274819D01*
X8047619Y-7274819D02*
X8142857Y-7274819D01*
X8142857Y-7274819D02*
X8285714Y-7322438D01*
X8285714Y-7322438D02*
X8333333Y-7370057D01*
X9285714Y-8274819D02*
X8714286Y-8274819D01*
X9000000Y-8274819D02*
X9000000Y-7274819D01*
X9000000Y-7274819D02*
X8904762Y-7417676D01*
X8904762Y-7417676D02*
X8809524Y-7512914D01*
X8809524Y-7512914D02*
X8714286Y-7560533D01*
X13333333Y-8179580D02*
X13285714Y-8227200D01*
X13285714Y-8227200D02*
X13142857Y-8274819D01*
X13142857Y-8274819D02*
X13047619Y-8274819D01*
X13047619Y-8274819D02*
X12904762Y-8227200D01*
X12904762Y-8227200D02*
X12809524Y-8131961D01*
X12809524Y-8131961D02*
X12761905Y-8036723D01*
X12761905Y-8036723D02*
X12714286Y-7846247D01*
X12714286Y-7846247D02*
X12714286Y-7703390D01*
X12714286Y-7703390D02*
X12761905Y-7512914D01*
X12761905Y-7512914D02*
X12809524Y-7417676D01*
X12809524Y-7417676D02*
X12904762Y-7322438D01*
X12904762Y-7322438D02*
X13047619Y-7274819D01*
X13047619Y-7274819D02*
X13142857Y-7274819D01*
X13142857Y-7274819D02*
X13285714Y-7322438D01*
X13285714Y-7322438D02*
X13333333Y-7370057D01*
X14190476Y-7274819D02*
X14000000Y-7274819D01*
X14000000Y-7274819D02*
X13904762Y-7322438D01*
X13904762Y-7322438D02*
X13857143Y-7370057D01*
X13857143Y-7370057D02*
X13761905Y-7512914D01*
X13761905Y-7512914D02*
X13714286Y-7703390D01*
X13714286Y-7703390D02*
X13714286Y-8084342D01*
X13714286Y-8084342D02*
X13761905Y-8179580D01*
X13761905Y-8179580D02*
X13809524Y-8227200D01*
X13809524Y-8227200D02*
X13904762Y-8274819D01*
X13904762Y-8274819D02*
X14095238Y-8274819D01*
X14095238Y-8274819D02*
X14190476Y-8227200D01*
X14190476Y-8227200D02*
X14238095Y-8179580D01*
X14238095Y-8179580D02*
X14285714Y-8084342D01*
X14285714Y-8084342D02*
X14285714Y-7846247D01*
X14285714Y-7846247D02*
X14238095Y-7751009D01*
X14238095Y-7751009D02*
X14190476Y-7703390D01*
X14190476Y-7703390D02*
X14095238Y-7655771D01*
X14095238Y-7655771D02*
X13904762Y-7655771D01*
X13904762Y-7655771D02*
X13809524Y-7703390D01*
X13809524Y-7703390D02*
X13761905Y-7751009D01*
X13761905Y-7751009D02*
X13714286Y-7846247D01*
X1824819Y-15666666D02*
X1348628Y-15999999D01*
X1824819Y-16238094D02*
X824819Y-16238094D01*
X824819Y-16238094D02*
X824819Y-15857142D01*
X824819Y-15857142D02*
X872438Y-15761904D01*
X872438Y-15761904D02*
X920057Y-15714285D01*
X920057Y-15714285D02*
X1015295Y-15666666D01*
X1015295Y-15666666D02*
X1158152Y-15666666D01*
X1158152Y-15666666D02*
X1253390Y-15714285D01*
X1253390Y-15714285D02*
X1301009Y-15761904D01*
X1301009Y-15761904D02*
X1348628Y-15857142D01*
X1348628Y-15857142D02*
X1348628Y-16238094D01*
X1824819Y-14714285D02*
X1824819Y-15285713D01*
X1824819Y-14999999D02*
X824819Y-14999999D01*
X824819Y-14999999D02*
X967676Y-15095237D01*
X967676Y-15095237D02*
X1062914Y-15190475D01*
X1062914Y-15190475D02*
X1110533Y-15285713D01*
X1729580Y-12666666D02*
X1777200Y-12714285D01*
X1777200Y-12714285D02*
X1824819Y-12857142D01*
X1824819Y-12857142D02*
X1824819Y-12952380D01*
X1824819Y-12952380D02*
X1777200Y-13095237D01*
X1777200Y-13095237D02*
X1681961Y-13190475D01*
X1681961Y-13190475D02*
X1586723Y-13238094D01*
X1586723Y-13238094D02*
X1396247Y-13285713D01*
X1396247Y-13285713D02*
X1253390Y-13285713D01*
X1253390Y-13285713D02*
X1062914Y-13238094D01*
X1062914Y-13238094D02*
X967676Y-13190475D01*
X967676Y-13190475D02*
X872438Y-13095237D01*
X872438Y-13095237D02*
X824819Y-12952380D01*
X824819Y-12952380D02*
X824819Y-12857142D01*
X824819Y-12857142D02*
X872438Y-12714285D01*
X872438Y-12714285D02*
X920057Y-12666666D01*
X1158152Y-11809523D02*
X1824819Y-11809523D01*
X777200Y-12047618D02*
X1491485Y-12285713D01*
X1491485Y-12285713D02*
X1491485Y-11666666D01*
X1729580Y-21666666D02*
X1777200Y-21714285D01*
X1777200Y-21714285D02*
X1824819Y-21857142D01*
X1824819Y-21857142D02*
X1824819Y-21952380D01*
X1824819Y-21952380D02*
X1777200Y-22095237D01*
X1777200Y-22095237D02*
X1681961Y-22190475D01*
X1681961Y-22190475D02*
X1586723Y-22238094D01*
X1586723Y-22238094D02*
X1396247Y-22285713D01*
X1396247Y-22285713D02*
X1253390Y-22285713D01*
X1253390Y-22285713D02*
X1062914Y-22238094D01*
X1062914Y-22238094D02*
X967676Y-22190475D01*
X967676Y-22190475D02*
X872438Y-22095237D01*
X872438Y-22095237D02*
X824819Y-21952380D01*
X824819Y-21952380D02*
X824819Y-21857142D01*
X824819Y-21857142D02*
X872438Y-21714285D01*
X872438Y-21714285D02*
X920057Y-21666666D01*
X1253390Y-21095237D02*
X1205771Y-21190475D01*
X1205771Y-21190475D02*
X1158152Y-21238094D01*
X1158152Y-21238094D02*
X1062914Y-21285713D01*
X1062914Y-21285713D02*
X1015295Y-21285713D01*
X1015295Y-21285713D02*
X920057Y-21238094D01*
X920057Y-21238094D02*
X872438Y-21190475D01*
X872438Y-21190475D02*
X824819Y-21095237D01*
X824819Y-21095237D02*
X824819Y-20904761D01*
X824819Y-20904761D02*
X872438Y-20809523D01*
X872438Y-20809523D02*
X920057Y-20761904D01*
X920057Y-20761904D02*
X1015295Y-20714285D01*
X1015295Y-20714285D02*
X1062914Y-20714285D01*
X1062914Y-20714285D02*
X1158152Y-20761904D01*
X1158152Y-20761904D02*
X1205771Y-20809523D01*
X1205771Y-20809523D02*
X1253390Y-20904761D01*
X1253390Y-20904761D02*
X1253390Y-21095237D01*
X1253390Y-21095237D02*
X1301009Y-21190475D01*
X1301009Y-21190475D02*
X1348628Y-21238094D01*
X1348628Y-21238094D02*
X1443866Y-21285713D01*
X1443866Y-21285713D02*
X1634342Y-21285713D01*
X1634342Y-21285713D02*
X1729580Y-21238094D01*
X1729580Y-21238094D02*
X1777200Y-21190475D01*
X1777200Y-21190475D02*
X1824819Y-21095237D01*
X1824819Y-21095237D02*
X1824819Y-20904761D01*
X1824819Y-20904761D02*
X1777200Y-20809523D01*
X1777200Y-20809523D02*
X1729580Y-20761904D01*
X1729580Y-20761904D02*
X1634342Y-20714285D01*
X1634342Y-20714285D02*
X1443866Y-20714285D01*
X1443866Y-20714285D02*
X1348628Y-20761904D01*
X1348628Y-20761904D02*
X1301009Y-20809523D01*
X1301009Y-20809523D02*
X1253390Y-20904761D01*
X10238095Y-26454819D02*
X10238095Y-27264342D01*
X10238095Y-27264342D02*
X10285714Y-27359580D01*
X10285714Y-27359580D02*
X10333333Y-27407200D01*
X10333333Y-27407200D02*
X10428571Y-27454819D01*
X10428571Y-27454819D02*
X10619047Y-27454819D01*
X10619047Y-27454819D02*
X10714285Y-27407200D01*
X10714285Y-27407200D02*
X10761904Y-27359580D01*
X10761904Y-27359580D02*
X10809523Y-27264342D01*
X10809523Y-27264342D02*
X10809523Y-26454819D01*
X11809523Y-27454819D02*
X11238095Y-27454819D01*
X11523809Y-27454819D02*
X11523809Y-26454819D01*
X11523809Y-26454819D02*
X11428571Y-26597676D01*
X11428571Y-26597676D02*
X11333333Y-26692914D01*
X11333333Y-26692914D02*
X11238095Y-26740533D01*
X19229580Y-11666666D02*
X19277200Y-11714285D01*
X19277200Y-11714285D02*
X19324819Y-11857142D01*
X19324819Y-11857142D02*
X19324819Y-11952380D01*
X19324819Y-11952380D02*
X19277200Y-12095237D01*
X19277200Y-12095237D02*
X19181961Y-12190475D01*
X19181961Y-12190475D02*
X19086723Y-12238094D01*
X19086723Y-12238094D02*
X18896247Y-12285713D01*
X18896247Y-12285713D02*
X18753390Y-12285713D01*
X18753390Y-12285713D02*
X18562914Y-12238094D01*
X18562914Y-12238094D02*
X18467676Y-12190475D01*
X18467676Y-12190475D02*
X18372438Y-12095237D01*
X18372438Y-12095237D02*
X18324819Y-11952380D01*
X18324819Y-11952380D02*
X18324819Y-11857142D01*
X18324819Y-11857142D02*
X18372438Y-11714285D01*
X18372438Y-11714285D02*
X18420057Y-11666666D01*
X18324819Y-10761904D02*
X18324819Y-11238094D01*
X18324819Y-11238094D02*
X18801009Y-11285713D01*
X18801009Y-11285713D02*
X18753390Y-11238094D01*
X18753390Y-11238094D02*
X18705771Y-11142856D01*
X18705771Y-11142856D02*
X18705771Y-10904761D01*
X18705771Y-10904761D02*
X18753390Y-10809523D01*
X18753390Y-10809523D02*
X18801009Y-10761904D01*
X18801009Y-10761904D02*
X18896247Y-10714285D01*
X18896247Y-10714285D02*
X19134342Y-10714285D01*
X19134342Y-10714285D02*
X19229580Y-10761904D01*
X19229580Y-10761904D02*
X19277200Y-10809523D01*
X19277200Y-10809523D02*
X19324819Y-10904761D01*
X19324819Y-10904761D02*
X19324819Y-11142856D01*
X19324819Y-11142856D02*
X19277200Y-11238094D01*
X19277200Y-11238094D02*
X19229580Y-11285713D01*
D11*
X10666666Y-1656119D02*
X10666666Y-2370404D01*
X10666666Y-2370404D02*
X10619047Y-2513261D01*
X10619047Y-2513261D02*
X10523809Y-2608500D01*
X10523809Y-2608500D02*
X10380952Y-2656119D01*
X10380952Y-2656119D02*
X10285714Y-2656119D01*
X11666666Y-2656119D02*
X11095238Y-2656119D01*
X11380952Y-2656119D02*
X11380952Y-1656119D01*
X11380952Y-1656119D02*
X11285714Y-1798976D01*
X11285714Y-1798976D02*
X11190476Y-1894214D01*
X11190476Y-1894214D02*
X11095238Y-1941833D01*
X1689524Y-3808500D02*
X1832381Y-3856119D01*
X1832381Y-3856119D02*
X2070476Y-3856119D01*
X2070476Y-3856119D02*
X2165714Y-3808500D01*
X2165714Y-3808500D02*
X2213333Y-3760880D01*
X2213333Y-3760880D02*
X2260952Y-3665642D01*
X2260952Y-3665642D02*
X2260952Y-3570404D01*
X2260952Y-3570404D02*
X2213333Y-3475166D01*
X2213333Y-3475166D02*
X2165714Y-3427547D01*
X2165714Y-3427547D02*
X2070476Y-3379928D01*
X2070476Y-3379928D02*
X1880000Y-3332309D01*
X1880000Y-3332309D02*
X1784762Y-3284690D01*
X1784762Y-3284690D02*
X1737143Y-3237071D01*
X1737143Y-3237071D02*
X1689524Y-3141833D01*
X1689524Y-3141833D02*
X1689524Y-3046595D01*
X1689524Y-3046595D02*
X1737143Y-2951357D01*
X1737143Y-2951357D02*
X1784762Y-2903738D01*
X1784762Y-2903738D02*
X1880000Y-2856119D01*
X1880000Y-2856119D02*
X2118095Y-2856119D01*
X2118095Y-2856119D02*
X2260952Y-2903738D01*
X3260952Y-3760880D02*
X3213333Y-3808500D01*
X3213333Y-3808500D02*
X3070476Y-3856119D01*
X3070476Y-3856119D02*
X2975238Y-3856119D01*
X2975238Y-3856119D02*
X2832381Y-3808500D01*
X2832381Y-3808500D02*
X2737143Y-3713261D01*
X2737143Y-3713261D02*
X2689524Y-3618023D01*
X2689524Y-3618023D02*
X2641905Y-3427547D01*
X2641905Y-3427547D02*
X2641905Y-3284690D01*
X2641905Y-3284690D02*
X2689524Y-3094214D01*
X2689524Y-3094214D02*
X2737143Y-2998976D01*
X2737143Y-2998976D02*
X2832381Y-2903738D01*
X2832381Y-2903738D02*
X2975238Y-2856119D01*
X2975238Y-2856119D02*
X3070476Y-2856119D01*
X3070476Y-2856119D02*
X3213333Y-2903738D01*
X3213333Y-2903738D02*
X3260952Y-2951357D01*
X4165714Y-3856119D02*
X3689524Y-3856119D01*
X3689524Y-3856119D02*
X3689524Y-2856119D01*
X4499048Y-3856119D02*
X4499048Y-2856119D01*
X5070476Y-3856119D02*
X4641905Y-3284690D01*
X5070476Y-2856119D02*
X4499048Y-3427547D01*
X4372381Y-3808500D02*
X4515238Y-3856119D01*
X4515238Y-3856119D02*
X4753333Y-3856119D01*
X4753333Y-3856119D02*
X4848571Y-3808500D01*
X4848571Y-3808500D02*
X4896190Y-3760880D01*
X4896190Y-3760880D02*
X4943809Y-3665642D01*
X4943809Y-3665642D02*
X4943809Y-3570404D01*
X4943809Y-3570404D02*
X4896190Y-3475166D01*
X4896190Y-3475166D02*
X4848571Y-3427547D01*
X4848571Y-3427547D02*
X4753333Y-3379928D01*
X4753333Y-3379928D02*
X4562857Y-3332309D01*
X4562857Y-3332309D02*
X4467619Y-3284690D01*
X4467619Y-3284690D02*
X4420000Y-3237071D01*
X4420000Y-3237071D02*
X4372381Y-3141833D01*
X4372381Y-3141833D02*
X4372381Y-3046595D01*
X4372381Y-3046595D02*
X4420000Y-2951357D01*
X4420000Y-2951357D02*
X4467619Y-2903738D01*
X4467619Y-2903738D02*
X4562857Y-2856119D01*
X4562857Y-2856119D02*
X4800952Y-2856119D01*
X4800952Y-2856119D02*
X4943809Y-2903738D01*
X5372381Y-3856119D02*
X5372381Y-2856119D01*
X5372381Y-2856119D02*
X5610476Y-2856119D01*
X5610476Y-2856119D02*
X5753333Y-2903738D01*
X5753333Y-2903738D02*
X5848571Y-2998976D01*
X5848571Y-2998976D02*
X5896190Y-3094214D01*
X5896190Y-3094214D02*
X5943809Y-3284690D01*
X5943809Y-3284690D02*
X5943809Y-3427547D01*
X5943809Y-3427547D02*
X5896190Y-3618023D01*
X5896190Y-3618023D02*
X5848571Y-3713261D01*
X5848571Y-3713261D02*
X5753333Y-3808500D01*
X5753333Y-3808500D02*
X5610476Y-3856119D01*
X5610476Y-3856119D02*
X5372381Y-3856119D01*
X6372381Y-3856119D02*
X6372381Y-2856119D01*
X7039047Y-2856119D02*
X7229523Y-2856119D01*
X7229523Y-2856119D02*
X7324761Y-2903738D01*
X7324761Y-2903738D02*
X7419999Y-2998976D01*
X7419999Y-2998976D02*
X7467618Y-3189452D01*
X7467618Y-3189452D02*
X7467618Y-3522785D01*
X7467618Y-3522785D02*
X7419999Y-3713261D01*
X7419999Y-3713261D02*
X7324761Y-3808500D01*
X7324761Y-3808500D02*
X7229523Y-3856119D01*
X7229523Y-3856119D02*
X7039047Y-3856119D01*
X7039047Y-3856119D02*
X6943809Y-3808500D01*
X6943809Y-3808500D02*
X6848571Y-3713261D01*
X6848571Y-3713261D02*
X6800952Y-3522785D01*
X6800952Y-3522785D02*
X6800952Y-3189452D01*
X6800952Y-3189452D02*
X6848571Y-2998976D01*
X6848571Y-2998976D02*
X6943809Y-2903738D01*
X6943809Y-2903738D02*
X7039047Y-2856119D01*
X7698095Y-2903738D02*
X7602857Y-2856119D01*
X7602857Y-2856119D02*
X7460000Y-2856119D01*
X7460000Y-2856119D02*
X7317143Y-2903738D01*
X7317143Y-2903738D02*
X7221905Y-2998976D01*
X7221905Y-2998976D02*
X7174286Y-3094214D01*
X7174286Y-3094214D02*
X7126667Y-3284690D01*
X7126667Y-3284690D02*
X7126667Y-3427547D01*
X7126667Y-3427547D02*
X7174286Y-3618023D01*
X7174286Y-3618023D02*
X7221905Y-3713261D01*
X7221905Y-3713261D02*
X7317143Y-3808500D01*
X7317143Y-3808500D02*
X7460000Y-3856119D01*
X7460000Y-3856119D02*
X7555238Y-3856119D01*
X7555238Y-3856119D02*
X7698095Y-3808500D01*
X7698095Y-3808500D02*
X7745714Y-3760880D01*
X7745714Y-3760880D02*
X7745714Y-3427547D01*
X7745714Y-3427547D02*
X7555238Y-3427547D01*
X8174286Y-3856119D02*
X8174286Y-2856119D01*
X8174286Y-2856119D02*
X8745714Y-3856119D01*
X8745714Y-3856119D02*
X8745714Y-2856119D01*
X9221905Y-3856119D02*
X9221905Y-2856119D01*
X9221905Y-2856119D02*
X9460000Y-2856119D01*
X9460000Y-2856119D02*
X9602857Y-2903738D01*
X9602857Y-2903738D02*
X9698095Y-2998976D01*
X9698095Y-2998976D02*
X9745714Y-3094214D01*
X9745714Y-3094214D02*
X9793333Y-3284690D01*
X9793333Y-3284690D02*
X9793333Y-3427547D01*
X9793333Y-3427547D02*
X9745714Y-3618023D01*
X9745714Y-3618023D02*
X9698095Y-3713261D01*
X9698095Y-3713261D02*
X9602857Y-3808500D01*
X9602857Y-3808500D02*
X9460000Y-3856119D01*
X9460000Y-3856119D02*
X9221905Y-3856119D01*
X9666667Y-2856119D02*
X10000000Y-3856119D01*
X10000000Y-3856119D02*
X10333333Y-2856119D01*
X11238095Y-3760880D02*
X11190476Y-3808500D01*
X11190476Y-3808500D02*
X11047619Y-3856119D01*
X11047619Y-3856119D02*
X10952381Y-3856119D01*
X10952381Y-3856119D02*
X10809524Y-3808500D01*
X10809524Y-3808500D02*
X10714286Y-3713261D01*
X10714286Y-3713261D02*
X10666667Y-3618023D01*
X10666667Y-3618023D02*
X10619048Y-3427547D01*
X10619048Y-3427547D02*
X10619048Y-3284690D01*
X10619048Y-3284690D02*
X10666667Y-3094214D01*
X10666667Y-3094214D02*
X10714286Y-2998976D01*
X10714286Y-2998976D02*
X10809524Y-2903738D01*
X10809524Y-2903738D02*
X10952381Y-2856119D01*
X10952381Y-2856119D02*
X11047619Y-2856119D01*
X11047619Y-2856119D02*
X11190476Y-2903738D01*
X11190476Y-2903738D02*
X11238095Y-2951357D01*
X12238095Y-3760880D02*
X12190476Y-3808500D01*
X12190476Y-3808500D02*
X12047619Y-3856119D01*
X12047619Y-3856119D02*
X11952381Y-3856119D01*
X11952381Y-3856119D02*
X11809524Y-3808500D01*
X11809524Y-3808500D02*
X11714286Y-3713261D01*
X11714286Y-3713261D02*
X11666667Y-3618023D01*
X11666667Y-3618023D02*
X11619048Y-3427547D01*
X11619048Y-3427547D02*
X11619048Y-3284690D01*
X11619048Y-3284690D02*
X11666667Y-3094214D01*
X11666667Y-3094214D02*
X11714286Y-2998976D01*
X11714286Y-2998976D02*
X11809524Y-2903738D01*
X11809524Y-2903738D02*
X11952381Y-2856119D01*
X11952381Y-2856119D02*
X12047619Y-2856119D01*
X12047619Y-2856119D02*
X12190476Y-2903738D01*
X12190476Y-2903738D02*
X12238095Y-2951357D01*
X12778095Y-2903738D02*
X12682857Y-2856119D01*
X12682857Y-2856119D02*
X12540000Y-2856119D01*
X12540000Y-2856119D02*
X12397143Y-2903738D01*
X12397143Y-2903738D02*
X12301905Y-2998976D01*
X12301905Y-2998976D02*
X12254286Y-3094214D01*
X12254286Y-3094214D02*
X12206667Y-3284690D01*
X12206667Y-3284690D02*
X12206667Y-3427547D01*
X12206667Y-3427547D02*
X12254286Y-3618023D01*
X12254286Y-3618023D02*
X12301905Y-3713261D01*
X12301905Y-3713261D02*
X12397143Y-3808500D01*
X12397143Y-3808500D02*
X12540000Y-3856119D01*
X12540000Y-3856119D02*
X12635238Y-3856119D01*
X12635238Y-3856119D02*
X12778095Y-3808500D01*
X12778095Y-3808500D02*
X12825714Y-3760880D01*
X12825714Y-3760880D02*
X12825714Y-3427547D01*
X12825714Y-3427547D02*
X12635238Y-3427547D01*
X13254286Y-3856119D02*
X13254286Y-2856119D01*
X13254286Y-2856119D02*
X13825714Y-3856119D01*
X13825714Y-3856119D02*
X13825714Y-2856119D01*
X14301905Y-3856119D02*
X14301905Y-2856119D01*
X14301905Y-2856119D02*
X14540000Y-2856119D01*
X14540000Y-2856119D02*
X14682857Y-2903738D01*
X14682857Y-2903738D02*
X14778095Y-2998976D01*
X14778095Y-2998976D02*
X14825714Y-3094214D01*
X14825714Y-3094214D02*
X14873333Y-3284690D01*
X14873333Y-3284690D02*
X14873333Y-3427547D01*
X14873333Y-3427547D02*
X14825714Y-3618023D01*
X14825714Y-3618023D02*
X14778095Y-3713261D01*
X14778095Y-3713261D02*
X14682857Y-3808500D01*
X14682857Y-3808500D02*
X14540000Y-3856119D01*
X14540000Y-3856119D02*
X14301905Y-3856119D01*
X14818095Y-3856119D02*
X14818095Y-2856119D01*
X14818095Y-2856119D02*
X15389523Y-3856119D01*
X15389523Y-3856119D02*
X15389523Y-2856119D01*
X16437142Y-3760880D02*
X16389523Y-3808500D01*
X16389523Y-3808500D02*
X16246666Y-3856119D01*
X16246666Y-3856119D02*
X16151428Y-3856119D01*
X16151428Y-3856119D02*
X16008571Y-3808500D01*
X16008571Y-3808500D02*
X15913333Y-3713261D01*
X15913333Y-3713261D02*
X15865714Y-3618023D01*
X15865714Y-3618023D02*
X15818095Y-3427547D01*
X15818095Y-3427547D02*
X15818095Y-3284690D01*
X15818095Y-3284690D02*
X15865714Y-3094214D01*
X15865714Y-3094214D02*
X15913333Y-2998976D01*
X15913333Y-2998976D02*
X16008571Y-2903738D01*
X16008571Y-2903738D02*
X16151428Y-2856119D01*
X16151428Y-2856119D02*
X16246666Y-2856119D01*
X16246666Y-2856119D02*
X16389523Y-2903738D01*
X16389523Y-2903738D02*
X16437142Y-2951357D01*
X16818095Y-3808500D02*
X16960952Y-3856119D01*
X16960952Y-3856119D02*
X17199047Y-3856119D01*
X17199047Y-3856119D02*
X17294285Y-3808500D01*
X17294285Y-3808500D02*
X17341904Y-3760880D01*
X17341904Y-3760880D02*
X17389523Y-3665642D01*
X17389523Y-3665642D02*
X17389523Y-3570404D01*
X17389523Y-3570404D02*
X17341904Y-3475166D01*
X17341904Y-3475166D02*
X17294285Y-3427547D01*
X17294285Y-3427547D02*
X17199047Y-3379928D01*
X17199047Y-3379928D02*
X17008571Y-3332309D01*
X17008571Y-3332309D02*
X16913333Y-3284690D01*
X16913333Y-3284690D02*
X16865714Y-3237071D01*
X16865714Y-3237071D02*
X16818095Y-3141833D01*
X16818095Y-3141833D02*
X16818095Y-3046595D01*
X16818095Y-3046595D02*
X16865714Y-2951357D01*
X16865714Y-2951357D02*
X16913333Y-2903738D01*
X16913333Y-2903738D02*
X17008571Y-2856119D01*
X17008571Y-2856119D02*
X17246666Y-2856119D01*
X17246666Y-2856119D02*
X17389523Y-2903738D01*
X16072381Y-3856119D02*
X16072381Y-2856119D01*
X16072381Y-2856119D02*
X16643809Y-3856119D01*
X16643809Y-3856119D02*
X16643809Y-2856119D01*
X17691428Y-3856119D02*
X17358095Y-3379928D01*
X17120000Y-3856119D02*
X17120000Y-2856119D01*
X17120000Y-2856119D02*
X17500952Y-2856119D01*
X17500952Y-2856119D02*
X17596190Y-2903738D01*
X17596190Y-2903738D02*
X17643809Y-2951357D01*
X17643809Y-2951357D02*
X17691428Y-3046595D01*
X17691428Y-3046595D02*
X17691428Y-3189452D01*
X17691428Y-3189452D02*
X17643809Y-3284690D01*
X17643809Y-3284690D02*
X17596190Y-3332309D01*
X17596190Y-3332309D02*
X17500952Y-3379928D01*
X17500952Y-3379928D02*
X17120000Y-3379928D01*
X18120000Y-3332309D02*
X18453333Y-3332309D01*
X18596190Y-3856119D02*
X18120000Y-3856119D01*
X18120000Y-3856119D02*
X18120000Y-2856119D01*
X18120000Y-2856119D02*
X18596190Y-2856119D01*
X18977143Y-3808500D02*
X19120000Y-3856119D01*
X19120000Y-3856119D02*
X19358095Y-3856119D01*
X19358095Y-3856119D02*
X19453333Y-3808500D01*
X19453333Y-3808500D02*
X19500952Y-3760880D01*
X19500952Y-3760880D02*
X19548571Y-3665642D01*
X19548571Y-3665642D02*
X19548571Y-3570404D01*
X19548571Y-3570404D02*
X19500952Y-3475166D01*
X19500952Y-3475166D02*
X19453333Y-3427547D01*
X19453333Y-3427547D02*
X19358095Y-3379928D01*
X19358095Y-3379928D02*
X19167619Y-3332309D01*
X19167619Y-3332309D02*
X19072381Y-3284690D01*
X19072381Y-3284690D02*
X19024762Y-3237071D01*
X19024762Y-3237071D02*
X18977143Y-3141833D01*
X18977143Y-3141833D02*
X18977143Y-3046595D01*
X18977143Y-3046595D02*
X19024762Y-2951357D01*
X19024762Y-2951357D02*
X19072381Y-2903738D01*
X19072381Y-2903738D02*
X19167619Y-2856119D01*
X19167619Y-2856119D02*
X19405714Y-2856119D01*
X19405714Y-2856119D02*
X19548571Y-2903738D01*
X19977143Y-3332309D02*
X20310476Y-3332309D01*
X20453333Y-3856119D02*
X19977143Y-3856119D01*
X19977143Y-3856119D02*
X19977143Y-2856119D01*
X19977143Y-2856119D02*
X20453333Y-2856119D01*
X20739048Y-2856119D02*
X21310476Y-2856119D01*
X21024762Y-3856119D02*
X21024762Y-2856119D01*
D10*
X19229580Y-18666666D02*
X19277200Y-18714285D01*
X19277200Y-18714285D02*
X19324819Y-18857142D01*
X19324819Y-18857142D02*
X19324819Y-18952380D01*
X19324819Y-18952380D02*
X19277200Y-19095237D01*
X19277200Y-19095237D02*
X19181961Y-19190475D01*
X19181961Y-19190475D02*
X19086723Y-19238094D01*
X19086723Y-19238094D02*
X18896247Y-19285713D01*
X18896247Y-19285713D02*
X18753390Y-19285713D01*
X18753390Y-19285713D02*
X18562914Y-19238094D01*
X18562914Y-19238094D02*
X18467676Y-19190475D01*
X18467676Y-19190475D02*
X18372438Y-19095237D01*
X18372438Y-19095237D02*
X18324819Y-18952380D01*
X18324819Y-18952380D02*
X18324819Y-18857142D01*
X18324819Y-18857142D02*
X18372438Y-18714285D01*
X18372438Y-18714285D02*
X18420057Y-18666666D01*
X18420057Y-18285713D02*
X18372438Y-18238094D01*
X18372438Y-18238094D02*
X18324819Y-18142856D01*
X18324819Y-18142856D02*
X18324819Y-17904761D01*
X18324819Y-17904761D02*
X18372438Y-17809523D01*
X18372438Y-17809523D02*
X18420057Y-17761904D01*
X18420057Y-17761904D02*
X18515295Y-17714285D01*
X18515295Y-17714285D02*
X18610533Y-17714285D01*
X18610533Y-17714285D02*
X18753390Y-17761904D01*
X18753390Y-17761904D02*
X19324819Y-18333332D01*
X19324819Y-18333332D02*
X19324819Y-17714285D01*
X1729580Y-18666666D02*
X1777200Y-18714285D01*
X1777200Y-18714285D02*
X1824819Y-18857142D01*
X1824819Y-18857142D02*
X1824819Y-18952380D01*
X1824819Y-18952380D02*
X1777200Y-19095237D01*
X1777200Y-19095237D02*
X1681961Y-19190475D01*
X1681961Y-19190475D02*
X1586723Y-19238094D01*
X1586723Y-19238094D02*
X1396247Y-19285713D01*
X1396247Y-19285713D02*
X1253390Y-19285713D01*
X1253390Y-19285713D02*
X1062914Y-19238094D01*
X1062914Y-19238094D02*
X967676Y-19190475D01*
X967676Y-19190475D02*
X872438Y-19095237D01*
X872438Y-19095237D02*
X824819Y-18952380D01*
X824819Y-18952380D02*
X824819Y-18857142D01*
X824819Y-18857142D02*
X872438Y-18714285D01*
X872438Y-18714285D02*
X920057Y-18666666D01*
X1824819Y-18190475D02*
X1824819Y-17999999D01*
X1824819Y-17999999D02*
X1777200Y-17904761D01*
X1777200Y-17904761D02*
X1729580Y-17857142D01*
X1729580Y-17857142D02*
X1586723Y-17761904D01*
X1586723Y-17761904D02*
X1396247Y-17714285D01*
X1396247Y-17714285D02*
X1015295Y-17714285D01*
X1015295Y-17714285D02*
X920057Y-17761904D01*
X920057Y-17761904D02*
X872438Y-17809523D01*
X872438Y-17809523D02*
X824819Y-17904761D01*
X824819Y-17904761D02*
X824819Y-18095237D01*
X824819Y-18095237D02*
X872438Y-18190475D01*
X872438Y-18190475D02*
X920057Y-18238094D01*
X920057Y-18238094D02*
X1015295Y-18285713D01*
X1015295Y-18285713D02*
X1253390Y-18285713D01*
X1253390Y-18285713D02*
X1348628Y-18238094D01*
X1348628Y-18238094D02*
X1396247Y-18190475D01*
X1396247Y-18190475D02*
X1443866Y-18095237D01*
X1443866Y-18095237D02*
X1443866Y-17904761D01*
X1443866Y-17904761D02*
X1396247Y-17809523D01*
X1396247Y-17809523D02*
X1348628Y-17761904D01*
X1348628Y-17761904D02*
X1253390Y-17714285D01*
X19229580Y-15166666D02*
X19277200Y-15214285D01*
X19277200Y-15214285D02*
X19324819Y-15357142D01*
X19324819Y-15357142D02*
X19324819Y-15452380D01*
X19324819Y-15452380D02*
X19277200Y-15595237D01*
X19277200Y-15595237D02*
X19181961Y-15690475D01*
X19181961Y-15690475D02*
X19086723Y-15738094D01*
X19086723Y-15738094D02*
X18896247Y-15785713D01*
X18896247Y-15785713D02*
X18753390Y-15785713D01*
X18753390Y-15785713D02*
X18562914Y-15738094D01*
X18562914Y-15738094D02*
X18467676Y-15690475D01*
X18467676Y-15690475D02*
X18372438Y-15595237D01*
X18372438Y-15595237D02*
X18324819Y-15452380D01*
X18324819Y-15452380D02*
X18324819Y-15357142D01*
X18324819Y-15357142D02*
X18372438Y-15214285D01*
X18372438Y-15214285D02*
X18420057Y-15166666D01*
X18324819Y-14833332D02*
X18324819Y-14166666D01*
X18324819Y-14166666D02*
X19324819Y-14595237D01*
D11*
X19445714Y-2656119D02*
X19445714Y-1656119D01*
X19445714Y-1656119D02*
X19779047Y-2370404D01*
X19779047Y-2370404D02*
X20112380Y-1656119D01*
X20112380Y-1656119D02*
X20112380Y-2656119D01*
X20779047Y-1656119D02*
X20969523Y-1656119D01*
X20969523Y-1656119D02*
X21064761Y-1703738D01*
X21064761Y-1703738D02*
X21159999Y-1798976D01*
X21159999Y-1798976D02*
X21207618Y-1989452D01*
X21207618Y-1989452D02*
X21207618Y-2322785D01*
X21207618Y-2322785D02*
X21159999Y-2513261D01*
X21159999Y-2513261D02*
X21064761Y-2608500D01*
X21064761Y-2608500D02*
X20969523Y-2656119D01*
X20969523Y-2656119D02*
X20779047Y-2656119D01*
X20779047Y-2656119D02*
X20683809Y-2608500D01*
X20683809Y-2608500D02*
X20588571Y-2513261D01*
X20588571Y-2513261D02*
X20540952Y-2322785D01*
X20540952Y-2322785D02*
X20540952Y-1989452D01*
X20540952Y-1989452D02*
X20588571Y-1798976D01*
X20588571Y-1798976D02*
X20683809Y-1703738D01*
X20683809Y-1703738D02*
X20779047Y-1656119D01*
X21493333Y-1656119D02*
X22064761Y-1656119D01*
X21779047Y-2656119D02*
X21779047Y-1656119D01*
X22921904Y-2656119D02*
X22350476Y-2656119D01*
X22636190Y-2656119D02*
X22636190Y-1656119D01*
X22636190Y-1656119D02*
X22540952Y-1798976D01*
X22540952Y-1798976D02*
X22445714Y-1894214D01*
X22445714Y-1894214D02*
X22350476Y-1941833D01*
X19921905Y-4056119D02*
X19921905Y-3056119D01*
X19921905Y-3056119D02*
X20255238Y-3770404D01*
X20255238Y-3770404D02*
X20588571Y-3056119D01*
X20588571Y-3056119D02*
X20588571Y-4056119D01*
X21255238Y-3056119D02*
X21445714Y-3056119D01*
X21445714Y-3056119D02*
X21540952Y-3103738D01*
X21540952Y-3103738D02*
X21636190Y-3198976D01*
X21636190Y-3198976D02*
X21683809Y-3389452D01*
X21683809Y-3389452D02*
X21683809Y-3722785D01*
X21683809Y-3722785D02*
X21636190Y-3913261D01*
X21636190Y-3913261D02*
X21540952Y-4008500D01*
X21540952Y-4008500D02*
X21445714Y-4056119D01*
X21445714Y-4056119D02*
X21255238Y-4056119D01*
X21255238Y-4056119D02*
X21160000Y-4008500D01*
X21160000Y-4008500D02*
X21064762Y-3913261D01*
X21064762Y-3913261D02*
X21017143Y-3722785D01*
X21017143Y-3722785D02*
X21017143Y-3389452D01*
X21017143Y-3389452D02*
X21064762Y-3198976D01*
X21064762Y-3198976D02*
X21160000Y-3103738D01*
X21160000Y-3103738D02*
X21255238Y-3056119D01*
X21969524Y-3056119D02*
X22540952Y-3056119D01*
X22255238Y-4056119D02*
X22255238Y-3056119D01*
D10*
X3738095Y-5354819D02*
X3738095Y-6164342D01*
X3738095Y-6164342D02*
X3785714Y-6259580D01*
X3785714Y-6259580D02*
X3833333Y-6307200D01*
X3833333Y-6307200D02*
X3928571Y-6354819D01*
X3928571Y-6354819D02*
X4119047Y-6354819D01*
X4119047Y-6354819D02*
X4214285Y-6307200D01*
X4214285Y-6307200D02*
X4261904Y-6259580D01*
X4261904Y-6259580D02*
X4309523Y-6164342D01*
X4309523Y-6164342D02*
X4309523Y-5354819D01*
X4738095Y-5450057D02*
X4785714Y-5402438D01*
X4785714Y-5402438D02*
X4880952Y-5354819D01*
X4880952Y-5354819D02*
X5119047Y-5354819D01*
X5119047Y-5354819D02*
X5214285Y-5402438D01*
X5214285Y-5402438D02*
X5261904Y-5450057D01*
X5261904Y-5450057D02*
X5309523Y-5545295D01*
X5309523Y-5545295D02*
X5309523Y-5640533D01*
X5309523Y-5640533D02*
X5261904Y-5783390D01*
X5261904Y-5783390D02*
X4690476Y-6354819D01*
X4690476Y-6354819D02*
X5309523Y-6354819D01*
D12*
X10092857Y-9519747D02*
X9971904Y-9459271D01*
X9971904Y-9459271D02*
X9790476Y-9459271D01*
X9790476Y-9459271D02*
X9609047Y-9519747D01*
X9609047Y-9519747D02*
X9488095Y-9640699D01*
X9488095Y-9640699D02*
X9427618Y-9761652D01*
X9427618Y-9761652D02*
X9367142Y-10003556D01*
X9367142Y-10003556D02*
X9367142Y-10184985D01*
X9367142Y-10184985D02*
X9427618Y-10426890D01*
X9427618Y-10426890D02*
X9488095Y-10547842D01*
X9488095Y-10547842D02*
X9609047Y-10668795D01*
X9609047Y-10668795D02*
X9790476Y-10729271D01*
X9790476Y-10729271D02*
X9911428Y-10729271D01*
X9911428Y-10729271D02*
X10092857Y-10668795D01*
X10092857Y-10668795D02*
X10153333Y-10608318D01*
X10153333Y-10608318D02*
X10153333Y-10184985D01*
X10153333Y-10184985D02*
X9911428Y-10184985D01*
X10697618Y-10729271D02*
X10697618Y-9459271D01*
X10697618Y-9459271D02*
X11181428Y-9459271D01*
X11181428Y-9459271D02*
X11302380Y-9519747D01*
X11302380Y-9519747D02*
X11362857Y-9580223D01*
X11362857Y-9580223D02*
X11423333Y-9701175D01*
X11423333Y-9701175D02*
X11423333Y-9882604D01*
X11423333Y-9882604D02*
X11362857Y-10003556D01*
X11362857Y-10003556D02*
X11302380Y-10064033D01*
X11302380Y-10064033D02*
X11181428Y-10124509D01*
X11181428Y-10124509D02*
X10697618Y-10124509D01*
X12632857Y-10729271D02*
X11907142Y-10729271D01*
X12269999Y-10729271D02*
X12269999Y-9459271D01*
X12269999Y-9459271D02*
X12149047Y-9640699D01*
X12149047Y-9640699D02*
X12028095Y-9761652D01*
X12028095Y-9761652D02*
X11907142Y-9822128D01*
D10*
X10833333Y-6224819D02*
X10500000Y-5748628D01*
X10261905Y-6224819D02*
X10261905Y-5224819D01*
X10261905Y-5224819D02*
X10642857Y-5224819D01*
X10642857Y-5224819D02*
X10738095Y-5272438D01*
X10738095Y-5272438D02*
X10785714Y-5320057D01*
X10785714Y-5320057D02*
X10833333Y-5415295D01*
X10833333Y-5415295D02*
X10833333Y-5558152D01*
X10833333Y-5558152D02*
X10785714Y-5653390D01*
X10785714Y-5653390D02*
X10738095Y-5701009D01*
X10738095Y-5701009D02*
X10642857Y-5748628D01*
X10642857Y-5748628D02*
X10261905Y-5748628D01*
X11214286Y-5320057D02*
X11261905Y-5272438D01*
X11261905Y-5272438D02*
X11357143Y-5224819D01*
X11357143Y-5224819D02*
X11595238Y-5224819D01*
X11595238Y-5224819D02*
X11690476Y-5272438D01*
X11690476Y-5272438D02*
X11738095Y-5320057D01*
X11738095Y-5320057D02*
X11785714Y-5415295D01*
X11785714Y-5415295D02*
X11785714Y-5510533D01*
X11785714Y-5510533D02*
X11738095Y-5653390D01*
X11738095Y-5653390D02*
X11166667Y-6224819D01*
X11166667Y-6224819D02*
X11785714Y-6224819D01*
%TO.C,C3*%
D13*
X19790000Y-8140580D02*
X19790000Y-7859420D01*
X20810000Y-8140580D02*
X20810000Y-7859420D01*
%TO.C,C1*%
X8238748Y-8765000D02*
X8761252Y-8765000D01*
X8238748Y-10235000D02*
X8761252Y-10235000D01*
%TO.C,C6*%
X13238748Y-8765000D02*
X13761252Y-8765000D01*
X13238748Y-10235000D02*
X13761252Y-10235000D01*
%TO.C,R1*%
X2277500Y-15737258D02*
X2277500Y-15262742D01*
X3322500Y-15737258D02*
X3322500Y-15262742D01*
%TO.C,C4*%
X2290000Y-12640580D02*
X2290000Y-12359420D01*
X3310000Y-12640580D02*
X3310000Y-12359420D01*
%TO.C,C8*%
X2290000Y-21640580D02*
X2290000Y-21359420D01*
X3310000Y-21640580D02*
X3310000Y-21359420D01*
%TO.C,U1*%
X5750000Y-9000000D02*
X5750000Y-9700000D01*
X5750000Y-9000000D02*
X6250000Y-9000000D01*
X5750000Y-9700000D02*
X5950000Y-9900000D01*
X5750000Y-24250000D02*
X5750000Y-25750000D01*
X7300000Y-25449600D02*
X14700000Y-25449600D01*
X15850000Y-10150000D02*
X15850000Y-10950000D01*
X16250000Y-9000000D02*
X15750000Y-9000000D01*
X16250000Y-9000000D02*
X16250000Y-10150000D01*
X16250000Y-10150000D02*
X15850000Y-10150000D01*
X16250000Y-25000000D02*
X16250000Y-25750000D01*
X5750000Y-25449600D02*
X7300000Y-25449600D01*
X7300000Y-25750000D01*
X5750000Y-25750000D01*
X5750000Y-25449600D01*
G36*
X5750000Y-25449600D02*
G01*
X7300000Y-25449600D01*
X7300000Y-25750000D01*
X5750000Y-25750000D01*
X5750000Y-25449600D01*
G37*
X14700000Y-25449600D02*
X16250000Y-25449600D01*
X16250000Y-25750000D01*
X14700000Y-25750000D01*
X14700000Y-25449600D01*
G36*
X14700000Y-25449600D02*
G01*
X16250000Y-25449600D01*
X16250000Y-25750000D01*
X14700000Y-25750000D01*
X14700000Y-25449600D01*
G37*
%TO.C,C5*%
X19790000Y-11640580D02*
X19790000Y-11359420D01*
X20810000Y-11640580D02*
X20810000Y-11359420D01*
%TO.C,J1*%
X1110000Y-3700000D02*
X20890000Y-3700000D01*
X1110000Y-6700000D02*
X1110000Y-3700000D01*
X20890000Y-3700000D02*
X20890000Y-6700000D01*
X20890000Y-6700000D02*
X1110000Y-6700000D01*
%TO.C,C2*%
X19790000Y-18640580D02*
X19790000Y-18359420D01*
X20810000Y-18640580D02*
X20810000Y-18359420D01*
%TO.C,C9*%
X2290000Y-18640580D02*
X2290000Y-18359420D01*
X3310000Y-18640580D02*
X3310000Y-18359420D01*
%TO.C,C7*%
X19790000Y-15140580D02*
X19790000Y-14859420D01*
X20810000Y-15140580D02*
X20810000Y-14859420D01*
%TO.C,U2*%
X3590000Y-6740000D02*
X5410000Y-6740000D01*
X3590000Y-6790000D02*
X3590000Y-6740000D01*
X3590000Y-9860000D02*
X3590000Y-9810000D01*
X5410000Y-6740000D02*
X5410000Y-6790000D01*
X5410000Y-7910000D02*
X5410000Y-8690000D01*
X5410000Y-9810000D02*
X5410000Y-9860000D01*
X5410000Y-9860000D02*
X3590000Y-9860000D01*
X3050000Y-6790000D02*
X2810000Y-6460000D01*
X3290000Y-6460000D01*
X3050000Y-6790000D01*
G36*
X3050000Y-6790000D02*
G01*
X2810000Y-6460000D01*
X3290000Y-6460000D01*
X3050000Y-6790000D01*
G37*
%TO.C,R2*%
X10762742Y-6677500D02*
X11237258Y-6677500D01*
X10762742Y-7722500D02*
X11237258Y-7722500D01*
%TD*%
%LPC*%
D14*
%TO.C,C3*%
X20300000Y-8775000D03*
X20300000Y-7225000D03*
%TD*%
D15*
%TO.C,C1*%
X7550000Y-9500000D03*
X9450000Y-9500000D03*
%TD*%
%TO.C,C6*%
X12550000Y-9500000D03*
X14450000Y-9500000D03*
%TD*%
D16*
%TO.C,R1*%
X2800000Y-16325000D03*
X2800000Y-14675000D03*
%TD*%
D14*
%TO.C,C4*%
X2800000Y-13275000D03*
X2800000Y-11725000D03*
%TD*%
%TO.C,C8*%
X2800000Y-22275000D03*
X2800000Y-20725000D03*
%TD*%
D17*
%TO.C,U1*%
X5650000Y-10832000D03*
D18*
X5650000Y-12612000D03*
X5650000Y-14392000D03*
X5650000Y-16172000D03*
X5650000Y-17952000D03*
X5650000Y-19732000D03*
X5650000Y-21512000D03*
X5650000Y-23292000D03*
X16350000Y-24182000D03*
X16350000Y-22402000D03*
X16350000Y-20622000D03*
X16350000Y-18842000D03*
X16350000Y-17062000D03*
X16350000Y-15282000D03*
X16350000Y-13502000D03*
X16350000Y-11722000D03*
%TD*%
D14*
%TO.C,C5*%
X20300000Y-12275000D03*
X20300000Y-10725000D03*
%TD*%
D19*
%TO.C,J1*%
X3380000Y-5200000D03*
D20*
X5920000Y-5200000D03*
X8460000Y-5200000D03*
X11000000Y-5200000D03*
X13540000Y-5200000D03*
X16080000Y-5200000D03*
X18620000Y-5200000D03*
%TD*%
D14*
%TO.C,C2*%
X20300000Y-19275000D03*
X20300000Y-17725000D03*
%TD*%
%TO.C,C9*%
X2800000Y-19275000D03*
X2800000Y-17725000D03*
%TD*%
%TO.C,C7*%
X20300000Y-15775000D03*
X20300000Y-14225000D03*
%TD*%
D20*
%TO.C,MOT1*%
X21160000Y-5200000D03*
%TD*%
D21*
%TO.C,U2*%
X3362500Y-7350000D03*
X3362500Y-8300000D03*
X3362500Y-9250000D03*
X5637500Y-9250000D03*
X5637500Y-7350000D03*
%TD*%
D22*
%TO.C,GP1*%
X22000000Y-20300000D03*
%TD*%
D23*
%TO.C,R2*%
X10175000Y-7200000D03*
X11825000Y-7200000D03*
%TD*%
%LPD*%
M02*
