%TF.GenerationSoftware,KiCad,Pcbnew,10.0.6*%
%TF.CreationDate,2026-09-06T20:56:08-07:00*%
%TF.ProjectId,pmw3610_daughterboard,706d7733-3631-4305-9f64-617567687465,rev?*%
%TF.SameCoordinates,Original*%
%TF.FileFunction,Legend,Top*%
%TF.FilePolarity,Positive*%
%FSLAX46Y46*%
G04 Gerber Fmt 4.6, Leading zero omitted, Abs format (unit mm)*
G04 Created by KiCad (PCBNEW 10.0.6) date 2026-09-06 20:56:08*
%MOMM*%
%LPD*%
G01*
G04 APERTURE LIST*
%ADD10C,0.100000*%
%ADD11C,0.075000*%
%ADD12C,0.120000*%
G04 APERTURE END LIST*
D10*
X19085228Y-18599999D02*
X19113800Y-18628571D01*
X19113800Y-18628571D02*
X19142371Y-18714285D01*
X19142371Y-18714285D02*
X19142371Y-18771428D01*
X19142371Y-18771428D02*
X19113800Y-18857142D01*
X19113800Y-18857142D02*
X19056657Y-18914285D01*
X19056657Y-18914285D02*
X18999514Y-18942856D01*
X18999514Y-18942856D02*
X18885228Y-18971428D01*
X18885228Y-18971428D02*
X18799514Y-18971428D01*
X18799514Y-18971428D02*
X18685228Y-18942856D01*
X18685228Y-18942856D02*
X18628085Y-18914285D01*
X18628085Y-18914285D02*
X18570942Y-18857142D01*
X18570942Y-18857142D02*
X18542371Y-18771428D01*
X18542371Y-18771428D02*
X18542371Y-18714285D01*
X18542371Y-18714285D02*
X18570942Y-18628571D01*
X18570942Y-18628571D02*
X18599514Y-18599999D01*
X18599514Y-18371428D02*
X18570942Y-18342856D01*
X18570942Y-18342856D02*
X18542371Y-18285714D01*
X18542371Y-18285714D02*
X18542371Y-18142856D01*
X18542371Y-18142856D02*
X18570942Y-18085714D01*
X18570942Y-18085714D02*
X18599514Y-18057142D01*
X18599514Y-18057142D02*
X18656657Y-18028571D01*
X18656657Y-18028571D02*
X18713800Y-18028571D01*
X18713800Y-18028571D02*
X18799514Y-18057142D01*
X18799514Y-18057142D02*
X19142371Y-18399999D01*
X19142371Y-18399999D02*
X19142371Y-18028571D01*
X8900000Y-9715228D02*
X8871428Y-9743800D01*
X8871428Y-9743800D02*
X8785714Y-9772371D01*
X8785714Y-9772371D02*
X8728571Y-9772371D01*
X8728571Y-9772371D02*
X8642857Y-9743800D01*
X8642857Y-9743800D02*
X8585714Y-9686657D01*
X8585714Y-9686657D02*
X8557143Y-9629514D01*
X8557143Y-9629514D02*
X8528571Y-9515228D01*
X8528571Y-9515228D02*
X8528571Y-9429514D01*
X8528571Y-9429514D02*
X8557143Y-9315228D01*
X8557143Y-9315228D02*
X8585714Y-9258085D01*
X8585714Y-9258085D02*
X8642857Y-9200942D01*
X8642857Y-9200942D02*
X8728571Y-9172371D01*
X8728571Y-9172371D02*
X8785714Y-9172371D01*
X8785714Y-9172371D02*
X8871428Y-9200942D01*
X8871428Y-9200942D02*
X8900000Y-9229514D01*
X9471428Y-9772371D02*
X9128571Y-9772371D01*
X9300000Y-9772371D02*
X9300000Y-9172371D01*
X9300000Y-9172371D02*
X9242857Y-9258085D01*
X9242857Y-9258085D02*
X9185714Y-9315228D01*
X9185714Y-9315228D02*
X9128571Y-9343800D01*
X1585228Y-12599999D02*
X1613800Y-12628571D01*
X1613800Y-12628571D02*
X1642371Y-12714285D01*
X1642371Y-12714285D02*
X1642371Y-12771428D01*
X1642371Y-12771428D02*
X1613800Y-12857142D01*
X1613800Y-12857142D02*
X1556657Y-12914285D01*
X1556657Y-12914285D02*
X1499514Y-12942856D01*
X1499514Y-12942856D02*
X1385228Y-12971428D01*
X1385228Y-12971428D02*
X1299514Y-12971428D01*
X1299514Y-12971428D02*
X1185228Y-12942856D01*
X1185228Y-12942856D02*
X1128085Y-12914285D01*
X1128085Y-12914285D02*
X1070942Y-12857142D01*
X1070942Y-12857142D02*
X1042371Y-12771428D01*
X1042371Y-12771428D02*
X1042371Y-12714285D01*
X1042371Y-12714285D02*
X1070942Y-12628571D01*
X1070942Y-12628571D02*
X1099514Y-12599999D01*
X1242371Y-12085714D02*
X1642371Y-12085714D01*
X1013800Y-12228571D02*
X1442371Y-12371428D01*
X1442371Y-12371428D02*
X1442371Y-11999999D01*
X1585228Y-21599999D02*
X1613800Y-21628571D01*
X1613800Y-21628571D02*
X1642371Y-21714285D01*
X1642371Y-21714285D02*
X1642371Y-21771428D01*
X1642371Y-21771428D02*
X1613800Y-21857142D01*
X1613800Y-21857142D02*
X1556657Y-21914285D01*
X1556657Y-21914285D02*
X1499514Y-21942856D01*
X1499514Y-21942856D02*
X1385228Y-21971428D01*
X1385228Y-21971428D02*
X1299514Y-21971428D01*
X1299514Y-21971428D02*
X1185228Y-21942856D01*
X1185228Y-21942856D02*
X1128085Y-21914285D01*
X1128085Y-21914285D02*
X1070942Y-21857142D01*
X1070942Y-21857142D02*
X1042371Y-21771428D01*
X1042371Y-21771428D02*
X1042371Y-21714285D01*
X1042371Y-21714285D02*
X1070942Y-21628571D01*
X1070942Y-21628571D02*
X1099514Y-21599999D01*
X1299514Y-21257142D02*
X1270942Y-21314285D01*
X1270942Y-21314285D02*
X1242371Y-21342856D01*
X1242371Y-21342856D02*
X1185228Y-21371428D01*
X1185228Y-21371428D02*
X1156657Y-21371428D01*
X1156657Y-21371428D02*
X1099514Y-21342856D01*
X1099514Y-21342856D02*
X1070942Y-21314285D01*
X1070942Y-21314285D02*
X1042371Y-21257142D01*
X1042371Y-21257142D02*
X1042371Y-21142856D01*
X1042371Y-21142856D02*
X1070942Y-21085714D01*
X1070942Y-21085714D02*
X1099514Y-21057142D01*
X1099514Y-21057142D02*
X1156657Y-21028571D01*
X1156657Y-21028571D02*
X1185228Y-21028571D01*
X1185228Y-21028571D02*
X1242371Y-21057142D01*
X1242371Y-21057142D02*
X1270942Y-21085714D01*
X1270942Y-21085714D02*
X1299514Y-21142856D01*
X1299514Y-21142856D02*
X1299514Y-21257142D01*
X1299514Y-21257142D02*
X1328085Y-21314285D01*
X1328085Y-21314285D02*
X1356657Y-21342856D01*
X1356657Y-21342856D02*
X1413800Y-21371428D01*
X1413800Y-21371428D02*
X1528085Y-21371428D01*
X1528085Y-21371428D02*
X1585228Y-21342856D01*
X1585228Y-21342856D02*
X1613800Y-21314285D01*
X1613800Y-21314285D02*
X1642371Y-21257142D01*
X1642371Y-21257142D02*
X1642371Y-21142856D01*
X1642371Y-21142856D02*
X1613800Y-21085714D01*
X1613800Y-21085714D02*
X1585228Y-21057142D01*
X1585228Y-21057142D02*
X1528085Y-21028571D01*
X1528085Y-21028571D02*
X1413800Y-21028571D01*
X1413800Y-21028571D02*
X1356657Y-21057142D01*
X1356657Y-21057142D02*
X1328085Y-21085714D01*
X1328085Y-21085714D02*
X1299514Y-21142856D01*
X10799999Y-1872371D02*
X10799999Y-2300942D01*
X10799999Y-2300942D02*
X10771428Y-2386657D01*
X10771428Y-2386657D02*
X10714285Y-2443800D01*
X10714285Y-2443800D02*
X10628571Y-2472371D01*
X10628571Y-2472371D02*
X10571428Y-2472371D01*
X11399999Y-2472371D02*
X11057142Y-2472371D01*
X11228571Y-2472371D02*
X11228571Y-1872371D01*
X11228571Y-1872371D02*
X11171428Y-1958085D01*
X11171428Y-1958085D02*
X11114285Y-2015228D01*
X11114285Y-2015228D02*
X11057142Y-2043800D01*
D11*
X3284761Y-3779790D02*
X3260952Y-3803600D01*
X3260952Y-3803600D02*
X3189523Y-3827409D01*
X3189523Y-3827409D02*
X3141904Y-3827409D01*
X3141904Y-3827409D02*
X3070476Y-3803600D01*
X3070476Y-3803600D02*
X3022857Y-3755980D01*
X3022857Y-3755980D02*
X2999047Y-3708361D01*
X2999047Y-3708361D02*
X2975238Y-3613123D01*
X2975238Y-3613123D02*
X2975238Y-3541695D01*
X2975238Y-3541695D02*
X2999047Y-3446457D01*
X2999047Y-3446457D02*
X3022857Y-3398838D01*
X3022857Y-3398838D02*
X3070476Y-3351219D01*
X3070476Y-3351219D02*
X3141904Y-3327409D01*
X3141904Y-3327409D02*
X3189523Y-3327409D01*
X3189523Y-3327409D02*
X3260952Y-3351219D01*
X3260952Y-3351219D02*
X3284761Y-3375028D01*
X3499047Y-3827409D02*
X3499047Y-3327409D01*
X3784761Y-3827409D02*
X3570476Y-3541695D01*
X3784761Y-3327409D02*
X3499047Y-3613123D01*
X5658095Y-3827409D02*
X5658095Y-3327409D01*
X5991428Y-3327409D02*
X6086666Y-3327409D01*
X6086666Y-3327409D02*
X6134285Y-3351219D01*
X6134285Y-3351219D02*
X6181904Y-3398838D01*
X6181904Y-3398838D02*
X6205714Y-3494076D01*
X6205714Y-3494076D02*
X6205714Y-3660742D01*
X6205714Y-3660742D02*
X6181904Y-3755980D01*
X6181904Y-3755980D02*
X6134285Y-3803600D01*
X6134285Y-3803600D02*
X6086666Y-3827409D01*
X6086666Y-3827409D02*
X5991428Y-3827409D01*
X5991428Y-3827409D02*
X5943809Y-3803600D01*
X5943809Y-3803600D02*
X5896190Y-3755980D01*
X5896190Y-3755980D02*
X5872381Y-3660742D01*
X5872381Y-3660742D02*
X5872381Y-3494076D01*
X5872381Y-3494076D02*
X5896190Y-3398838D01*
X5896190Y-3398838D02*
X5943809Y-3351219D01*
X5943809Y-3351219D02*
X5991428Y-3327409D01*
X8590952Y-3351219D02*
X8543333Y-3327409D01*
X8543333Y-3327409D02*
X8471904Y-3327409D01*
X8471904Y-3327409D02*
X8400476Y-3351219D01*
X8400476Y-3351219D02*
X8352857Y-3398838D01*
X8352857Y-3398838D02*
X8329047Y-3446457D01*
X8329047Y-3446457D02*
X8305238Y-3541695D01*
X8305238Y-3541695D02*
X8305238Y-3613123D01*
X8305238Y-3613123D02*
X8329047Y-3708361D01*
X8329047Y-3708361D02*
X8352857Y-3755980D01*
X8352857Y-3755980D02*
X8400476Y-3803600D01*
X8400476Y-3803600D02*
X8471904Y-3827409D01*
X8471904Y-3827409D02*
X8519523Y-3827409D01*
X8519523Y-3827409D02*
X8590952Y-3803600D01*
X8590952Y-3803600D02*
X8614761Y-3779790D01*
X8614761Y-3779790D02*
X8614761Y-3613123D01*
X8614761Y-3613123D02*
X8519523Y-3613123D01*
X10833334Y-3327409D02*
X11000000Y-3827409D01*
X11000000Y-3827409D02*
X11166667Y-3327409D01*
X13670952Y-3351219D02*
X13623333Y-3327409D01*
X13623333Y-3327409D02*
X13551904Y-3327409D01*
X13551904Y-3327409D02*
X13480476Y-3351219D01*
X13480476Y-3351219D02*
X13432857Y-3398838D01*
X13432857Y-3398838D02*
X13409047Y-3446457D01*
X13409047Y-3446457D02*
X13385238Y-3541695D01*
X13385238Y-3541695D02*
X13385238Y-3613123D01*
X13385238Y-3613123D02*
X13409047Y-3708361D01*
X13409047Y-3708361D02*
X13432857Y-3755980D01*
X13432857Y-3755980D02*
X13480476Y-3803600D01*
X13480476Y-3803600D02*
X13551904Y-3827409D01*
X13551904Y-3827409D02*
X13599523Y-3827409D01*
X13599523Y-3827409D02*
X13670952Y-3803600D01*
X13670952Y-3803600D02*
X13694761Y-3779790D01*
X13694761Y-3779790D02*
X13694761Y-3613123D01*
X13694761Y-3613123D02*
X13599523Y-3613123D01*
X15996666Y-3779790D02*
X15972857Y-3803600D01*
X15972857Y-3803600D02*
X15901428Y-3827409D01*
X15901428Y-3827409D02*
X15853809Y-3827409D01*
X15853809Y-3827409D02*
X15782381Y-3803600D01*
X15782381Y-3803600D02*
X15734762Y-3755980D01*
X15734762Y-3755980D02*
X15710952Y-3708361D01*
X15710952Y-3708361D02*
X15687143Y-3613123D01*
X15687143Y-3613123D02*
X15687143Y-3541695D01*
X15687143Y-3541695D02*
X15710952Y-3446457D01*
X15710952Y-3446457D02*
X15734762Y-3398838D01*
X15734762Y-3398838D02*
X15782381Y-3351219D01*
X15782381Y-3351219D02*
X15853809Y-3327409D01*
X15853809Y-3327409D02*
X15901428Y-3327409D01*
X15901428Y-3327409D02*
X15972857Y-3351219D01*
X15972857Y-3351219D02*
X15996666Y-3375028D01*
X16187143Y-3803600D02*
X16258571Y-3827409D01*
X16258571Y-3827409D02*
X16377619Y-3827409D01*
X16377619Y-3827409D02*
X16425238Y-3803600D01*
X16425238Y-3803600D02*
X16449047Y-3779790D01*
X16449047Y-3779790D02*
X16472857Y-3732171D01*
X16472857Y-3732171D02*
X16472857Y-3684552D01*
X16472857Y-3684552D02*
X16449047Y-3636933D01*
X16449047Y-3636933D02*
X16425238Y-3613123D01*
X16425238Y-3613123D02*
X16377619Y-3589314D01*
X16377619Y-3589314D02*
X16282381Y-3565504D01*
X16282381Y-3565504D02*
X16234762Y-3541695D01*
X16234762Y-3541695D02*
X16210952Y-3517885D01*
X16210952Y-3517885D02*
X16187143Y-3470266D01*
X16187143Y-3470266D02*
X16187143Y-3422647D01*
X16187143Y-3422647D02*
X16210952Y-3375028D01*
X16210952Y-3375028D02*
X16234762Y-3351219D01*
X16234762Y-3351219D02*
X16282381Y-3327409D01*
X16282381Y-3327409D02*
X16401428Y-3327409D01*
X16401428Y-3327409D02*
X16472857Y-3351219D01*
X18346190Y-3827409D02*
X18179524Y-3589314D01*
X18060476Y-3827409D02*
X18060476Y-3327409D01*
X18060476Y-3327409D02*
X18250952Y-3327409D01*
X18250952Y-3327409D02*
X18298571Y-3351219D01*
X18298571Y-3351219D02*
X18322381Y-3375028D01*
X18322381Y-3375028D02*
X18346190Y-3422647D01*
X18346190Y-3422647D02*
X18346190Y-3494076D01*
X18346190Y-3494076D02*
X18322381Y-3541695D01*
X18322381Y-3541695D02*
X18298571Y-3565504D01*
X18298571Y-3565504D02*
X18250952Y-3589314D01*
X18250952Y-3589314D02*
X18060476Y-3589314D01*
X18536667Y-3803600D02*
X18608095Y-3827409D01*
X18608095Y-3827409D02*
X18727143Y-3827409D01*
X18727143Y-3827409D02*
X18774762Y-3803600D01*
X18774762Y-3803600D02*
X18798571Y-3779790D01*
X18798571Y-3779790D02*
X18822381Y-3732171D01*
X18822381Y-3732171D02*
X18822381Y-3684552D01*
X18822381Y-3684552D02*
X18798571Y-3636933D01*
X18798571Y-3636933D02*
X18774762Y-3613123D01*
X18774762Y-3613123D02*
X18727143Y-3589314D01*
X18727143Y-3589314D02*
X18631905Y-3565504D01*
X18631905Y-3565504D02*
X18584286Y-3541695D01*
X18584286Y-3541695D02*
X18560476Y-3517885D01*
X18560476Y-3517885D02*
X18536667Y-3470266D01*
X18536667Y-3470266D02*
X18536667Y-3422647D01*
X18536667Y-3422647D02*
X18560476Y-3375028D01*
X18560476Y-3375028D02*
X18584286Y-3351219D01*
X18584286Y-3351219D02*
X18631905Y-3327409D01*
X18631905Y-3327409D02*
X18750952Y-3327409D01*
X18750952Y-3327409D02*
X18822381Y-3351219D01*
X18965238Y-3327409D02*
X19250952Y-3327409D01*
X19108095Y-3827409D02*
X19108095Y-3327409D01*
D10*
X1642371Y-15599999D02*
X1356657Y-15799999D01*
X1642371Y-15942856D02*
X1042371Y-15942856D01*
X1042371Y-15942856D02*
X1042371Y-15714285D01*
X1042371Y-15714285D02*
X1070942Y-15657142D01*
X1070942Y-15657142D02*
X1099514Y-15628571D01*
X1099514Y-15628571D02*
X1156657Y-15599999D01*
X1156657Y-15599999D02*
X1242371Y-15599999D01*
X1242371Y-15599999D02*
X1299514Y-15628571D01*
X1299514Y-15628571D02*
X1328085Y-15657142D01*
X1328085Y-15657142D02*
X1356657Y-15714285D01*
X1356657Y-15714285D02*
X1356657Y-15942856D01*
X1642371Y-15028571D02*
X1642371Y-15371428D01*
X1642371Y-15199999D02*
X1042371Y-15199999D01*
X1042371Y-15199999D02*
X1128085Y-15257142D01*
X1128085Y-15257142D02*
X1185228Y-15314285D01*
X1185228Y-15314285D02*
X1213800Y-15371428D01*
X1585228Y-18599999D02*
X1613800Y-18628571D01*
X1613800Y-18628571D02*
X1642371Y-18714285D01*
X1642371Y-18714285D02*
X1642371Y-18771428D01*
X1642371Y-18771428D02*
X1613800Y-18857142D01*
X1613800Y-18857142D02*
X1556657Y-18914285D01*
X1556657Y-18914285D02*
X1499514Y-18942856D01*
X1499514Y-18942856D02*
X1385228Y-18971428D01*
X1385228Y-18971428D02*
X1299514Y-18971428D01*
X1299514Y-18971428D02*
X1185228Y-18942856D01*
X1185228Y-18942856D02*
X1128085Y-18914285D01*
X1128085Y-18914285D02*
X1070942Y-18857142D01*
X1070942Y-18857142D02*
X1042371Y-18771428D01*
X1042371Y-18771428D02*
X1042371Y-18714285D01*
X1042371Y-18714285D02*
X1070942Y-18628571D01*
X1070942Y-18628571D02*
X1099514Y-18599999D01*
X1642371Y-18314285D02*
X1642371Y-18199999D01*
X1642371Y-18199999D02*
X1613800Y-18142856D01*
X1613800Y-18142856D02*
X1585228Y-18114285D01*
X1585228Y-18114285D02*
X1499514Y-18057142D01*
X1499514Y-18057142D02*
X1385228Y-18028571D01*
X1385228Y-18028571D02*
X1156657Y-18028571D01*
X1156657Y-18028571D02*
X1099514Y-18057142D01*
X1099514Y-18057142D02*
X1070942Y-18085714D01*
X1070942Y-18085714D02*
X1042371Y-18142856D01*
X1042371Y-18142856D02*
X1042371Y-18257142D01*
X1042371Y-18257142D02*
X1070942Y-18314285D01*
X1070942Y-18314285D02*
X1099514Y-18342856D01*
X1099514Y-18342856D02*
X1156657Y-18371428D01*
X1156657Y-18371428D02*
X1299514Y-18371428D01*
X1299514Y-18371428D02*
X1356657Y-18342856D01*
X1356657Y-18342856D02*
X1385228Y-18314285D01*
X1385228Y-18314285D02*
X1413800Y-18257142D01*
X1413800Y-18257142D02*
X1413800Y-18142856D01*
X1413800Y-18142856D02*
X1385228Y-18085714D01*
X1385228Y-18085714D02*
X1356657Y-18057142D01*
X1356657Y-18057142D02*
X1299514Y-18028571D01*
X19085228Y-8099999D02*
X19113800Y-8128571D01*
X19113800Y-8128571D02*
X19142371Y-8214285D01*
X19142371Y-8214285D02*
X19142371Y-8271428D01*
X19142371Y-8271428D02*
X19113800Y-8357142D01*
X19113800Y-8357142D02*
X19056657Y-8414285D01*
X19056657Y-8414285D02*
X18999514Y-8442856D01*
X18999514Y-8442856D02*
X18885228Y-8471428D01*
X18885228Y-8471428D02*
X18799514Y-8471428D01*
X18799514Y-8471428D02*
X18685228Y-8442856D01*
X18685228Y-8442856D02*
X18628085Y-8414285D01*
X18628085Y-8414285D02*
X18570942Y-8357142D01*
X18570942Y-8357142D02*
X18542371Y-8271428D01*
X18542371Y-8271428D02*
X18542371Y-8214285D01*
X18542371Y-8214285D02*
X18570942Y-8128571D01*
X18570942Y-8128571D02*
X18599514Y-8099999D01*
X18542371Y-7899999D02*
X18542371Y-7528571D01*
X18542371Y-7528571D02*
X18770942Y-7728571D01*
X18770942Y-7728571D02*
X18770942Y-7642856D01*
X18770942Y-7642856D02*
X18799514Y-7585714D01*
X18799514Y-7585714D02*
X18828085Y-7557142D01*
X18828085Y-7557142D02*
X18885228Y-7528571D01*
X18885228Y-7528571D02*
X19028085Y-7528571D01*
X19028085Y-7528571D02*
X19085228Y-7557142D01*
X19085228Y-7557142D02*
X19113800Y-7585714D01*
X19113800Y-7585714D02*
X19142371Y-7642856D01*
X19142371Y-7642856D02*
X19142371Y-7814285D01*
X19142371Y-7814285D02*
X19113800Y-7871428D01*
X19113800Y-7871428D02*
X19085228Y-7899999D01*
X19085228Y-11599999D02*
X19113800Y-11628571D01*
X19113800Y-11628571D02*
X19142371Y-11714285D01*
X19142371Y-11714285D02*
X19142371Y-11771428D01*
X19142371Y-11771428D02*
X19113800Y-11857142D01*
X19113800Y-11857142D02*
X19056657Y-11914285D01*
X19056657Y-11914285D02*
X18999514Y-11942856D01*
X18999514Y-11942856D02*
X18885228Y-11971428D01*
X18885228Y-11971428D02*
X18799514Y-11971428D01*
X18799514Y-11971428D02*
X18685228Y-11942856D01*
X18685228Y-11942856D02*
X18628085Y-11914285D01*
X18628085Y-11914285D02*
X18570942Y-11857142D01*
X18570942Y-11857142D02*
X18542371Y-11771428D01*
X18542371Y-11771428D02*
X18542371Y-11714285D01*
X18542371Y-11714285D02*
X18570942Y-11628571D01*
X18570942Y-11628571D02*
X18599514Y-11599999D01*
X18542371Y-11057142D02*
X18542371Y-11342856D01*
X18542371Y-11342856D02*
X18828085Y-11371428D01*
X18828085Y-11371428D02*
X18799514Y-11342856D01*
X18799514Y-11342856D02*
X18770942Y-11285714D01*
X18770942Y-11285714D02*
X18770942Y-11142856D01*
X18770942Y-11142856D02*
X18799514Y-11085714D01*
X18799514Y-11085714D02*
X18828085Y-11057142D01*
X18828085Y-11057142D02*
X18885228Y-11028571D01*
X18885228Y-11028571D02*
X19028085Y-11028571D01*
X19028085Y-11028571D02*
X19085228Y-11057142D01*
X19085228Y-11057142D02*
X19113800Y-11085714D01*
X19113800Y-11085714D02*
X19142371Y-11142856D01*
X19142371Y-11142856D02*
X19142371Y-11285714D01*
X19142371Y-11285714D02*
X19113800Y-11342856D01*
X19113800Y-11342856D02*
X19085228Y-11371428D01*
X20131429Y-2472371D02*
X20131429Y-1872371D01*
X20131429Y-1872371D02*
X20331429Y-2300942D01*
X20331429Y-2300942D02*
X20531429Y-1872371D01*
X20531429Y-1872371D02*
X20531429Y-2472371D01*
X20931428Y-1872371D02*
X21045714Y-1872371D01*
X21045714Y-1872371D02*
X21102857Y-1900942D01*
X21102857Y-1900942D02*
X21160000Y-1958085D01*
X21160000Y-1958085D02*
X21188571Y-2072371D01*
X21188571Y-2072371D02*
X21188571Y-2272371D01*
X21188571Y-2272371D02*
X21160000Y-2386657D01*
X21160000Y-2386657D02*
X21102857Y-2443800D01*
X21102857Y-2443800D02*
X21045714Y-2472371D01*
X21045714Y-2472371D02*
X20931428Y-2472371D01*
X20931428Y-2472371D02*
X20874286Y-2443800D01*
X20874286Y-2443800D02*
X20817143Y-2386657D01*
X20817143Y-2386657D02*
X20788571Y-2272371D01*
X20788571Y-2272371D02*
X20788571Y-2072371D01*
X20788571Y-2072371D02*
X20817143Y-1958085D01*
X20817143Y-1958085D02*
X20874286Y-1900942D01*
X20874286Y-1900942D02*
X20931428Y-1872371D01*
X21359999Y-1872371D02*
X21702857Y-1872371D01*
X21531428Y-2472371D02*
X21531428Y-1872371D01*
X22217142Y-2472371D02*
X21874285Y-2472371D01*
X22045714Y-2472371D02*
X22045714Y-1872371D01*
X22045714Y-1872371D02*
X21988571Y-1958085D01*
X21988571Y-1958085D02*
X21931428Y-2015228D01*
X21931428Y-2015228D02*
X21874285Y-2043800D01*
D11*
X20540952Y-3827409D02*
X20540952Y-3327409D01*
X20540952Y-3327409D02*
X20707619Y-3684552D01*
X20707619Y-3684552D02*
X20874285Y-3327409D01*
X20874285Y-3327409D02*
X20874285Y-3827409D01*
X21207619Y-3327409D02*
X21302857Y-3327409D01*
X21302857Y-3327409D02*
X21350476Y-3351219D01*
X21350476Y-3351219D02*
X21398095Y-3398838D01*
X21398095Y-3398838D02*
X21421905Y-3494076D01*
X21421905Y-3494076D02*
X21421905Y-3660742D01*
X21421905Y-3660742D02*
X21398095Y-3755980D01*
X21398095Y-3755980D02*
X21350476Y-3803600D01*
X21350476Y-3803600D02*
X21302857Y-3827409D01*
X21302857Y-3827409D02*
X21207619Y-3827409D01*
X21207619Y-3827409D02*
X21160000Y-3803600D01*
X21160000Y-3803600D02*
X21112381Y-3755980D01*
X21112381Y-3755980D02*
X21088572Y-3660742D01*
X21088572Y-3660742D02*
X21088572Y-3494076D01*
X21088572Y-3494076D02*
X21112381Y-3398838D01*
X21112381Y-3398838D02*
X21160000Y-3351219D01*
X21160000Y-3351219D02*
X21207619Y-3327409D01*
X21564763Y-3327409D02*
X21850477Y-3327409D01*
X21707620Y-3827409D02*
X21707620Y-3327409D01*
D10*
X19085228Y-15099999D02*
X19113800Y-15128571D01*
X19113800Y-15128571D02*
X19142371Y-15214285D01*
X19142371Y-15214285D02*
X19142371Y-15271428D01*
X19142371Y-15271428D02*
X19113800Y-15357142D01*
X19113800Y-15357142D02*
X19056657Y-15414285D01*
X19056657Y-15414285D02*
X18999514Y-15442856D01*
X18999514Y-15442856D02*
X18885228Y-15471428D01*
X18885228Y-15471428D02*
X18799514Y-15471428D01*
X18799514Y-15471428D02*
X18685228Y-15442856D01*
X18685228Y-15442856D02*
X18628085Y-15414285D01*
X18628085Y-15414285D02*
X18570942Y-15357142D01*
X18570942Y-15357142D02*
X18542371Y-15271428D01*
X18542371Y-15271428D02*
X18542371Y-15214285D01*
X18542371Y-15214285D02*
X18570942Y-15128571D01*
X18570942Y-15128571D02*
X18599514Y-15099999D01*
X18542371Y-14899999D02*
X18542371Y-14499999D01*
X18542371Y-14499999D02*
X19142371Y-14757142D01*
X10542857Y-26672371D02*
X10542857Y-27158085D01*
X10542857Y-27158085D02*
X10571428Y-27215228D01*
X10571428Y-27215228D02*
X10600000Y-27243800D01*
X10600000Y-27243800D02*
X10657142Y-27272371D01*
X10657142Y-27272371D02*
X10771428Y-27272371D01*
X10771428Y-27272371D02*
X10828571Y-27243800D01*
X10828571Y-27243800D02*
X10857142Y-27215228D01*
X10857142Y-27215228D02*
X10885714Y-27158085D01*
X10885714Y-27158085D02*
X10885714Y-26672371D01*
X11485713Y-27272371D02*
X11142856Y-27272371D01*
X11314285Y-27272371D02*
X11314285Y-26672371D01*
X11314285Y-26672371D02*
X11257142Y-26758085D01*
X11257142Y-26758085D02*
X11199999Y-26815228D01*
X11199999Y-26815228D02*
X11142856Y-26843800D01*
X15900000Y-9772371D02*
X15700000Y-9486657D01*
X15557143Y-9772371D02*
X15557143Y-9172371D01*
X15557143Y-9172371D02*
X15785714Y-9172371D01*
X15785714Y-9172371D02*
X15842857Y-9200942D01*
X15842857Y-9200942D02*
X15871428Y-9229514D01*
X15871428Y-9229514D02*
X15900000Y-9286657D01*
X15900000Y-9286657D02*
X15900000Y-9372371D01*
X15900000Y-9372371D02*
X15871428Y-9429514D01*
X15871428Y-9429514D02*
X15842857Y-9458085D01*
X15842857Y-9458085D02*
X15785714Y-9486657D01*
X15785714Y-9486657D02*
X15557143Y-9486657D01*
X16128571Y-9229514D02*
X16157143Y-9200942D01*
X16157143Y-9200942D02*
X16214286Y-9172371D01*
X16214286Y-9172371D02*
X16357143Y-9172371D01*
X16357143Y-9172371D02*
X16414286Y-9200942D01*
X16414286Y-9200942D02*
X16442857Y-9229514D01*
X16442857Y-9229514D02*
X16471428Y-9286657D01*
X16471428Y-9286657D02*
X16471428Y-9343800D01*
X16471428Y-9343800D02*
X16442857Y-9429514D01*
X16442857Y-9429514D02*
X16100000Y-9772371D01*
X16100000Y-9772371D02*
X16471428Y-9772371D01*
X4042857Y-9972371D02*
X4042857Y-10458085D01*
X4042857Y-10458085D02*
X4071428Y-10515228D01*
X4071428Y-10515228D02*
X4100000Y-10543800D01*
X4100000Y-10543800D02*
X4157142Y-10572371D01*
X4157142Y-10572371D02*
X4271428Y-10572371D01*
X4271428Y-10572371D02*
X4328571Y-10543800D01*
X4328571Y-10543800D02*
X4357142Y-10515228D01*
X4357142Y-10515228D02*
X4385714Y-10458085D01*
X4385714Y-10458085D02*
X4385714Y-9972371D01*
X4642856Y-10029514D02*
X4671428Y-10000942D01*
X4671428Y-10000942D02*
X4728571Y-9972371D01*
X4728571Y-9972371D02*
X4871428Y-9972371D01*
X4871428Y-9972371D02*
X4928571Y-10000942D01*
X4928571Y-10000942D02*
X4957142Y-10029514D01*
X4957142Y-10029514D02*
X4985713Y-10086657D01*
X4985713Y-10086657D02*
X4985713Y-10143800D01*
X4985713Y-10143800D02*
X4957142Y-10229514D01*
X4957142Y-10229514D02*
X4614285Y-10572371D01*
X4614285Y-10572371D02*
X4985713Y-10572371D01*
X12900000Y-9715228D02*
X12871428Y-9743800D01*
X12871428Y-9743800D02*
X12785714Y-9772371D01*
X12785714Y-9772371D02*
X12728571Y-9772371D01*
X12728571Y-9772371D02*
X12642857Y-9743800D01*
X12642857Y-9743800D02*
X12585714Y-9686657D01*
X12585714Y-9686657D02*
X12557143Y-9629514D01*
X12557143Y-9629514D02*
X12528571Y-9515228D01*
X12528571Y-9515228D02*
X12528571Y-9429514D01*
X12528571Y-9429514D02*
X12557143Y-9315228D01*
X12557143Y-9315228D02*
X12585714Y-9258085D01*
X12585714Y-9258085D02*
X12642857Y-9200942D01*
X12642857Y-9200942D02*
X12728571Y-9172371D01*
X12728571Y-9172371D02*
X12785714Y-9172371D01*
X12785714Y-9172371D02*
X12871428Y-9200942D01*
X12871428Y-9200942D02*
X12900000Y-9229514D01*
X13414286Y-9172371D02*
X13300000Y-9172371D01*
X13300000Y-9172371D02*
X13242857Y-9200942D01*
X13242857Y-9200942D02*
X13214286Y-9229514D01*
X13214286Y-9229514D02*
X13157143Y-9315228D01*
X13157143Y-9315228D02*
X13128571Y-9429514D01*
X13128571Y-9429514D02*
X13128571Y-9658085D01*
X13128571Y-9658085D02*
X13157143Y-9715228D01*
X13157143Y-9715228D02*
X13185714Y-9743800D01*
X13185714Y-9743800D02*
X13242857Y-9772371D01*
X13242857Y-9772371D02*
X13357143Y-9772371D01*
X13357143Y-9772371D02*
X13414286Y-9743800D01*
X13414286Y-9743800D02*
X13442857Y-9715228D01*
X13442857Y-9715228D02*
X13471428Y-9658085D01*
X13471428Y-9658085D02*
X13471428Y-9515228D01*
X13471428Y-9515228D02*
X13442857Y-9458085D01*
X13442857Y-9458085D02*
X13414286Y-9429514D01*
X13414286Y-9429514D02*
X13357143Y-9400942D01*
X13357143Y-9400942D02*
X13242857Y-9400942D01*
X13242857Y-9400942D02*
X13185714Y-9429514D01*
X13185714Y-9429514D02*
X13157143Y-9458085D01*
X13157143Y-9458085D02*
X13128571Y-9515228D01*
%TO.C,C2*%
D12*
X19790000Y-18640580D02*
X19790000Y-18359420D01*
X20810000Y-18640580D02*
X20810000Y-18359420D01*
%TO.C,C1*%
X8738748Y-6765000D02*
X9261252Y-6765000D01*
X8738748Y-8235000D02*
X9261252Y-8235000D01*
%TO.C,C4*%
X2290000Y-12640580D02*
X2290000Y-12359420D01*
X3310000Y-12640580D02*
X3310000Y-12359420D01*
%TO.C,C8*%
X2290000Y-21640580D02*
X2290000Y-21359420D01*
X3310000Y-21640580D02*
X3310000Y-21359420D01*
%TO.C,R1*%
X2277500Y-15737258D02*
X2277500Y-15262742D01*
X3322500Y-15737258D02*
X3322500Y-15262742D01*
%TO.C,C9*%
X2290000Y-18640580D02*
X2290000Y-18359420D01*
X3310000Y-18640580D02*
X3310000Y-18359420D01*
%TO.C,C3*%
X19790000Y-8140580D02*
X19790000Y-7859420D01*
X20810000Y-8140580D02*
X20810000Y-7859420D01*
%TO.C,C5*%
X19790000Y-11640580D02*
X19790000Y-11359420D01*
X20810000Y-11640580D02*
X20810000Y-11359420D01*
%TO.C,C7*%
X19790000Y-15140580D02*
X19790000Y-14859420D01*
X20810000Y-15140580D02*
X20810000Y-14859420D01*
%TO.C,U1*%
X5750000Y-9000000D02*
X5750000Y-9700000D01*
X5750000Y-9000000D02*
X6250000Y-9000000D01*
X5750000Y-9700000D02*
X5950000Y-9900000D01*
X5750000Y-24250000D02*
X5750000Y-25750000D01*
X7300000Y-25449600D02*
X14700000Y-25449600D01*
X15850000Y-10150000D02*
X15850000Y-10950000D01*
X16250000Y-9000000D02*
X15750000Y-9000000D01*
X16250000Y-9000000D02*
X16250000Y-10150000D01*
X16250000Y-10150000D02*
X15850000Y-10150000D01*
X16250000Y-25000000D02*
X16250000Y-25750000D01*
X5750000Y-25449600D02*
X7300000Y-25449600D01*
X7300000Y-25750000D01*
X5750000Y-25750000D01*
X5750000Y-25449600D01*
G36*
X5750000Y-25449600D02*
G01*
X7300000Y-25449600D01*
X7300000Y-25750000D01*
X5750000Y-25750000D01*
X5750000Y-25449600D01*
G37*
X14700000Y-25449600D02*
X16250000Y-25449600D01*
X16250000Y-25750000D01*
X14700000Y-25750000D01*
X14700000Y-25449600D01*
G36*
X14700000Y-25449600D02*
G01*
X16250000Y-25449600D01*
X16250000Y-25750000D01*
X14700000Y-25750000D01*
X14700000Y-25449600D01*
G37*
%TO.C,R2*%
X15762742Y-6977500D02*
X16237258Y-6977500D01*
X15762742Y-8022500D02*
X16237258Y-8022500D01*
%TO.C,U2*%
X3590000Y-6740000D02*
X5410000Y-6740000D01*
X3590000Y-6790000D02*
X3590000Y-6740000D01*
X3590000Y-9860000D02*
X3590000Y-9810000D01*
X5410000Y-6740000D02*
X5410000Y-6790000D01*
X5410000Y-7910000D02*
X5410000Y-8690000D01*
X5410000Y-9810000D02*
X5410000Y-9860000D01*
X5410000Y-9860000D02*
X3590000Y-9860000D01*
X3050000Y-6790000D02*
X2810000Y-6460000D01*
X3290000Y-6460000D01*
X3050000Y-6790000D01*
G36*
X3050000Y-6790000D02*
G01*
X2810000Y-6460000D01*
X3290000Y-6460000D01*
X3050000Y-6790000D01*
G37*
%TO.C,C6*%
X12738748Y-6765000D02*
X13261252Y-6765000D01*
X12738748Y-8235000D02*
X13261252Y-8235000D01*
%TD*%
M02*
